<svg xmlns="http://www.w3.org/2000/svg" xmlns:xlink="http://www.w3.org/1999/xlink" width="110" height="110" viewBox="0 0 110 110">
  <defs>
    <filter id="Path_982547" x="0" y="0" width="110" height="110" filterUnits="userSpaceOnUse">
      <feOffset dy="3" input="SourceAlpha"/>
      <feGaussianBlur stdDeviation="3" result="blur"/>
      <feFlood flood-opacity="0.161"/>
      <feComposite operator="in" in2="blur"/>
      <feComposite in="SourceGraphic"/>
    </filter>
  </defs>
  <g id="Group_1157637" data-name="Group 1157637" transform="translate(-1112.195 -4520.539)">
    <g id="Group_1157585" data-name="Group 1157585" transform="translate(-3.805 1226.539)">
      <g id="Group_1155734" data-name="Group 1155734" transform="translate(0 -1390)">
        <g id="Group_1154704" data-name="Group 1154704" transform="translate(0 1466)">
          <g id="Group_1150790" data-name="Group 1150790" transform="translate(3 2320)">
            <g id="Group_1154214" data-name="Group 1154214" transform="translate(79 -5809)">
              <g id="Group_1152583" data-name="Group 1152583" transform="translate(1043 6713)">
                <g id="Group_1146973" data-name="Group 1146973" transform="translate(0 0)">
                  <g id="Group_1146954" data-name="Group 1146954">
                    <g transform="matrix(1, 0, 0, 1, -9, -6)" filter="url(#Path_982547)">
                      <g id="Path_982547-2" data-name="Path 982547" transform="translate(9 6)" fill="#fcf3f0">
                        <path d="M 46 90.49987030029297 C 39.99187850952148 90.49987030029297 34.16426849365234 89.32350921630859 28.67905426025391 87.00345611572266 C 23.38019943237305 84.76224517822266 18.62104034423828 81.55341339111328 14.53374671936035 77.46613311767578 C 10.44646644592285 73.37885284423828 7.237639904022217 68.61969757080078 4.996413230895996 63.32085418701172 C 2.676359891891479 57.83565521240234 1.5 52.008056640625 1.5 45.99993515014648 C 1.5 39.99181365966797 2.676359891891479 34.16421508789062 4.996413230895996 28.67901420593262 C 7.237639904022217 23.38017463684082 10.44646644592285 18.62101554870605 14.53374671936035 14.53373527526855 C 18.62104034423828 10.44645500183105 23.38019943237305 7.23762845993042 28.67905426025391 4.996415138244629 C 34.16426849365234 2.676361799240112 39.99187850952148 1.500001788139343 46 1.500001788139343 C 52.00812149047852 1.500001788139343 57.83573150634766 2.676361799240112 63.32094573974609 4.996415138244629 C 68.61979675292969 7.23762845993042 73.37895965576172 10.44645500183105 77.46625518798828 14.53373527526855 C 81.55353546142578 18.62101554870605 84.76235961914062 23.38017463684082 87.00358581542969 28.67901420593262 C 89.32363891601562 34.16421508789062 90.5 39.99181365966797 90.5 45.99993515014648 C 90.5 52.008056640625 89.32363891601562 57.83565521240234 87.00358581542969 63.32085418701172 C 84.76235961914062 68.61969757080078 81.55353546142578 73.37885284423828 77.46625518798828 77.46613311767578 C 73.37895965576172 81.55341339111328 68.61979675292969 84.76224517822266 63.32094573974609 87.00345611572266 C 57.83573150634766 89.32350921630859 52.00812149047852 90.49987030029297 46 90.49987030029297 Z" stroke="none"/>
                        <path d="M 46 2.999992370605469 C 40.1937141418457 2.999992370605469 34.56269836425781 4.136489868164062 29.26337051391602 6.377906799316406 C 24.14332580566406 8.543502807617188 19.54441070556641 11.64437866210938 15.59439849853516 15.59437561035156 C 11.64440155029297 19.54439544677734 8.54351806640625 24.14329528808594 6.377914428710938 29.26333618164062 C 4.136497497558594 34.56264877319336 3 40.19366455078125 3 45.99993515014648 C 3 51.80620574951172 4.136497497558594 57.43720626831055 6.377914428710938 62.73651885986328 C 8.54351806640625 67.8565673828125 11.64440155029297 72.45545959472656 15.59439849853516 76.40547943115234 C 19.54441070556641 80.35547637939453 24.14332580566406 83.45635223388672 29.26337051391602 85.6219482421875 C 34.56269836425781 87.86336517333984 40.1937141418457 88.99986267089844 46 88.99986267089844 C 51.8062858581543 88.99986267089844 57.43730163574219 87.86336517333984 62.73661422729492 85.6219482421875 C 67.85667419433594 83.45635223388672 72.45557403564453 80.35547637939453 76.40558624267578 76.40547943115234 C 80.35559844970703 72.45545959472656 83.45647430419922 67.8565673828125 85.6220703125 62.73651885986328 C 87.86350250244141 57.43720626831055 89 51.80620574951172 89 45.99993515014648 C 89 40.19366455078125 87.86350250244141 34.56264877319336 85.6220703125 29.26333618164062 C 83.45647430419922 24.14329528808594 80.35559844970703 19.54439544677734 76.40558624267578 15.59437561035156 C 72.45557403564453 11.64437866210938 67.85667419433594 8.543502807617188 62.73661422729492 6.377906799316406 C 57.43730163574219 4.136489868164062 51.8062858581543 2.999992370605469 46 2.999992370605469 M 46 -7.62939453125e-06 C 71.40509033203125 -7.62939453125e-06 92 20.59486389160156 92 45.99993515014648 C 92 71.40499114990234 71.40509033203125 91.99986267089844 46 91.99986267089844 C 20.59490203857422 91.99986267089844 0 71.40499114990234 0 45.99993515014648 C 0 20.59486389160156 20.59490203857422 -7.62939453125e-06 46 -7.62939453125e-06 Z" stroke="none" fill="#e89076"/>
                      </g>
                    </g>
                  </g>
                </g>
              </g>
            </g>
          </g>
        </g>
      </g>
      <g id="Layer_x0020_1" transform="translate(1142.912 3320.516)">
        <path id="Path_981318" data-name="Path 981318" d="M30.463,28.437c-.7,0-.773-1.165-2.374-1.165-1.631,0-1.672,1.208-2.41,1.163a.657.657,0,0,1-.525-.315l-4.485-7.347a.658.658,0,0,1,.165-.868c3.749-2.829,10.761-2.83,14.51,0a.658.658,0,0,1,.165.868l-4.485,7.347a.661.661,0,0,1-.561.316ZM48.038,47.6H8.11a4.854,4.854,0,0,1-4.168-7.257c3.649-6.321,6.6-11.909,10.467-18.666C15,20.648,23.974,4.931,25.787,3.95c1.393-.754,3.741-.746,4.7.066,3.493,2.949,17.956,29.756,21.747,36.323a4.832,4.832,0,0,1-4.2,7.257ZM26.478,5.073C23.064,8.149,8.877,34.423,5.082,41A3.538,3.538,0,0,0,8.111,46.28H48.039A3.514,3.514,0,0,0,51.1,41c-3.66-6.336-6.59-11.883-10.478-18.666-.5-.878-9.237-16.078-10.936-17.272a3.812,3.812,0,0,0-3.205.013Zm21.56,45.814H8.111A8.141,8.141,0,0,1,1.093,38.694c.628-1.089,1.692-3,3.038-5.431,8.131-14.655,17.045-30.431,19.9-32.1a8.157,8.157,0,0,1,8.176.029C35.054,2.889,43.94,18.628,52.044,33.248c1.35,2.436,2.417,4.36,3.044,5.446a8.157,8.157,0,0,1-7.049,12.194ZM28.146,1.4a6.939,6.939,0,0,0-3.456.9C21.3,4.285,7.574,30.1,2.232,39.352a6.825,6.825,0,0,0,5.88,10.219H48.037a6.81,6.81,0,0,0,5.911-10.219C48.574,30.047,35,4.454,31.515,2.318A6.367,6.367,0,0,0,28.146,1.4ZM21.94,43.621a.658.658,0,0,1-.256-.052c-4.3-1.822-7.829-7.929-7.255-12.566a.658.658,0,0,1,.669-.577l8.6.21a.659.659,0,0,1,.594.906,2.35,2.35,0,0,0,1.853,3.211.659.659,0,0,1,.489.967l-4.12,7.557a.658.658,0,0,1-.578.344ZM15.688,31.757A12.565,12.565,0,0,0,21.66,42.1l3.424-6.279a3.668,3.668,0,0,1-2.246-3.89l-7.15-.175ZM34.24,43.621a.659.659,0,0,1-.579-.343l-4.12-7.557a.658.658,0,0,1,.489-.967,2.35,2.35,0,0,0,1.854-3.211.66.66,0,0,1,.593-.906l8.621-.211A.658.658,0,0,1,41.75,31c.575,4.638-2.951,10.745-7.255,12.566a.654.654,0,0,1-.256.052Zm-3.144-7.8L34.519,42.1a12.565,12.565,0,0,0,5.972-10.345l-7.15.175a3.667,3.667,0,0,1-2.245,3.89Zm-3.006-1.389c-3.869,0-3.869-5.88,0-5.88S31.96,34.432,28.089,34.432Zm0-4.563a1.623,1.623,0,0,0,0,3.247A1.623,1.623,0,0,0,28.089,29.87Zm0-3.914a3.634,3.634,0,0,1,2.246.769l3.726-6.1a12.492,12.492,0,0,0-11.944,0l3.726,6.1a3.633,3.633,0,0,1,2.246-.769Z" transform="translate(0 0)" fill="#000002" fill-rule="evenodd"/>
        <g id="Group_1145756" data-name="Group 1145756" transform="translate(15.683 19.1)">
          <path id="Path_981319" data-name="Path 981319" d="M6.644,7.515a3.634,3.634,0,0,1,2.246.769l3.726-6.1a12.492,12.492,0,0,0-11.944,0L4.4,8.284a3.633,3.633,0,0,1,2.246-.769Z" transform="translate(5.763 -0.659)" fill="#57555c" fill-rule="evenodd"/>
          <path id="Path_981320" data-name="Path 981320" d="M2.407.987a1.623,1.623,0,0,0,0,3.247A1.623,1.623,0,0,0,2.407.987Z" transform="translate(9.999 9.783)" fill="#57555c" fill-rule="evenodd"/>
          <path id="Path_981321" data-name="Path 981321" d="M3.19,1.219A3.667,3.667,0,0,1,.945,5.109l3.423,6.279A12.565,12.565,0,0,0,10.34,1.044l-7.15.175Z" transform="translate(14.467 11.612)" fill="#57555c" fill-rule="evenodd"/>
          <path id="Path_981322" data-name="Path 981322" d="M9.877,5.109a3.668,3.668,0,0,1-2.246-3.89L.482,1.044A12.565,12.565,0,0,0,6.454,11.389L9.877,5.109Z" transform="translate(-0.477 11.612)" fill="#57555c" fill-rule="evenodd"/>
        </g>
        <path id="Path_981323" data-name="Path 981323" d="M10.622,25.935l8.6.21a.659.659,0,0,1,.594.906,2.35,2.35,0,0,0,1.853,3.211.658.658,0,0,1,.489.967l-4.12,7.557a.657.657,0,0,1-.834.291c-4.3-1.822-7.829-7.929-7.255-12.566a.658.658,0,0,1,.669-.577Zm10.056-2.3-4.485-7.347a.658.658,0,0,1,.165-.868c3.749-2.829,10.761-2.83,14.51,0a.658.658,0,0,1,.165.868l-4.485,7.347a.661.661,0,0,1-.561.316c-.7,0-.773-1.165-2.374-1.165-1.631,0-1.672,1.208-2.41,1.163A.657.657,0,0,1,20.678,23.631Zm2.936,6.311c-3.869,0-3.869-5.88,0-5.88S27.485,29.942,23.614,29.942ZM3.636,41.789H43.564a3.514,3.514,0,0,0,3.058-5.282c-3.66-6.336-6.59-11.883-10.478-18.666-.5-.878-9.237-16.078-10.936-17.272A3.812,3.812,0,0,0,22,.582C18.589,3.658,4.4,29.933.607,36.506a3.538,3.538,0,0,0,3.028,5.283Zm25.55-3-4.12-7.557a.658.658,0,0,1,.489-.967,2.35,2.35,0,0,0,1.854-3.211A.66.66,0,0,1,28,26.145l8.621-.211a.658.658,0,0,1,.653.578c.575,4.638-2.951,10.745-7.255,12.566a.658.658,0,0,1-.835-.291Z" transform="translate(4.475 4.491)" fill="#fedb41" fill-rule="evenodd"/>
        <path id="Path_981324" data-name="Path 981324" d="M29.211,2.738C32.7,5.687,47.167,32.494,50.959,39.061a4.832,4.832,0,0,1-4.2,7.257H6.831A4.854,4.854,0,0,1,2.663,39.06c3.649-6.321,6.6-11.909,10.467-18.666.587-1.025,9.565-16.742,11.378-17.723,1.393-.754,3.741-.746,4.7.066ZM6.833,48.293H46.759a6.81,6.81,0,0,0,5.911-10.219C47.3,28.769,33.725,3.176,30.236,1.04A6.367,6.367,0,0,0,26.867.122a6.939,6.939,0,0,0-3.456.9C20.02,3.006,6.3,28.821.954,38.073a6.825,6.825,0,0,0,5.88,10.219Z" transform="translate(1.279 1.279)" fill="#57555c" fill-rule="evenodd"/>
      </g>
    </g>
  </g>
</svg>
