<svg xmlns="http://www.w3.org/2000/svg" xmlns:xlink="http://www.w3.org/1999/xlink" width="110" height="110" viewBox="0 0 110 110">
  <defs>
    <filter id="Path_982547" x="0" y="0" width="110" height="110" filterUnits="userSpaceOnUse">
      <feOffset dy="3" input="SourceAlpha"/>
      <feGaussianBlur stdDeviation="3" result="blur"/>
      <feFlood flood-opacity="0.161"/>
      <feComposite operator="in" in2="blur"/>
      <feComposite in="SourceGraphic"/>
    </filter>
  </defs>
  <g id="Group_1157476" data-name="Group 1157476" transform="translate(-993.805 -7981.24)">
    <g id="Group_1157206" data-name="Group 1157206" transform="translate(192.805 4687.574)">
      <g id="Group_1155724" data-name="Group 1155724" transform="translate(0 -1390)">
        <g id="Group_1154703" data-name="Group 1154703" transform="translate(0 1465.666)">
          <g id="Group_1150789" data-name="Group 1150789" transform="translate(3 2320)">
            <g id="Group_1154212" data-name="Group 1154212" transform="translate(-236 -5809)">
              <g id="Group_1152583" data-name="Group 1152583" transform="translate(1043 6713)">
                <g id="Group_1146973" data-name="Group 1146973" transform="translate(0 0)">
                  <g id="Group_1146954" data-name="Group 1146954">
                    <g transform="matrix(1, 0, 0, 1, -9, -6)" filter="url(#Path_982547)">
                      <g id="Path_982547-2" data-name="Path 982547" transform="translate(9 6)" fill="#fcf3f0">
                        <path d="M 46 90.49987030029297 C 39.99187850952148 90.49987030029297 34.16426849365234 89.32350921630859 28.67905426025391 87.00345611572266 C 23.38019943237305 84.76224517822266 18.62104034423828 81.55341339111328 14.53374671936035 77.46613311767578 C 10.44646644592285 73.37885284423828 7.237639904022217 68.61969757080078 4.996413230895996 63.32085418701172 C 2.676359891891479 57.83565521240234 1.5 52.008056640625 1.5 45.99993515014648 C 1.5 39.99181365966797 2.676359891891479 34.16421508789062 4.996413230895996 28.67901420593262 C 7.237639904022217 23.38017463684082 10.44646644592285 18.62101554870605 14.53374671936035 14.53373527526855 C 18.62104034423828 10.44645500183105 23.38019943237305 7.23762845993042 28.67905426025391 4.996415138244629 C 34.16426849365234 2.676361799240112 39.99187850952148 1.500001788139343 46 1.500001788139343 C 52.00812149047852 1.500001788139343 57.83573150634766 2.676361799240112 63.32094573974609 4.996415138244629 C 68.61979675292969 7.23762845993042 73.37895965576172 10.44645500183105 77.46625518798828 14.53373527526855 C 81.55353546142578 18.62101554870605 84.76235961914062 23.38017463684082 87.00358581542969 28.67901420593262 C 89.32363891601562 34.16421508789062 90.5 39.99181365966797 90.5 45.99993515014648 C 90.5 52.008056640625 89.32363891601562 57.83565521240234 87.00358581542969 63.32085418701172 C 84.76235961914062 68.61969757080078 81.55353546142578 73.37885284423828 77.46625518798828 77.46613311767578 C 73.37895965576172 81.55341339111328 68.61979675292969 84.76224517822266 63.32094573974609 87.00345611572266 C 57.83573150634766 89.32350921630859 52.00812149047852 90.49987030029297 46 90.49987030029297 Z" stroke="none"/>
                        <path d="M 46 2.999992370605469 C 40.1937141418457 2.999992370605469 34.56269836425781 4.136489868164062 29.26337051391602 6.377906799316406 C 24.14332580566406 8.543502807617188 19.54441070556641 11.64437866210938 15.59439849853516 15.59437561035156 C 11.64440155029297 19.54439544677734 8.54351806640625 24.14329528808594 6.377914428710938 29.26333618164062 C 4.136497497558594 34.56264877319336 3 40.19366455078125 3 45.99993515014648 C 3 51.80620574951172 4.136497497558594 57.43720626831055 6.377914428710938 62.73651885986328 C 8.54351806640625 67.8565673828125 11.64440155029297 72.45545959472656 15.59439849853516 76.40547943115234 C 19.54441070556641 80.35547637939453 24.14332580566406 83.45635223388672 29.26337051391602 85.6219482421875 C 34.56269836425781 87.86336517333984 40.1937141418457 88.99986267089844 46 88.99986267089844 C 51.8062858581543 88.99986267089844 57.43730163574219 87.86336517333984 62.73661422729492 85.6219482421875 C 67.85667419433594 83.45635223388672 72.45557403564453 80.35547637939453 76.40558624267578 76.40547943115234 C 80.35559844970703 72.45545959472656 83.45647430419922 67.8565673828125 85.6220703125 62.73651885986328 C 87.86350250244141 57.43720626831055 89 51.80620574951172 89 45.99993515014648 C 89 40.19366455078125 87.86350250244141 34.56264877319336 85.6220703125 29.26333618164062 C 83.45647430419922 24.14329528808594 80.35559844970703 19.54439544677734 76.40558624267578 15.59437561035156 C 72.45557403564453 11.64437866210938 67.85667419433594 8.543502807617188 62.73661422729492 6.377906799316406 C 57.43730163574219 4.136489868164062 51.8062858581543 2.999992370605469 46 2.999992370605469 M 46 -7.62939453125e-06 C 71.40509033203125 -7.62939453125e-06 92 20.59486389160156 92 45.99993515014648 C 92 71.40499114990234 71.40509033203125 91.99986267089844 46 91.99986267089844 C 20.59490203857422 91.99986267089844 0 71.40499114990234 0 45.99993515014648 C 0 20.59486389160156 20.59490203857422 -7.62939453125e-06 46 -7.62939453125e-06 Z" stroke="none" fill="#e89076"/>
                      </g>
                    </g>
                  </g>
                </g>
              </g>
            </g>
          </g>
        </g>
      </g>
      <g id="profesor_1_" data-name="profesor (1)" transform="translate(823.701 3311.129)">
        <path id="Path_904157" data-name="Path 904157" d="M46.369,12.185v4.85a3.015,3.015,0,0,0-2.034-.783c-13.218,0-13.218-5.084-13.218-5.084,0,5.084-5.084,5.084-5.084,5.084A3.015,3.015,0,0,0,24,17.035v-4.85a11.185,11.185,0,0,1,22.369,0Z" transform="translate(0.352 0.017)" fill="#555a66"/>
        <path id="Path_904158" data-name="Path 904158" d="M35.185,1A11.178,11.178,0,0,0,24,12.185v4.067a11.185,11.185,0,0,1,22.369,0V12.185A11.178,11.178,0,0,0,35.185,1Z" transform="translate(0.352 0.017)" fill="#414952"/>
        <path id="Path_904159" data-name="Path 904159" d="M37.05,59.05h1.017v4.067H36.034A2.04,2.04,0,0,1,34,61.084V56a3.05,3.05,0,0,0,3.05,3.05Z" transform="translate(0.52 0.939)" fill="#cfa388"/>
        <path id="Path_904160" data-name="Path 904160" d="M37.05,59.05A3.05,3.05,0,0,1,34,56v2.034a3.05,3.05,0,0,0,3.05,3.05h1.017V59.05Z" transform="translate(0.52 0.939)" fill="#b2876d"/>
        <path id="Path_904161" data-name="Path 904161" d="M38.067,47v6.1H37.05A3.05,3.05,0,0,0,34,56.151V49.034A2.04,2.04,0,0,1,36.034,47Z" transform="translate(0.52 0.788)" fill="#cfa388"/>
        <path id="Path_904162" data-name="Path 904162" d="M48.168,59v4.067H38V59H48.168Z" transform="translate(0.587 0.99)" fill="#966857"/>
        <path id="Path_904163" data-name="Path 904163" d="M48.168,59v2.034H38V59H48.168Z" transform="translate(0.587 0.99)" fill="#8d5c4d"/>
        <path id="Path_904164" data-name="Path 904164" d="M48.168,47v6.1H38V47Z" transform="translate(0.587 0.788)" fill="#966857"/>
        <path id="Path_904165" data-name="Path 904165" d="M35.117,36.05l-3.05,3.05L28,35.034V34.017L32.067,33Z" transform="translate(0.419 0.554)" fill="#bec3d2"/>
        <path id="Path_904166" data-name="Path 904166" d="M42.117,34.088v.946L38.05,39.1,35,36.05,38.05,33Z" transform="translate(0.537 0.554)" fill="#bec3d2"/>
        <path id="Path_904167" data-name="Path 904167" d="M38.1,39.05l-2.034,2.034H34.034L32,39.05,35.05,36Z" transform="translate(0.486 0.604)" fill="#4ab8f7"/>
        <path id="Path_904168" data-name="Path 904168" d="M36.084,41l1.4,6.1h-1.4a2.04,2.04,0,0,0-2.034,2.034v7.117L31,54.218,34.05,41Z" transform="translate(0.47 0.688)" fill="#19cffc"/>
        <path id="Path_904169" data-name="Path 904169" d="M12.134,51a38.092,38.092,0,0,1-1.017,8.134S4,59.134,4,51a4.067,4.067,0,0,0,8.134,0Z" transform="translate(0.017 0.856)" fill="#bec3d2"/>
        <path id="Path_904170" data-name="Path 904170" d="M53,51h6.518c.061.4.122.8.173,1.22a6.063,6.063,0,0,1-1.668,5.043c-.529-4.23-5.023-4.23-5.023-4.23Z" transform="translate(0.839 0.856)" fill="#bec3d2"/>
        <path id="Path_904171" data-name="Path 904171" d="M48,59h5.084v4.067H48Z" transform="translate(0.755 0.99)" fill="#f2f6fc"/>
        <path id="Path_904172" data-name="Path 904172" d="M36.419,63.486H20.151V48.235L11,59.419a38.092,38.092,0,0,0,1.017-8.134l2.034-12.2,2.034-2.034L28.285,34v1.017l4.067,4.067,2.034,2.034-3.05,13.218,3.05,2.034v5.084A2.04,2.04,0,0,0,36.419,63.486Z" transform="translate(0.134 0.57)" fill="#dce1eb"/>
        <path id="Path_904173" data-name="Path 904173" d="M53.285,51.284v2.034H48.2v-6.1H37.4l-1.4-6.1,2.034-2.034L42.1,35.016V34.07l11.185,2.979s4.809,3.437,6.518,14.235Z" transform="translate(0.554 0.572)" fill="#dce1eb"/>
        <path id="Path_904174" data-name="Path 904174" d="M15.05,26v7.117H12V26Z" transform="translate(0.151 0.436)" fill="#faa68e"/>
        <path id="Path_904175" data-name="Path 904175" d="M6,30h6.1v3.05H6Z" transform="translate(0.05 0.503)" fill="#ffcdbe"/>
        <path id="Path_904176" data-name="Path 904176" d="M14.134,36.05a2.987,2.987,0,0,0-3.05,3.05H8.034L6,37.067V33h5.084a2.987,2.987,0,0,0,3.05,3.05Z" transform="translate(0.05 0.554)" fill="#faa68e"/>
        <path id="Path_904177" data-name="Path 904177" d="M16.084,33v4.067L14.05,39.1H11a2.987,2.987,0,0,1,3.05-3.05A2.987,2.987,0,0,1,11,33Z" transform="translate(0.134 0.554)" fill="#ffbeaa"/>
        <path id="Path_904178" data-name="Path 904178" d="M14.168,39,12.134,51.2A4.067,4.067,0,0,1,4,51.2L8.067,39Z" transform="translate(0.017 0.654)" fill="#ffcdbe"/>
        <path id="Path_904179" data-name="Path 904179" d="M10.1,54.252a4.067,4.067,0,0,1-4.067-4.067L9.762,39H8.067L4,51.2a4.055,4.055,0,0,0,6.821,2.978,4.1,4.1,0,0,1-.72.072Z" transform="translate(0.017 0.654)" fill="#ffbeaa"/>
        <path id="Path_904180" data-name="Path 904180" d="M53.319,53s4.494,0,5.023,4.23A6.028,6.028,0,0,1,53.959,59.1H37.05a3.05,3.05,0,1,1,0-6.1Z" transform="translate(0.52 0.889)" fill="#ffcdbe"/>
        <path id="Path_904181" data-name="Path 904181" d="M53.959,57.034H37.05A3.013,3.013,0,0,1,34.187,55a3.041,3.041,0,0,0,2.863,4.067H53.959A6.028,6.028,0,0,0,58.341,57.2a4.965,4.965,0,0,0-.47-1.594,6.019,6.019,0,0,1-3.913,1.432Z" transform="translate(0.52 0.923)" fill="#ffbeaa"/>
        <g id="Group_1143324" data-name="Group 1143324" transform="translate(23.335 16.268)">
          <path id="Path_904182" data-name="Path 904182" d="M38.1,30.48v2.562l-3.05,3.05L32,33.042V30.48a9.064,9.064,0,0,0,6.1,0Z" transform="translate(-22.849 -15.757)" fill="#faa68e"/>
          <path id="Path_904183" data-name="Path 904183" d="M24.017,16.783A3.015,3.015,0,0,1,26.05,16v6.1A3.05,3.05,0,0,1,23,19.05,2.989,2.989,0,0,1,24.017,16.783Z" transform="translate(-23 -16)" fill="#faa68e"/>
          <path id="Path_904184" data-name="Path 904184" d="M44,16a3.05,3.05,0,1,1,0,6.1Z" transform="translate(-22.648 -16)" fill="#faa68e"/>
        </g>
        <path id="Path_904185" data-name="Path 904185" d="M44.3,16.084v6.1a9.151,9.151,0,0,1-18.3,0v-6.1s5.084,0,5.084-5.084C31.084,11,31.084,16.084,44.3,16.084Z" transform="translate(0.386 0.185)" fill="#ffcdbe"/>
        <path id="Path_904186" data-name="Path 904186" d="M31.084,11c0,5.084-5.084,5.084-5.084,5.084v2.034s5.084,0,5.084-5.084c0,0,0,5.084,13.218,5.084V16.084C31.084,16.084,31.084,11,31.084,11Z" transform="translate(0.386 0.185)" fill="#ffbeaa"/>
        <path id="Path_904187" data-name="Path 904187" d="M35.168,32.369A10.179,10.179,0,0,1,25,22.2V16.1a1.017,1.017,0,0,1,1.017-1.017,3.915,3.915,0,0,0,4.067-4.067,1.017,1.017,0,0,1,2.034,0c0,.008.418,4.067,12.2,4.067A1.017,1.017,0,0,1,45.336,16.1v6.1A10.179,10.179,0,0,1,35.168,32.369ZM27.034,17.031V22.2a8.134,8.134,0,0,0,16.268,0V17.107c-6.9-.14-10.2-1.712-11.777-3.231A5.919,5.919,0,0,1,27.034,17.031Z" transform="translate(0.369 0.168)"/>
        <path id="Path_904188" data-name="Path 904188" d="M44,23.134V21.1a2.034,2.034,0,0,0,0-4.067V15a4.067,4.067,0,0,1,0,8.134Z" transform="translate(0.688 0.252)"/>
        <path id="Path_904189" data-name="Path 904189" d="M26.067,23.134a4.067,4.067,0,0,1,0-8.134v2.034a2.034,2.034,0,1,0,0,4.067Z" transform="translate(0.319 0.252)"/>
        <path id="Path_904190" data-name="Path 904190" d="M47.4,17.285H45.369V12.2a10.168,10.168,0,0,0-20.336,0v5.084H23V12.2a12.2,12.2,0,1,1,24.4,0Z" transform="translate(0.336)"/>
        <path id="Path_904191" data-name="Path 904191" d="M35.067,27.067A4.067,4.067,0,0,1,31,23h2.034A2.034,2.034,0,1,0,37.1,23h2.034A4.067,4.067,0,0,1,35.067,27.067Z" transform="translate(0.47 0.386)"/>
        <path id="Path_904192" data-name="Path 904192" d="M31,18h2.034v2.034H31Z" transform="translate(0.47 0.302)"/>
        <path id="Path_904193" data-name="Path 904193" d="M37,18h2.034v2.034H37Z" transform="translate(0.57 0.302)"/>
        <path id="Path_904194" data-name="Path 904194" d="M35.067,37.117a1.017,1.017,0,0,1-.719-.3l-3.05-3.05a1.017,1.017,0,0,1-.3-.719V30h2.034v2.629l2.034,2.034L37.1,32.629V30h2.034v3.05a1.017,1.017,0,0,1-.3.719l-3.05,3.05A1.017,1.017,0,0,1,35.067,37.117Z" transform="translate(0.47 0.503)"/>
        <path id="Path_904195" data-name="Path 904195" d="M53.979,60.469H37.067a4.067,4.067,0,0,1,0-8.134H52.319v-6.1h2.034v7.117a1.017,1.017,0,0,1-1.017,1.017H37.067a2.034,2.034,0,0,0,0,4.067H53.979a5.071,5.071,0,0,0,3.812-1.729,5.123,5.123,0,0,0,1.229-4.042c-1.313-10.075-5.38-13.994-6.155-14.655L37.817,34l.525-1.964L53.594,36.1a1.017,1.017,0,0,1,.328.155c.226.162,5.538,4.082,7.11,16.147a7.132,7.132,0,0,1-7.053,8.066Z" transform="translate(0.503 0.537)"/>
        <path id="Path_904196" data-name="Path 904196" d="M48.252,64.3H36.05A3.05,3.05,0,0,1,33,61.252V49.05A3.05,3.05,0,0,1,36.05,46h12.2a1.017,1.017,0,0,1,1.017,1.017v6.1H47.235V48.034H36.05a1.017,1.017,0,0,0-1.017,1.017v12.2a1.017,1.017,0,0,0,1.017,1.017H47.235v-3.05h2.034v4.067A1.017,1.017,0,0,1,48.252,64.3Z" transform="translate(0.503 0.772)"/>
        <path id="Path_904197" data-name="Path 904197" d="M37,47h2.034v6.1H37Z" transform="translate(0.57 0.788)"/>
        <path id="Path_904198" data-name="Path 904198" d="M37,59h2.034v4.067H37Z" transform="translate(0.57 0.99)"/>
        <path id="Path_904199" data-name="Path 904199" d="M53.084,64.084H48V62.05h4.067V59H54.1v4.067A1.017,1.017,0,0,1,53.084,64.084Z" transform="translate(0.755 0.99)"/>
        <path id="Path_904200" data-name="Path 904200" d="M8.084,56.3A5.09,5.09,0,0,1,3,51.218a1.017,1.017,0,0,1,.052-.321L7.119,38.7a1.017,1.017,0,0,1,.965-.7h6.1a1.017,1.017,0,0,1,1,1.185L13.168,51.307a5.089,5.089,0,0,1-5.084,5Zm-3.05-4.93a3.051,3.051,0,1,0,6.1-.154.934.934,0,0,1,.014-.168l1.835-11.017H8.815Z" transform="translate(0 0.637)"/>
        <path id="Path_904201" data-name="Path 904201" d="M14.786,39.836,13.348,38.4l1.736-1.736v-.6a1.017,1.017,0,0,1-1.017,1.017,1.914,1.914,0,0,0-2.034,2.034H10a3.855,3.855,0,0,1,1.291-3.045A4.3,4.3,0,0,1,10,33.017,1.017,1.017,0,0,1,11.017,32H16.1a1.017,1.017,0,0,1,1.017,1.017v4.067a1.017,1.017,0,0,1-.3.719Zm-2.525-5.8a1.817,1.817,0,0,0,1.806,1.017,1.017,1.017,0,0,1,1.017,1.017V34.034Z" transform="translate(0.117 0.537)"/>
        <path id="Path_904202" data-name="Path 904202" d="M16.084,33.134H14.05v-6.1H13.034v6.1H11V26.017A1.017,1.017,0,0,1,12.017,25h3.05a1.017,1.017,0,0,1,1.017,1.017Z" transform="translate(0.134 0.419)"/>
        <path id="Path_904203" data-name="Path 904203" d="M11.1,34.084H6.017A1.017,1.017,0,0,1,5,33.067v-3.05A1.017,1.017,0,0,1,6.017,29h6.1v2.034H7.034V32.05H11.1Z" transform="translate(0.034 0.486)"/>
        <path id="Path_904204" data-name="Path 904204" d="M7.331,39.82,5.3,37.786a1.017,1.017,0,0,1-.3-.719V33H7.034v3.646l1.736,1.736Z" transform="translate(0.034 0.554)"/>
        <path id="Path_904205" data-name="Path 904205" d="M57.014,57.373c-.4-3.214-3.65-3.339-4.014-3.339V52a5.916,5.916,0,0,1,6.032,5.12Z" transform="translate(0.839 0.872)"/>
        <path id="Path_904206" data-name="Path 904206" d="M53,50h7.117v2.034H53Z" transform="translate(0.839 0.839)"/>
        <path id="Path_904207" data-name="Path 904207" d="M0,0H16.769V2.034H0Z" transform="translate(15.983 36.626) rotate(-14.064)"/>
        <path id="Path_904208" data-name="Path 904208" d="M36.554,64.285H20.285a1.017,1.017,0,0,1-1.017-1.017v-12.4l-7.347,8.98a1.017,1.017,0,0,1-.787.374c-.081,0-8.134-.1-8.134-9.151H5.034c0,5.929,4.217,6.919,5.646,7.085L19.5,47.374a1.017,1.017,0,0,1,1.8.643V62.252H36.554Z" transform="translate(0 0.788)"/>
        <path id="Path_904209" data-name="Path 904209" d="M12,59.381l-1.973-.494A37.4,37.4,0,0,0,11.016,51H13.05A38.8,38.8,0,0,1,12,59.381Z" transform="translate(0.118 0.856)"/>
        <path id="Path_904210" data-name="Path 904210" d="M38.185,40.1a1.017,1.017,0,0,1-.719-.3l-2.332-2.332L32.8,39.8a1.017,1.017,0,0,1-1.438,0L27.3,35.736a1.017,1.017,0,0,1-.3-.719V34h2.034v.6l3.05,3.05,2.331-2.331a1.017,1.017,0,0,1,1.438,0l2.331,2.331,3.05-3.05V34h2.034v1.017a1.017,1.017,0,0,1-.3.719L38.9,39.8A1.017,1.017,0,0,1,38.185,40.1Z" transform="translate(0.403 0.57)"/>
        <path id="Path_904211" data-name="Path 904211" d="M36.079,42.062H34.045a1.017,1.017,0,0,1-.719-.3l-2.034-2.034,1.438-1.438,1.736,1.736h1.192l1.736-1.736,1.438,1.438L36.8,41.764A1.017,1.017,0,0,1,36.079,42.062Z" transform="translate(0.475 0.642)"/>
        <path id="Path_904212" data-name="Path 904212" d="M33.5,57.1l-3.05-2.034a1.017,1.017,0,0,1-.427-1.075l3.05-13.218,1.983.458L32.166,53.765l2.466,1.644Z" transform="translate(0.453 0.684)"/>
        <path id="Path_904213" data-name="Path 904213" d="M0,0H2.034V6.26H0Z" transform="translate(35.574 41.939) rotate(-12.939)"/>
        <path id="Path_904214" data-name="Path 904214" d="M13,17h2.034v6.1H13Z" transform="translate(0.168 0.285)"/>
        <path id="Path_904215" data-name="Path 904215" d="M0,0H5.752V2.034H0Z" transform="translate(15.496 22.666) rotate(-45)"/>
        <path id="Path_904216" data-name="Path 904216" d="M0,0H2.034V5.752H0Z" transform="translate(7.363 20.037) rotate(-45)"/>
      </g>
    </g>
  </g>
</svg>
