<svg xmlns="http://www.w3.org/2000/svg" xmlns:xlink="http://www.w3.org/1999/xlink" width="110" height="110" viewBox="0 0 110 110">
  <defs>
    <filter id="Path_982547" x="0" y="0" width="110" height="110" filterUnits="userSpaceOnUse">
      <feOffset dy="3" input="SourceAlpha"/>
      <feGaussianBlur stdDeviation="3" result="blur"/>
      <feFlood flood-opacity="0.161"/>
      <feComposite operator="in" in2="blur"/>
      <feComposite in="SourceGraphic"/>
    </filter>
  </defs>
  <g id="Group_1157638" data-name="Group 1157638" transform="translate(-8330.428 -4472.223)">
    <g id="Group_1157480" data-name="Group 1157480" transform="translate(7214.428 1178.223)">
      <g id="Group_1155734" data-name="Group 1155734" transform="translate(0 -1390)">
        <g id="Group_1154704" data-name="Group 1154704" transform="translate(0 1466)">
          <g id="Group_1150790" data-name="Group 1150790" transform="translate(3 2320)">
            <g id="Group_1154214" data-name="Group 1154214" transform="translate(79 -5809)">
              <g id="Group_1152583" data-name="Group 1152583" transform="translate(1043 6713)">
                <g id="Group_1146973" data-name="Group 1146973" transform="translate(0 0)">
                  <g id="Group_1146954" data-name="Group 1146954">
                    <g transform="matrix(1, 0, 0, 1, -9, -6)" filter="url(#Path_982547)">
                      <g id="Path_982547-2" data-name="Path 982547" transform="translate(9 6)" fill="#fcf3f0">
                        <path d="M 46 90.49987030029297 C 39.99187850952148 90.49987030029297 34.16426849365234 89.32350921630859 28.67905426025391 87.00345611572266 C 23.38019943237305 84.76224517822266 18.62104034423828 81.55341339111328 14.53374671936035 77.46613311767578 C 10.44646644592285 73.37885284423828 7.237639904022217 68.61969757080078 4.996413230895996 63.32085418701172 C 2.676359891891479 57.83565521240234 1.5 52.008056640625 1.5 45.99993515014648 C 1.5 39.99181365966797 2.676359891891479 34.16421508789062 4.996413230895996 28.67901420593262 C 7.237639904022217 23.38017463684082 10.44646644592285 18.62101554870605 14.53374671936035 14.53373527526855 C 18.62104034423828 10.44645500183105 23.38019943237305 7.23762845993042 28.67905426025391 4.996415138244629 C 34.16426849365234 2.676361799240112 39.99187850952148 1.500001788139343 46 1.500001788139343 C 52.00812149047852 1.500001788139343 57.83573150634766 2.676361799240112 63.32094573974609 4.996415138244629 C 68.61979675292969 7.23762845993042 73.37895965576172 10.44645500183105 77.46625518798828 14.53373527526855 C 81.55353546142578 18.62101554870605 84.76235961914062 23.38017463684082 87.00358581542969 28.67901420593262 C 89.32363891601562 34.16421508789062 90.5 39.99181365966797 90.5 45.99993515014648 C 90.5 52.008056640625 89.32363891601562 57.83565521240234 87.00358581542969 63.32085418701172 C 84.76235961914062 68.61969757080078 81.55353546142578 73.37885284423828 77.46625518798828 77.46613311767578 C 73.37895965576172 81.55341339111328 68.61979675292969 84.76224517822266 63.32094573974609 87.00345611572266 C 57.83573150634766 89.32350921630859 52.00812149047852 90.49987030029297 46 90.49987030029297 Z" stroke="none"/>
                        <path d="M 46 2.999992370605469 C 40.1937141418457 2.999992370605469 34.56269836425781 4.136489868164062 29.26337051391602 6.377906799316406 C 24.14332580566406 8.543502807617188 19.54441070556641 11.64437866210938 15.59439849853516 15.59437561035156 C 11.64440155029297 19.54439544677734 8.54351806640625 24.14329528808594 6.377914428710938 29.26333618164062 C 4.136497497558594 34.56264877319336 3 40.19366455078125 3 45.99993515014648 C 3 51.80620574951172 4.136497497558594 57.43720626831055 6.377914428710938 62.73651885986328 C 8.54351806640625 67.8565673828125 11.64440155029297 72.45545959472656 15.59439849853516 76.40547943115234 C 19.54441070556641 80.35547637939453 24.14332580566406 83.45635223388672 29.26337051391602 85.6219482421875 C 34.56269836425781 87.86336517333984 40.1937141418457 88.99986267089844 46 88.99986267089844 C 51.8062858581543 88.99986267089844 57.43730163574219 87.86336517333984 62.73661422729492 85.6219482421875 C 67.85667419433594 83.45635223388672 72.45557403564453 80.35547637939453 76.40558624267578 76.40547943115234 C 80.35559844970703 72.45545959472656 83.45647430419922 67.8565673828125 85.6220703125 62.73651885986328 C 87.86350250244141 57.43720626831055 89 51.80620574951172 89 45.99993515014648 C 89 40.19366455078125 87.86350250244141 34.56264877319336 85.6220703125 29.26333618164062 C 83.45647430419922 24.14329528808594 80.35559844970703 19.54439544677734 76.40558624267578 15.59437561035156 C 72.45557403564453 11.64437866210938 67.85667419433594 8.543502807617188 62.73661422729492 6.377906799316406 C 57.43730163574219 4.136489868164062 51.8062858581543 2.999992370605469 46 2.999992370605469 M 46 -7.62939453125e-06 C 71.40509033203125 -7.62939453125e-06 92 20.59486389160156 92 45.99993515014648 C 92 71.40499114990234 71.40509033203125 91.99986267089844 46 91.99986267089844 C 20.59490203857422 91.99986267089844 0 71.40499114990234 0 45.99993515014648 C 0 20.59486389160156 20.59490203857422 -7.62939453125e-06 46 -7.62939453125e-06 Z" stroke="none" fill="#e89076"/>
                      </g>
                    </g>
                  </g>
                </g>
              </g>
            </g>
          </g>
        </g>
      </g>
      <g id="lista-de-verificacion" transform="translate(1140.429 3318.561)">
        <g id="Group_1145765" data-name="Group 1145765" transform="translate(1.954 1.945)">
          <g id="Group_1145758" data-name="Group 1145758" transform="translate(30.525 7.631)">
            <path id="Path_981325" data-name="Path 981325" d="M40.677,17.631H34.954A.957.957,0,0,1,34,16.677V10.954A.957.957,0,0,1,34.954,10h5.723a.957.957,0,0,1,.954.954v5.723A.957.957,0,0,1,40.677,17.631Z" transform="translate(-34 -10)" fill="#fcd770"/>
          </g>
          <g id="Group_1145759" data-name="Group 1145759" transform="translate(30.525 24.802)">
            <path id="Path_981326" data-name="Path 981326" d="M40.677,35.631H34.954A.957.957,0,0,1,34,34.677V28.954A.957.957,0,0,1,34.954,28h5.723a.957.957,0,0,1,.954.954v5.724A.957.957,0,0,1,40.677,35.631Z" transform="translate(-34 -28)" fill="#fcd770"/>
          </g>
          <g id="Group_1145760" data-name="Group 1145760" transform="translate(30.525 40.064)">
            <path id="Path_981327" data-name="Path 981327" d="M40.677,51.631H34.954A.957.957,0,0,1,34,50.677V44.954A.957.957,0,0,1,34.954,44h5.723a.957.957,0,0,1,.954.954v5.724A.957.957,0,0,1,40.677,51.631Z" transform="translate(-34 -44)" fill="#fcd770"/>
          </g>
          <g id="Group_1145761" data-name="Group 1145761" transform="translate(0 0)">
            <path id="Path_981328" data-name="Path 981328" d="M20.163,22.881l-4.808,2.8v-.792a1.913,1.913,0,0,0-1.908-1.908,1.922,1.922,0,0,0-1.908,1.908v.792l-4.808-2.8A9.536,9.536,0,0,1,2,14.649V2.954l1.765.878a7.591,7.591,0,0,0,7.641-.477L13.447,2l2.041,1.355a7.591,7.591,0,0,0,7.641.477l1.765-.878v11.7A9.536,9.536,0,0,1,20.163,22.881Z" transform="translate(-2 -2)" fill="#aab2bd"/>
          </g>
          <g id="Group_1145762" data-name="Group 1145762" transform="translate(8.585 49.604)">
            <path id="Path_981329" data-name="Path 981329" d="M22.447,54l1.908,7.631H11L11.954,54Z" transform="translate(-11 -54)" fill="#b4dd7f"/>
          </g>
          <g id="Group_1145763" data-name="Group 1145763" transform="translate(0 20.986)">
            <path id="Path_981330" data-name="Path 981330" d="M22.986,35.447h1.908A1.913,1.913,0,0,1,26.8,37.355v2.156a19.025,19.025,0,0,1-2.9,10.112l-1.87,3H11.539l-1.307-.983a9.538,9.538,0,0,1-3.415-4.884L5.549,42.516a6.634,6.634,0,0,0-2.69-3.634L2.735,38.8a1.652,1.652,0,0,1,.181-2.852l.153-.076A3.985,3.985,0,0,1,8.63,38.175l.754,2.242a1.107,1.107,0,0,0,2.156-.353V25.908A1.922,1.922,0,0,1,13.447,24a1.913,1.913,0,0,1,1.908,1.908v5.723h1.908a1.913,1.913,0,0,1,1.908,1.908h1.908a1.913,1.913,0,0,1,1.908,1.908Z" transform="translate(-2 -24)" fill="#f0d0b4"/>
          </g>
          <g id="Group_1145764" data-name="Group 1145764" transform="translate(5.723 5.723)">
            <path id="Path_981331" data-name="Path 981331" d="M19.447,12.77v1.908a.957.957,0,0,1-.954.954H15.631v2.862a.957.957,0,0,1-.954.954H12.77a.957.957,0,0,1-.954-.954V15.631H8.954A.957.957,0,0,1,8,14.677V12.77a.957.957,0,0,1,.954-.954h2.862V8.954A.957.957,0,0,1,12.77,8h1.908a.957.957,0,0,1,.954.954v2.862h2.862A.957.957,0,0,1,19.447,12.77Z" transform="translate(-8 -8)" fill="#ff826e"/>
          </g>
        </g>
        <g id="Group_1145766" data-name="Group 1145766" transform="translate(1 0.798)">
          <path id="Path_981332" data-name="Path 981332" d="M10.816,18.447a1.91,1.91,0,0,0,1.908,1.908h1.908a1.91,1.91,0,0,0,1.908-1.908V16.539h1.908a1.91,1.91,0,0,0,1.908-1.908V12.723a1.91,1.91,0,0,0-1.908-1.908H16.539V8.908A1.91,1.91,0,0,0,14.631,7H12.723a1.91,1.91,0,0,0-1.908,1.908v1.908H8.908A1.91,1.91,0,0,0,7,12.723v1.908a1.91,1.91,0,0,0,1.908,1.908h1.908ZM8.908,14.631V12.723h3.816V8.908h1.908v3.816h3.816v1.908H14.631v3.816H12.723V14.631Z" transform="translate(-1.277 -1.084)"/>
          <path id="Path_981333" data-name="Path 981333" d="M24.848,33.424H23.718a2.858,2.858,0,0,0-2.686-1.908H19.9a2.858,2.858,0,0,0-2.686-1.908h-.954V26.182L20.6,23.654A10.529,10.529,0,0,0,25.8,14.59V1.355L22.659,2.926a6.692,6.692,0,0,1-6.691-.417L13.4.8,10.834,2.51a6.689,6.689,0,0,1-6.691.417L1,1.355V14.591a10.527,10.527,0,0,0,5.206,9.063l4.334,2.528V38.993a.16.16,0,0,1-.3.049L9.492,36.8a4.942,4.942,0,0,0-6.9-2.857l-.151.075a2.607,2.607,0,0,0-.281,4.5l.125.084a5.74,5.74,0,0,1,2.308,3.118l1.269,4.229a10.416,10.416,0,0,0,3.756,5.38l.861.646L9.458,60.133H25.116L23.01,51.71l1.654-2.647A20.014,20.014,0,0,0,27.71,38.445v-2.16a2.865,2.865,0,0,0-2.862-2.862ZM2.908,14.59V4.442l.382.191a8.6,8.6,0,0,0,8.6-.536L13.4,3.091,14.91,4.1a8.6,8.6,0,0,0,8.6.536l.382-.191V14.591a8.615,8.615,0,0,1-4.259,7.416l-3.5,2.04a2.843,2.843,0,0,0-5.472,0l-3.5-2.04A8.613,8.613,0,0,1,2.908,14.59ZM11.62,58.226l.715-5.723h8.906l1.431,5.723ZM25.8,38.445a18.111,18.111,0,0,1-2.755,9.606l-1.589,2.543H11.811l-1.049-.787a8.526,8.526,0,0,1-3.072-4.4L6.421,41.177a7.651,7.651,0,0,0-3.076-4.156l-.125-.084a.7.7,0,0,1,.075-1.21l.15-.075a3.036,3.036,0,0,1,4.237,1.754l.746,2.239a2.062,2.062,0,0,0,4.019-.652V24.839a.954.954,0,0,1,1.908,0V39.147h1.908V31.516h.954a.954.954,0,0,1,.954.954v6.677h1.908V33.424h.954a.954.954,0,0,1,.954.954v4.77h1.908V35.332h.954a.954.954,0,0,1,.954.954Z" transform="translate(-1 -0.798)"/>
          <path id="Path_981334" data-name="Path 981334" d="M33.342,1,28.293,6.049,29.642,7.4l4.49-4.49H61.4V1Z" transform="translate(-2.258 -0.807)"/>
          <path id="Path_981335" data-name="Path 981335" d="M41.764,9.256a1.894,1.894,0,0,0-1.132-.381H34.908A1.91,1.91,0,0,0,33,10.783v5.723a1.91,1.91,0,0,0,1.908,1.908h5.724a1.91,1.91,0,0,0,1.908-1.908V11.178l3.536-3.536L44.726,6.293Zm-1.132,7.251H34.908V10.783h5.329L37.77,13.25l-1.233-1.233-1.349,1.349,2.582,2.582,2.862-2.862Z" transform="translate(-2.475 -1.051)"/>
          <path id="Path_981336" data-name="Path 981336" d="M41.764,27.256a1.894,1.894,0,0,0-1.132-.381H34.908A1.91,1.91,0,0,0,33,28.783v5.723a1.91,1.91,0,0,0,1.908,1.908h5.724a1.91,1.91,0,0,0,1.908-1.908V29.178l3.536-3.536-1.349-1.349Zm-1.132,7.251H34.908V28.783h5.329L37.77,31.25l-1.233-1.233-1.349,1.349,2.582,2.582,2.862-2.862Z" transform="translate(-2.475 -1.881)"/>
          <path id="Path_981337" data-name="Path 981337" d="M44.726,40.293l-2.963,2.963a1.894,1.894,0,0,0-1.132-.381H34.908A1.91,1.91,0,0,0,33,44.783v5.723a1.91,1.91,0,0,0,1.908,1.908h5.724a1.91,1.91,0,0,0,1.908-1.908V45.178l3.536-3.536Zm-4.1,10.214H34.908V44.783h5.329L37.77,47.25l-1.233-1.233-1.349,1.349,2.582,2.582,2.862-2.862Z" transform="translate(-2.475 -2.618)"/>
          <path id="Path_981338" data-name="Path 981338" d="M47,15H62.263v1.908H47Z" transform="translate(-3.12 -1.452)"/>
          <path id="Path_981339" data-name="Path 981339" d="M47,11h3.816v1.908H47Z" transform="translate(-3.12 -1.268)"/>
          <path id="Path_981340" data-name="Path 981340" d="M53,11h9.539v1.908H53Z" transform="translate(-3.396 -1.268)"/>
          <path id="Path_981341" data-name="Path 981341" d="M47,33H62.263v1.908H47Z" transform="translate(-3.12 -2.282)"/>
          <path id="Path_981342" data-name="Path 981342" d="M47,29h3.816v1.908H47Z" transform="translate(-3.12 -2.098)"/>
          <path id="Path_981343" data-name="Path 981343" d="M53,29h9.539v1.908H53Z" transform="translate(-3.396 -2.098)"/>
          <path id="Path_981344" data-name="Path 981344" d="M47,49H62.263v1.908H47Z" transform="translate(-3.12 -3.019)"/>
          <path id="Path_981345" data-name="Path 981345" d="M47,45h3.816v1.908H47Z" transform="translate(-3.12 -2.835)"/>
          <path id="Path_981346" data-name="Path 981346" d="M53,45h9.539v1.908H53Z" transform="translate(-3.396 -2.835)"/>
        </g>
      </g>
    </g>
  </g>
</svg>
