<svg xmlns="http://www.w3.org/2000/svg" xmlns:xlink="http://www.w3.org/1999/xlink" width="108" height="108" viewBox="0 0 108 108">
  <defs>
    <filter id="Path_982547" x="0" y="0" width="108" height="108" filterUnits="userSpaceOnUse">
      <feOffset dy="3" input="SourceAlpha"/>
      <feGaussianBlur stdDeviation="3" result="blur"/>
      <feFlood flood-opacity="0.161"/>
      <feComposite operator="in" in2="blur"/>
      <feComposite in="SourceGraphic"/>
    </filter>
  </defs>
  <g id="Group_1157448" data-name="Group 1157448" transform="translate(-202 -319)">
    <g id="Group_1156342" data-name="Group 1156342" transform="translate(-536 -538)">
      <g id="Group_1154412" data-name="Group 1154412" transform="translate(567 -2462)">
        <g id="Group_1153304" data-name="Group 1153304" transform="translate(-21 -6867)">
          <g id="Group_1149261" data-name="Group 1149261" transform="translate(-83 6759)">
            <g id="Group_1147065" data-name="Group 1147065" transform="translate(-341 -556)">
              <g transform="matrix(1, 0, 0, 1, 616, 3983)" filter="url(#Path_982547)">
                <g id="Path_982547-2" data-name="Path 982547" transform="translate(9 6)" fill="#f2f7f5">
                  <path d="M 45 88.5 C 39.12687683105469 88.5 33.43022537231445 87.35007476806641 28.06830024719238 85.08217620849609 C 22.88852500915527 82.89131164550781 18.23629951477051 79.75458526611328 14.2408504486084 75.75914764404297 C 10.24541282653809 71.76370239257812 7.108687400817871 67.11147308349609 4.917825222015381 61.93170166015625 C 2.649924993515015 56.56977462768555 1.5 50.87312316894531 1.5 45 C 1.5 39.12687683105469 2.649924993515015 33.43022537231445 4.917825222015381 28.06830024719238 C 7.108687400817871 22.88852500915527 10.24541282653809 18.23629951477051 14.2408504486084 14.2408504486084 C 18.23629951477051 10.24541282653809 22.88852500915527 7.108687400817871 28.06830024719238 4.917825222015381 C 33.43022537231445 2.649924993515015 39.12687683105469 1.5 45 1.5 C 50.87312316894531 1.5 56.56977462768555 2.649924993515015 61.93170166015625 4.917825222015381 C 67.11147308349609 7.108687400817871 71.76370239257812 10.24541282653809 75.75914764404297 14.2408504486084 C 79.75458526611328 18.23629951477051 82.89131164550781 22.88852500915527 85.08217620849609 28.06830024719238 C 87.35007476806641 33.43022537231445 88.5 39.12687683105469 88.5 45 C 88.5 50.87312316894531 87.35007476806641 56.56977462768555 85.08217620849609 61.93170166015625 C 82.89131164550781 67.11147308349609 79.75458526611328 71.76370239257812 75.75914764404297 75.75914764404297 C 71.76370239257812 79.75458526611328 67.11147308349609 82.89131164550781 61.93170166015625 85.08217620849609 C 56.56977462768555 87.35007476806641 50.87312316894531 88.5 45 88.5 Z" stroke="none"/>
                  <path d="M 45 3 C 39.32871246337891 3 33.82865524291992 4.110054016113281 28.65262985229492 6.299339294433594 C 23.65165710449219 8.414573669433594 19.15968322753906 11.44334411621094 15.301513671875 15.301513671875 C 11.44334411621094 19.15968322753906 8.414573669433594 23.65165710449219 6.299339294433594 28.65262985229492 C 4.110054016113281 33.82865524291992 3 39.32871246337891 3 45 C 3 50.67128753662109 4.110054016113281 56.17134475708008 6.299339294433594 61.34737396240234 C 8.414573669433594 66.34834289550781 11.44334411621094 70.84031677246094 15.301513671875 74.698486328125 C 19.15968322753906 78.55665588378906 23.65165710449219 81.58542633056641 28.65262985229492 83.70066070556641 C 33.82865524291992 85.88994598388672 39.32871246337891 87 45 87 C 50.67128753662109 87 56.17134475708008 85.88994598388672 61.34737396240234 83.70066070556641 C 66.34834289550781 81.58542633056641 70.84031677246094 78.55665588378906 74.698486328125 74.698486328125 C 78.55665588378906 70.84031677246094 81.58542633056641 66.34834289550781 83.70066070556641 61.34737396240234 C 85.88994598388672 56.17134475708008 87 50.67128753662109 87 45 C 87 39.32871246337891 85.88994598388672 33.82865524291992 83.70066070556641 28.65262985229492 C 81.58542633056641 23.65165710449219 78.55665588378906 19.15968322753906 74.698486328125 15.301513671875 C 70.84031677246094 11.44334411621094 66.34834289550781 8.414573669433594 61.34737396240234 6.299339294433594 C 56.17134475708008 4.110054016113281 50.67128753662109 3 45 3 M 45 0 C 69.85281372070312 0 90 20.14718627929688 90 45 C 90 69.85281372070312 69.85281372070312 90 45 90 C 20.14718627929688 90 0 69.85281372070312 0 45 C 0 20.14718627929688 20.14718627929688 0 45 0 Z" stroke="none" fill="#4a665c"/>
                </g>
              </g>
            </g>
          </g>
        </g>
      </g>
      <g id="bombilla_4_" data-name="bombilla (4)" transform="translate(762 880.018)">
        <path id="Path_989863" data-name="Path 989863" d="M232.218,459.726l-3.64-1.82-3.64,1.82a3.64,3.64,0,0,0,7.28,0Z" transform="translate(-198.578 -404.245)" fill="#8795de"/>
        <path id="Path_989864" data-name="Path 989864" d="M224.938,459.726a3.624,3.624,0,0,0,.452,1.758h6.377a3.624,3.624,0,0,0,.452-1.758l-3.64-1.82Z" transform="translate(-198.578 -404.245)" fill="#6c7fd8"/>
        <path id="Path_989865" data-name="Path 989865" d="M218.569,404.881h-7.4a1.758,1.758,0,0,1-1.758-1.758V397.6l5.46-1.82,5.46,1.82v5.522A1.758,1.758,0,0,1,218.569,404.881Z" transform="translate(-184.866 -349.4)" fill="#c8effe"/>
        <path id="Path_989866" data-name="Path 989866" d="M217.983,404.646v3.96a1.758,1.758,0,0,1-1.758,1.758h-6.819v.586a1.758,1.758,0,0,0,1.758,1.758h7.4a1.758,1.758,0,0,0,1.758-1.758v-5.522Z" transform="translate(-184.866 -357.227)" fill="#99e6fc"/>
        <path id="Path_989867" data-name="Path 989867" d="M119.252,28.431A20.931,20.931,0,1,0,86.869,45.953a7.082,7.082,0,0,1,3,4.2l.723,2.894a2.344,2.344,0,0,0,2.274,1.775h10.9a2.344,2.344,0,0,0,2.274-1.775l.724-2.894a6.981,6.981,0,0,1,2.951-4.164A20.913,20.913,0,0,0,119.252,28.431Z" transform="translate(-68.322 -6.621)" fill="#ffe177"/>
        <path id="Path_989868" data-name="Path 989868" d="M209.47,48.835a20.935,20.935,0,0,1-4.688,30.949,6.98,6.98,0,0,0-2.951,4.164l-.724,2.894a2.344,2.344,0,0,1-2.274,1.775H188.124l.23.92a2.344,2.344,0,0,0,2.274,1.775h10.9a2.344,2.344,0,0,0,2.274-1.775l.724-2.894a6.981,6.981,0,0,1,2.951-4.164,20.934,20.934,0,0,0,1.992-33.644Z" transform="translate(-166.078 -43.112)" fill="#ffd15b"/>
        <path id="Path_989869" data-name="Path 989869" d="M91.7,0A21.853,21.853,0,0,0,80.613,3.008.879.879,0,0,0,81.5,4.522,20.062,20.062,0,0,1,102.619,38.63a7.832,7.832,0,0,0-3.325,4.688l-.724,2.894a1.463,1.463,0,0,1-1.421,1.11h-.931V35.693a.294.294,0,0,1,.236-.287l3.576-.715a2.056,2.056,0,0,0,1.649-2.011V29.2a.879.879,0,0,0-1.758,0v3.476a.294.294,0,0,1-.236.287l-3.576.715a2.056,2.056,0,0,0-1.649,2.011V47.322H92.578V23.44l6.992-1.4a.293.293,0,0,1,.35.287V25.1a.879.879,0,0,0,1.758,0V22.329a2.051,2.051,0,0,0-2.453-2.011L91.7,21.823l-7.526-1.505a2.051,2.051,0,0,0-2.453,2.011v10.35a2.056,2.056,0,0,0,1.649,2.011l3.576.715a.294.294,0,0,1,.236.287V47.322h-.931a1.463,1.463,0,0,1-1.421-1.11L84.1,43.319A7.942,7.942,0,0,0,80.728,38.6,20.08,20.08,0,0,1,78.25,6.912a.879.879,0,1,0-1.178-1.3,21.838,21.838,0,0,0,2.693,34.46A6.19,6.19,0,0,1,82.4,43.745l.724,2.894a3.218,3.218,0,0,0,2.238,2.317v2.006h-.941a.879.879,0,0,0,0,1.758h.941v1a2.642,2.642,0,0,0,1.886,2.528,4.519,4.519,0,0,0,8.907,0,2.641,2.641,0,0,0,1.886-2.528v-1h.941a.879.879,0,1,0,0-1.758h-.941V48.955a3.218,3.218,0,0,0,2.238-2.317L101,43.745a6.079,6.079,0,0,1,2.578-3.641A21.812,21.812,0,0,0,91.7,0Zm-4.41,33.682-3.576-.715a.294.294,0,0,1-.236-.287V22.329a.293.293,0,0,1,.35-.287l6.992,1.4V47.322H88.938V35.693A2.056,2.056,0,0,0,87.289,33.682Zm4.41,24.56a2.766,2.766,0,0,1-2.618-1.882h5.236A2.766,2.766,0,0,1,91.7,58.242Zm1.864-5.522H96.28v1a.88.88,0,0,1-.879.879H88a.88.88,0,0,1-.879-.879v-1h2.344a.879.879,0,1,0,0-1.758H87.118V49.08H96.28v1.882H93.563a.879.879,0,1,0,0,1.758Z" transform="translate(-61.699)"/>
        <path id="Path_989870" data-name="Path 989870" d="M202.612,209.859l1.82.364a.879.879,0,1,0,.345-1.724l-1.82-.364a.879.879,0,0,0-.345,1.724Z" transform="translate(-178.245 -183.729)"/>
        <path id="Path_989871" data-name="Path 989871" d="M204.776,245.775l-1.82-.364a.879.879,0,1,0-.345,1.724l1.82.364a.879.879,0,1,0,.345-1.724Z" transform="translate(-178.244 -216.637)"/>
        <path id="Path_989872" data-name="Path 989872" d="M283.122,208.824a.879.879,0,0,0-1.034-.689l-1.82.364a.879.879,0,1,0,.345,1.724l1.82-.364A.879.879,0,0,0,283.122,208.824Z" transform="translate(-246.8 -183.729)"/>
        <path id="Path_989873" data-name="Path 989873" d="M282.088,245.41l-1.82.364a.879.879,0,1,0,.345,1.724l1.82-.364a.879.879,0,1,0-.345-1.724Z" transform="translate(-246.8 -216.636)"/>
        <path id="Path_989874" data-name="Path 989874" d="M470.457,178.609h-3.64a.879.879,0,1,0,0,1.758h3.64a.879.879,0,1,0,0-1.758Z" transform="translate(-411.336 -157.678)"/>
        <path id="Path_989875" data-name="Path 989875" d="M451.285,81.234a.875.875,0,0,0,.439-.118l3.152-1.82A.879.879,0,0,0,454,77.773l-3.152,1.82a.879.879,0,0,0,.44,1.64Z" transform="translate(-397.623 -68.555)"/>
        <path id="Path_989876" data-name="Path 989876" d="M454.877,265.967l-3.152-1.82a.879.879,0,1,0-.879,1.522L454,267.49a.879.879,0,0,0,.879-1.522Z" transform="translate(-397.624 -233.089)"/>
        <path id="Path_989877" data-name="Path 989877" d="M5.4,179.488a.879.879,0,0,0-.879-.879H.879a.879.879,0,0,0,0,1.758h3.64A.879.879,0,0,0,5.4,179.488Z" transform="translate(0 -157.678)"/>
        <path id="Path_989878" data-name="Path 989878" d="M24.162,79.593l-3.153-1.82a.879.879,0,0,0-.879,1.522l3.152,1.82a.879.879,0,0,0,.879-1.522Z" transform="translate(-17.383 -68.554)"/>
        <path id="Path_989879" data-name="Path 989879" d="M23.284,264.148l-3.152,1.82a.879.879,0,1,0,.879,1.522l3.152-1.82a.879.879,0,1,0-.879-1.522Z" transform="translate(-17.384 -233.089)"/>
      </g>
    </g>
  </g>
</svg>
