<svg xmlns="http://www.w3.org/2000/svg" xmlns:xlink="http://www.w3.org/1999/xlink" width="110" height="110" viewBox="0 0 110 110">
  <defs>
    <filter id="Path_982547" x="0" y="0" width="110" height="110" filterUnits="userSpaceOnUse">
      <feOffset dy="3" input="SourceAlpha"/>
      <feGaussianBlur stdDeviation="3" result="blur"/>
      <feFlood flood-opacity="0.161"/>
      <feComposite operator="in" in2="blur"/>
      <feComposite in="SourceGraphic"/>
    </filter>
    <clipPath id="clip-path">
      <rect id="Rectangle_405850" data-name="Rectangle 405850" width="63.334" height="60.625" fill="none"/>
    </clipPath>
  </defs>
  <g id="Group_1157474" data-name="Group 1157474" transform="translate(-799.805 -7960.666)">
    <g id="Group_1156506" data-name="Group 1156506" transform="translate(-1.195 4667)">
      <g id="Group_1155724" data-name="Group 1155724" transform="translate(0 -1390)">
        <g id="Group_1154703" data-name="Group 1154703" transform="translate(0 1465.666)">
          <g id="Group_1150789" data-name="Group 1150789" transform="translate(3 2320)">
            <g id="Group_1154212" data-name="Group 1154212" transform="translate(-236 -5809)">
              <g id="Group_1152583" data-name="Group 1152583" transform="translate(1043 6713)">
                <g id="Group_1146973" data-name="Group 1146973" transform="translate(0 0)">
                  <g id="Group_1146954" data-name="Group 1146954">
                    <g transform="matrix(1, 0, 0, 1, -9, -6)" filter="url(#Path_982547)">
                      <g id="Path_982547-2" data-name="Path 982547" transform="translate(9 6)" fill="#fcf3f0">
                        <path d="M 46 90.49987030029297 C 39.99187850952148 90.49987030029297 34.16426849365234 89.32350921630859 28.67905426025391 87.00345611572266 C 23.38019943237305 84.76224517822266 18.62104034423828 81.55341339111328 14.53374671936035 77.46613311767578 C 10.44646644592285 73.37885284423828 7.237639904022217 68.61969757080078 4.996413230895996 63.32085418701172 C 2.676359891891479 57.83565521240234 1.5 52.008056640625 1.5 45.99993515014648 C 1.5 39.99181365966797 2.676359891891479 34.16421508789062 4.996413230895996 28.67901420593262 C 7.237639904022217 23.38017463684082 10.44646644592285 18.62101554870605 14.53374671936035 14.53373527526855 C 18.62104034423828 10.44645500183105 23.38019943237305 7.23762845993042 28.67905426025391 4.996415138244629 C 34.16426849365234 2.676361799240112 39.99187850952148 1.500001788139343 46 1.500001788139343 C 52.00812149047852 1.500001788139343 57.83573150634766 2.676361799240112 63.32094573974609 4.996415138244629 C 68.61979675292969 7.23762845993042 73.37895965576172 10.44645500183105 77.46625518798828 14.53373527526855 C 81.55353546142578 18.62101554870605 84.76235961914062 23.38017463684082 87.00358581542969 28.67901420593262 C 89.32363891601562 34.16421508789062 90.5 39.99181365966797 90.5 45.99993515014648 C 90.5 52.008056640625 89.32363891601562 57.83565521240234 87.00358581542969 63.32085418701172 C 84.76235961914062 68.61969757080078 81.55353546142578 73.37885284423828 77.46625518798828 77.46613311767578 C 73.37895965576172 81.55341339111328 68.61979675292969 84.76224517822266 63.32094573974609 87.00345611572266 C 57.83573150634766 89.32350921630859 52.00812149047852 90.49987030029297 46 90.49987030029297 Z" stroke="none"/>
                        <path d="M 46 2.999992370605469 C 40.1937141418457 2.999992370605469 34.56269836425781 4.136489868164062 29.26337051391602 6.377906799316406 C 24.14332580566406 8.543502807617188 19.54441070556641 11.64437866210938 15.59439849853516 15.59437561035156 C 11.64440155029297 19.54439544677734 8.54351806640625 24.14329528808594 6.377914428710938 29.26333618164062 C 4.136497497558594 34.56264877319336 3 40.19366455078125 3 45.99993515014648 C 3 51.80620574951172 4.136497497558594 57.43720626831055 6.377914428710938 62.73651885986328 C 8.54351806640625 67.8565673828125 11.64440155029297 72.45545959472656 15.59439849853516 76.40547943115234 C 19.54441070556641 80.35547637939453 24.14332580566406 83.45635223388672 29.26337051391602 85.6219482421875 C 34.56269836425781 87.86336517333984 40.1937141418457 88.99986267089844 46 88.99986267089844 C 51.8062858581543 88.99986267089844 57.43730163574219 87.86336517333984 62.73661422729492 85.6219482421875 C 67.85667419433594 83.45635223388672 72.45557403564453 80.35547637939453 76.40558624267578 76.40547943115234 C 80.35559844970703 72.45545959472656 83.45647430419922 67.8565673828125 85.6220703125 62.73651885986328 C 87.86350250244141 57.43720626831055 89 51.80620574951172 89 45.99993515014648 C 89 40.19366455078125 87.86350250244141 34.56264877319336 85.6220703125 29.26333618164062 C 83.45647430419922 24.14329528808594 80.35559844970703 19.54439544677734 76.40558624267578 15.59437561035156 C 72.45557403564453 11.64437866210938 67.85667419433594 8.543502807617188 62.73661422729492 6.377906799316406 C 57.43730163574219 4.136489868164062 51.8062858581543 2.999992370605469 46 2.999992370605469 M 46 -7.62939453125e-06 C 71.40509033203125 -7.62939453125e-06 92 20.59486389160156 92 45.99993515014648 C 92 71.40499114990234 71.40509033203125 91.99986267089844 46 91.99986267089844 C 20.59490203857422 91.99986267089844 0 71.40499114990234 0 45.99993515014648 C 0 20.59486389160156 20.59490203857422 -7.62939453125e-06 46 -7.62939453125e-06 Z" stroke="none" fill="#e89076"/>
                      </g>
                    </g>
                  </g>
                </g>
              </g>
            </g>
          </g>
        </g>
      </g>
      <g id="Group_1145587" data-name="Group 1145587" transform="translate(824.333 3315.353)">
        <g id="Group_1145586" data-name="Group 1145586" clip-path="url(#clip-path)">
          <path id="Path_979795" data-name="Path 979795" d="M154.318,29.71v1.36c-.873,3.021-4.367,4.333-6.06,6.616-1.83,2.467,1.705,7.257.406,10.546-1.452,3.678-7.391,1.921-10.177,3.3-1.463.725-1.222,2.957-2.967,2.783a1.423,1.423,0,0,1-.247-1.855c1.947-4.31,6.251-2.9,9.9-3.767,1.961-.466,2.074-1.506,1.817-3.31-.614-4.3-2.853-6.5,1.021-10.176,1.244-1.18,4.705-3.265,4.427-5.16-.339-2.306-5.535-4.4-6.441-7.414-.842-2.794,1.195-5.885,1.125-8.57-.069-2.635-3.426-2.211-5.23-2.413-4.122-.461-5.224-.573-7.01-4.491-.639-1.4-1.626-5.27-3.5-5.278-1.555-.007-4.833,2.677-6.534,3.362-4.066,1.638-6.034-1.392-9.315-2.849-2-.889-2.756-.492-3.739,1.419-1.312,2.55-1.739,6.233-4.843,7.276-.838.282-2.928.889-3.087-.428-.148-1.226,1.838-1.1,2.631-1.388,2.751-1.016,2.7-7.583,6.118-8.969,3.744-1.518,7.291,4.045,10.576,3.526,3.176-.5,7.253-6.149,10.732-2.757,1.867,1.82,2.611,6.8,4.329,7.913,2.908,1.888,10.919-.912,10.76,5.327-.067,2.618-2.344,6.619-.628,8.78,1.818,2.29,5.145,3.538,5.939,6.613" transform="translate(-90.984 0.001)" fill="#040403"/>
          <path id="Path_979796" data-name="Path 979796" d="M10.527,81.809c.123,1.063-1.219,1.075-1.852,1.3-1.572.564-1.547,1.612-1.347,3.072.46,3.363,2.519,6.4-.14,9.477-1.228,1.423-5.386,3.8-5.324,5.746.064,1.989,4.731,4.542,5.92,6.456,1.988,3.2-.586,6.457-.583,9.637,0,1.844,1.363,2.167,2.909,2.382,4.934.689,6.936-.606,9.343,4.632.632,1.376,1.571,5.021,3.289,5.253,1.9.257,5.722-3.478,8.139-3.8,3.913-.519,6.583,3.681,9.406,3.816,1.819.087,1.925-2.745,3.384-2.343a1.548,1.548,0,0,1,.605.925,6.454,6.454,0,0,1-1.41,2.289,5.18,5.18,0,0,1-1.916.99H39.713c-2.3-.589-4.062-2.328-6.157-3.3a3.567,3.567,0,0,0-3.763,0c-2.126.991-3.9,2.8-6.281,3.3H22.276c-3.7-1.081-3.621-5.889-5.638-8.4-1.2-1.494-3.937-1.188-5.677-1.372-4.576-.485-6.237-1.742-5.323-6.557.4-2.1,1.8-4.868.317-6.738-2.058-2.591-7.54-4.8-5.512-8.967,1.142-2.345,5.448-4.452,6.066-6.423,1.033-3.292-4.04-9.8,1.423-11.809.719-.264,2.461-.721,2.594.43" transform="translate(0 -71.019)" fill="#030403"/>
          <path id="Path_979797" data-name="Path 979797" d="M95.107,65.8c-1.308.193-2.6.562-3.912.726a29.394,29.394,0,0,1-33.19-28.549c2.66-3.081.6-6.113.14-9.477-.2-1.46-.225-2.508,1.347-3.071.633-.227,1.975-.239,1.852-1.3L63.695,24c.159,1.317,2.248.709,3.087.428,3.1-1.043,3.531-4.726,4.843-7.276.983-1.911,1.735-2.309,3.739-1.419,3.282,1.456,5.249,4.486,9.315,2.849,1.7-.685,4.978-3.369,6.534-3.362,1.875.008,2.862,3.876,3.5,5.278,1.786,3.918,2.888,4.029,7.01,4.491,1.8.2,5.161-.223,5.23,2.413.07,2.685-1.967,5.776-1.125,8.57.907,3.01,6.1,5.108,6.441,7.414.278,1.9-3.183,3.98-4.427,5.16-3.874,3.674-1.635,5.871-1.021,10.175.257,1.8.144,2.844-1.817,3.31-3.647.867-7.951-.543-9.9,3.767m2.1-32.151a9.248,9.248,0,0,0-1.484-1.855c1.084-.9-.871-2.292-1.549-2.841A18.882,18.882,0,1,0,80.453,62.458c14.56,1.487,25.156-13.6,18.965-26.877-.376-.806-1.072-2.6-2.209-1.934" transform="translate(-50.818 -13.335)" fill="#b3e354"/>
          <path id="Path_979798" data-name="Path 979798" d="M57.464,226.677a1.423,1.423,0,0,0,.247,1.855l-.866,2.1c-1.459-.4-1.564,2.429-3.384,2.343-2.822-.134-5.493-4.335-9.406-3.816-2.417.321-6.236,4.056-8.139,3.8-1.718-.232-2.657-3.877-3.289-5.253-2.407-5.238-4.409-3.942-9.343-4.632-1.546-.216-2.908-.538-2.909-2.382,0-3.179,2.571-6.436.583-9.637-1.189-1.914-5.856-4.467-5.92-6.456-.062-1.944,4.1-4.323,5.324-5.746A29.393,29.393,0,0,0,53.552,227.4c1.314-.164,2.6-.533,3.912-.726" transform="translate(-13.175 -174.214)" fill="#a2d94a"/>
          <path id="Path_979799" data-name="Path 979799" d="M147.512,112.667A9.251,9.251,0,0,1,149,114.522c-1.006.585.29,2.209.6,2.924a17.011,17.011,0,1,1-5.383-6.613c.573.421,2.186,2.07,2.723,2.045a1.789,1.789,0,0,0,.575-.211m-22.879,13.726v2.473a.949.949,0,0,0-.858.811,26.969,26.969,0,0,0,0,4.31c.238,1.749,2.22,1.945,3.636,1.8a2.332,2.332,0,0,0,2.125-1.611l12.957,0a2.613,2.613,0,0,0,1.931-2.285c.017-.363-.2-.812-.137-1.083.011-.048.591-.442.748-.644a2.809,2.809,0,0,0,.484-2.214c-.039-.275-.331-.792-.324-.878.018-.229.861-.847.838-1.979a4.522,4.522,0,0,0-.838-1.975c-.007-.086.285-.6.324-.878.28-1.987-.871-3.1-2.774-3.264-1.861-.159-5.5.87-5.512-1.919,0-1.666.91-2.718.262-4.58-.584-1.679-3.125-3.528-4.358-1.5-.953,1.563-1.495,4.686-2.265,6.515a7.713,7.713,0,0,1-1.544,2.418c-.166.07-.606-.539-.822-.666a6.426,6.426,0,0,0-2.832-.272c-2.963.29-1.614,4.768-1.908,6.743a.933.933,0,0,0,.863.683" transform="translate(-102.605 -94.21)" fill="#f7f5f6"/>
          <path id="Path_979800" data-name="Path 979800" d="M134.268,99.467a1.79,1.79,0,0,1-.575.211c-.537.026-2.15-1.624-2.723-2.045a17.008,17.008,0,1,0,5.383,6.613c-.31-.715-1.607-2.338-.6-2.924,1.136-.661,1.833,1.129,2.209,1.934,6.192,13.273-4.4,28.364-18.965,26.877a18.883,18.883,0,1,1,13.723-33.507c.678.549,2.634,1.936,1.549,2.841" transform="translate(-89.361 -81.009)" fill="#040403"/>
          <path id="Path_979801" data-name="Path 979801" d="M171.105,144.438a.933.933,0,0,1-.863-.683c.294-1.975-1.055-6.453,1.908-6.743a6.426,6.426,0,0,1,2.832.272c.216.127.656.736.822.666a7.713,7.713,0,0,0,1.544-2.418c.77-1.829,1.311-4.952,2.265-6.515,1.234-2.023,3.774-.174,4.358,1.5.648,1.862-.267,2.914-.262,4.58.008,2.789,3.651,1.76,5.512,1.919,1.9.163,3.054,1.278,2.774,3.264-.039.275-.331.792-.324.878a4.522,4.522,0,0,1,.838,1.975c.024,1.132-.819,1.75-.838,1.979-.007.086.285.6.324.878a2.809,2.809,0,0,1-.484,2.214c-.157.2-.737.6-.748.644-.062.271.154.72.137,1.083a2.613,2.613,0,0,1-1.931,2.285l-12.957,0a2.332,2.332,0,0,1-2.125,1.611c-1.416.143-3.4-.054-3.636-1.8a26.968,26.968,0,0,1,0-4.31.948.948,0,0,1,.858-.811c.352-.017.989.357.989.68v4.2a2.436,2.436,0,0,0,1.991.012,7.34,7.34,0,0,0,.112-2.176c.042-3.481-.031-6.967,0-10.449l-.2-.292a6.514,6.514,0,0,0-.911-.017c-.279.006-.869-.11-.972.2-.215,1.358.24,3.383-.044,4.655a.946.946,0,0,1-.963.707m4.947,5.194c.009.247-.007.5,0,.743l12.189.006c.548.026.7-.241.673-.749,0-.072.031-.163-.018-.225-1.458-.459-2.777.539-2.7-1.63.709-.854,3.45.117,3.9-.746a.906.906,0,0,0,.062-.491c-.079-1.594-3.516.042-3.932-1.325a2.921,2.921,0,0,1-.026-.777c.693-1.23,4.386.348,4.452-1.237.063-1.5-3.167-.553-4.052-.957-.478-.218-.408-.834-.4-1.269.782-1.182,3.9.318,3.958-1.237a1.141,1.141,0,0,0-.114-.534c-.257-.4-3.571-.15-4.282-.2-2.532-.19-4.1-1.8-3.889-4.393.121-1.525,1.3-3.745-.742-4.516-1.328,3.552-1.782,7.712-5.049,10.1.04,3.138-.134,6.3-.023,9.437" transform="translate(-149.077 -112.254)" fill="#040303"/>
          <path id="Path_979802" data-name="Path 979802" d="M179.751,214.708l.008,10.07c.1.606.555.735,1.105.688a7.341,7.341,0,0,1-.112,2.176,2.435,2.435,0,0,1-1.991-.012v-4.2c0-.323-.637-.7-.989-.68v-2.473a.946.946,0,0,0,.963-.707c.284-1.272-.171-3.3.044-4.655.1-.312.693-.2.972-.2" transform="translate(-155.744 -188.089)" fill="#63d5f3"/>
          <path id="Path_979803" data-name="Path 979803" d="M217.429,163.505c-.111-3.135.063-6.3.023-9.437,3.267-2.389,3.721-6.55,5.049-10.1,2.041.771.864,2.99.742,4.516-.206,2.591,1.357,4.2,3.889,4.393.711.053,4.024-.193,4.282.2a1.141,1.141,0,0,1,.114.534c-.947.145-2.622-.22-3.47.055-.545.177-.48.735-.487,1.182s-.078,1.05.4,1.269c.885.4,4.114-.541,4.052.957-1.071.175-3.041-.247-3.993.026-.541.156-.459.786-.459,1.21a2.92,2.92,0,0,0,.026.777c.415,1.367,3.853-.269,3.932,1.325-.859.144-3.489-.389-3.894.5a1.8,1.8,0,0,0-.064.739c-.074,2.169,1.245,1.171,2.7,1.63.048.062.013.153.018.225Z" transform="translate(-190.454 -126.128)" fill="#fcd0a3"/>
          <path id="Path_979804" data-name="Path 979804" d="M194.855,225.529c-.55.047-1.01-.082-1.105-.688l-.008-10.071a6.514,6.514,0,0,1,.911.017l.2.292c-.031,3.482.042,6.969,0,10.449" transform="translate(-169.735 -188.151)" fill="#95e4fb"/>
          <path id="Path_979805" data-name="Path 979805" d="M230.54,301.645c.032.508-.125.775-.673.749l-12.189-.006c-.007-.246.009-.5,0-.743Z" transform="translate(-190.704 -264.268)" fill="#fdbc85"/>
          <path id="Path_979806" data-name="Path 979806" d="M303.445,276.485a.906.906,0,0,1-.062.491c-.446.863-3.187-.108-3.9.746a1.8,1.8,0,0,1,.064-.739c.405-.886,3.034-.353,3.894-.5" transform="translate(-262.371 -242.199)" fill="#f1b480"/>
          <path id="Path_979807" data-name="Path 979807" d="M303.954,249.265c-.066,1.585-3.759.007-4.452,1.237,0-.424-.082-1.055.459-1.21.952-.273,2.922.149,3.993-.026" transform="translate(-262.386 -218.318)" fill="#f9b983"/>
          <path id="Path_979808" data-name="Path 979808" d="M303.491,221.447c-.061,1.554-3.175.055-3.957,1.237.008-.447-.057-1.006.487-1.182.848-.275,2.523.09,3.47-.055" transform="translate(-262.418 -193.962)" fill="#fcbb85"/>
        </g>
      </g>
    </g>
  </g>
</svg>
