<svg xmlns="http://www.w3.org/2000/svg" xmlns:xlink="http://www.w3.org/1999/xlink" width="108" height="108" viewBox="0 0 108 108">
  <defs>
    <filter id="Path_982547" x="0" y="0" width="108" height="108" filterUnits="userSpaceOnUse">
      <feOffset dy="3" input="SourceAlpha"/>
      <feGaussianBlur stdDeviation="3" result="blur"/>
      <feFlood flood-opacity="0.161"/>
      <feComposite operator="in" in2="blur"/>
      <feComposite in="SourceGraphic"/>
    </filter>
  </defs>
  <g id="Group_1157486" data-name="Group 1157486" transform="translate(-211 -1875)">
    <g id="Group_1156660" data-name="Group 1156660" transform="translate(15 -8054)">
      <g id="Group_1154033" data-name="Group 1154033" transform="translate(-420 6019)">
        <g id="Group_1153177" data-name="Group 1153177" transform="translate(362 3397)">
          <g id="Group_1149598" data-name="Group 1149598" transform="translate(80 315)">
            <g id="Group_1148770" data-name="Group 1148770" transform="translate(-27 -2583)">
              <g id="Group_1146954" data-name="Group 1146954" transform="translate(-415 -1202)">
                <g transform="matrix(1, 0, 0, 1, 616, 3983)" filter="url(#Path_982547)">
                  <g id="Path_982547-2" data-name="Path 982547" transform="translate(9 6)" fill="#f2f7f5">
                    <path d="M 45 88.5 C 39.12687683105469 88.5 33.43022537231445 87.35007476806641 28.06830024719238 85.08217620849609 C 22.88852500915527 82.89131164550781 18.23629951477051 79.75458526611328 14.2408504486084 75.75914764404297 C 10.24541282653809 71.76370239257812 7.108687400817871 67.11147308349609 4.917825222015381 61.93170166015625 C 2.649924993515015 56.56977462768555 1.5 50.87312316894531 1.5 45 C 1.5 39.12687683105469 2.649924993515015 33.43022537231445 4.917825222015381 28.06830024719238 C 7.108687400817871 22.88852500915527 10.24541282653809 18.23629951477051 14.2408504486084 14.2408504486084 C 18.23629951477051 10.24541282653809 22.88852500915527 7.108687400817871 28.06830024719238 4.917825222015381 C 33.43022537231445 2.649924993515015 39.12687683105469 1.5 45 1.5 C 50.87312316894531 1.5 56.56977462768555 2.649924993515015 61.93170166015625 4.917825222015381 C 67.11147308349609 7.108687400817871 71.76370239257812 10.24541282653809 75.75914764404297 14.2408504486084 C 79.75458526611328 18.23629951477051 82.89131164550781 22.88852500915527 85.08217620849609 28.06830024719238 C 87.35007476806641 33.43022537231445 88.5 39.12687683105469 88.5 45 C 88.5 50.87312316894531 87.35007476806641 56.56977462768555 85.08217620849609 61.93170166015625 C 82.89131164550781 67.11147308349609 79.75458526611328 71.76370239257812 75.75914764404297 75.75914764404297 C 71.76370239257812 79.75458526611328 67.11147308349609 82.89131164550781 61.93170166015625 85.08217620849609 C 56.56977462768555 87.35007476806641 50.87312316894531 88.5 45 88.5 Z" stroke="none"/>
                    <path d="M 45 3 C 39.32871246337891 3 33.82865524291992 4.110054016113281 28.65262985229492 6.299339294433594 C 23.65165710449219 8.414573669433594 19.15968322753906 11.44334411621094 15.301513671875 15.301513671875 C 11.44334411621094 19.15968322753906 8.414573669433594 23.65165710449219 6.299339294433594 28.65262985229492 C 4.110054016113281 33.82865524291992 3 39.32871246337891 3 45 C 3 50.67128753662109 4.110054016113281 56.17134475708008 6.299339294433594 61.34737396240234 C 8.414573669433594 66.34834289550781 11.44334411621094 70.84031677246094 15.301513671875 74.698486328125 C 19.15968322753906 78.55665588378906 23.65165710449219 81.58542633056641 28.65262985229492 83.70066070556641 C 33.82865524291992 85.88994598388672 39.32871246337891 87 45 87 C 50.67128753662109 87 56.17134475708008 85.88994598388672 61.34737396240234 83.70066070556641 C 66.34834289550781 81.58542633056641 70.84031677246094 78.55665588378906 74.698486328125 74.698486328125 C 78.55665588378906 70.84031677246094 81.58542633056641 66.34834289550781 83.70066070556641 61.34737396240234 C 85.88994598388672 56.17134475708008 87 50.67128753662109 87 45 C 87 39.32871246337891 85.88994598388672 33.82865524291992 83.70066070556641 28.65262985229492 C 81.58542633056641 23.65165710449219 78.55665588378906 19.15968322753906 74.698486328125 15.301513671875 C 70.84031677246094 11.44334411621094 66.34834289550781 8.414573669433594 61.34737396240234 6.299339294433594 C 56.17134475708008 4.110054016113281 50.67128753662109 3 45 3 M 45 0 C 69.85281372070312 0 90 20.14718627929688 90 45 C 90 69.85281372070312 69.85281372070312 90 45 90 C 20.14718627929688 90 0 69.85281372070312 0 45 C 0 20.14718627929688 20.14718627929688 0 45 0 Z" stroke="none" fill="#88bba9"/>
                  </g>
                </g>
              </g>
            </g>
          </g>
        </g>
      </g>
      <g id="Layer_63" transform="translate(213.853 9946.215)">
        <g id="Group_1156659" data-name="Group 1156659" transform="translate(3.209)">
          <g id="Group_1156593" data-name="Group 1156593" transform="translate(19.004 19.004)">
            <circle id="Ellipse_11754" data-name="Ellipse 11754" cx="15" cy="15" r="15" transform="translate(-0.004 -0.004)" fill="#b598f9"/>
          </g>
          <g id="Group_1156595" data-name="Group 1156595" transform="translate(27.043 23.305)">
            <g id="Group_1156594" data-name="Group 1156594">
              <path id="Path_990819" data-name="Path 990819" d="M106.99,95.437a2.153,2.153,0,0,1,.327.026v-.245a.272.272,0,0,1,.329-.262,5.517,5.517,0,0,0,5.524-1.815.274.274,0,0,1,.407-.026,5.3,5.3,0,0,0,3.657,1.32.273.273,0,0,1,.263.268c0,.026,0,.053,0,.08v.681a2.113,2.113,0,0,1,1.8.57V92.211A2.916,2.916,0,0,0,116.39,89.3a2.879,2.879,0,0,0-1.485.415,2.911,2.911,0,0,0-2.494-1.423h-1.493a5.27,5.27,0,0,0-5.254,5.254V95.9A2.115,2.115,0,0,1,106.99,95.437Z" transform="translate(-105.664 -88.295)" fill="#754e34"/>
            </g>
          </g>
          <g id="Group_1156596" data-name="Group 1156596" transform="translate(38.863 30.448)">
            <path id="Path_990820" data-name="Path 990820" d="M150.785,115.355a2.119,2.119,0,0,0-.327.026v3.853c0,.115-.005.228-.013.341a2.124,2.124,0,1,0,.34-4.221Z" transform="translate(-150.445 -115.355)" fill="#f9d0b4"/>
          </g>
          <g id="Group_1156597" data-name="Group 1156597" transform="translate(26.244 30.448)">
            <path id="Path_990821" data-name="Path 990821" d="M105.089,119.234v-3.853a2.125,2.125,0,1,0-.327,4.224,2.147,2.147,0,0,0,.339-.03C105.094,119.463,105.089,119.349,105.089,119.234Z" transform="translate(-102.637 -115.355)" fill="#f9d0b4"/>
          </g>
          <g id="Group_1156598" data-name="Group 1156598" transform="translate(28.695 28.047)">
            <path id="Path_990822" data-name="Path 990822" d="M117.777,106.364a5.517,5.517,0,0,1-5.524,1.815.272.272,0,0,0-.329.262v4.1a5.09,5.09,0,1,0,10.181,0v-4.534c0-.027,0-.053,0-.08a.273.273,0,0,0-.263-.268,5.3,5.3,0,0,1-3.657-1.32A.274.274,0,0,0,117.777,106.364Z" transform="translate(-111.924 -106.26)" fill="#f9d0b4"/>
          </g>
          <g id="Group_1156599" data-name="Group 1156599" transform="translate(28.262 40.758)">
            <path id="Path_990823" data-name="Path 990823" d="M112.818,158.322a.552.552,0,0,0,.78,0l1.3-1.3a.552.552,0,0,0,0-.781l-1.82-1.82a1.764,1.764,0,0,1-.536.452c-.024.013-.242.121-.5.251a9.974,9.974,0,0,1-1.759.668Z" transform="translate(-110.284 -154.417)" fill="#9be5f9"/>
          </g>
          <g id="Group_1156600" data-name="Group 1156600" transform="translate(34.529 40.756)">
            <path id="Path_990824" data-name="Path 990824" d="M135.49,158.316a.552.552,0,0,0,.78,0l2.535-2.534a9.983,9.983,0,0,1-1.8-.688c-.284-.142-.529-.266-.575-.3a1.756,1.756,0,0,1-.424-.389l-1.823,1.823a.552.552,0,0,0,0,.78Z" transform="translate(-134.025 -154.409)" fill="#9be5f9"/>
          </g>
          <g id="Group_1156601" data-name="Group 1156601" transform="translate(23.628 38.84)">
            <path id="Path_990825" data-name="Path 990825" d="M102.884,156.875a14.725,14.725,0,0,0,10.157-4.048,2.005,2.005,0,0,0-1.481-1.589l-2.922-.736c-.077-.02-.154-.043-.23-.065l-2.535,2.534a.552.552,0,0,1-.78,0l-1.3-1.3a.552.552,0,0,1,0-.78l1.823-1.823a1.751,1.751,0,0,1-.382-1.088v-.828a5.049,5.049,0,0,1-4.69,0v.828a1.756,1.756,0,0,1-.38,1.09l1.82,1.82a.552.552,0,0,1,0,.78l-1.3,1.3a.552.552,0,0,1-.781,0l-2.534-2.534c-.076.021-.151.045-.228.064l-2.925.736a2,2,0,0,0-1.481,1.589A14.728,14.728,0,0,0,102.884,156.875Z" transform="translate(-92.726 -147.148)" fill="#70d6f9"/>
          </g>
          <g id="Group_1156602" data-name="Group 1156602" transform="translate(31.061 38.84)">
            <path id="Path_990826" data-name="Path 990826" d="M122.842,151.442h1.54a.55.55,0,0,1,.134-.553l1.823-1.823a1.751,1.751,0,0,1-.382-1.088v-.829a5.049,5.049,0,0,1-4.69,0v.829a1.756,1.756,0,0,1-.38,1.09l1.82,1.82A.549.549,0,0,1,122.842,151.442Z" transform="translate(-120.887 -147.149)" fill="#f9d0b4"/>
          </g>
          <g id="Group_1156604" data-name="Group 1156604" transform="translate(26.383 22.645)">
            <g id="Group_1156603" data-name="Group 1156603">
              <path id="Path_990827" data-name="Path 990827" d="M117.457,94.636a.66.66,0,0,1-.66-.66V90.37a2.239,2.239,0,0,0-3.394-1.927.66.66,0,0,1-.905-.227,2.264,2.264,0,0,0-1.928-1.1h-1.493a4.6,4.6,0,0,0-4.594,4.594v2.2a.66.66,0,1,1-1.32,0v-2.2a5.921,5.921,0,0,1,5.914-5.914h1.493a3.585,3.585,0,0,1,2.7,1.249,3.523,3.523,0,0,1,1.277-.24,3.572,3.572,0,0,1,3.568,3.568v3.606A.659.659,0,0,1,117.457,94.636Z" transform="translate(-103.163 -85.794)"/>
            </g>
          </g>
          <g id="Group_1156605" data-name="Group 1156605" transform="translate(38.383 29.788)">
            <path id="Path_990828" data-name="Path 990828" d="M149.446,118.425c-.067,0-.133,0-.2-.008a.66.66,0,1,1,.107-1.316c.03,0,.06,0,.091,0a1.465,1.465,0,0,0,0-2.931c-.037,0-.073,0-.108,0a.66.66,0,1,1-.1-1.316c.07-.006.14-.008.211-.008a2.785,2.785,0,0,1,0,5.57Z" transform="translate(-148.626 -112.855)"/>
          </g>
          <g id="Group_1156606" data-name="Group 1156606" transform="translate(25.584 29.788)">
            <path id="Path_990829" data-name="Path 990829" d="M102.921,118.424a2.785,2.785,0,0,1,0-5.57,2.659,2.659,0,0,1,.269.014.66.66,0,1,1-.132,1.313c-.045,0-.091-.007-.137-.007a1.465,1.465,0,0,0,0,2.931c.035,0,.07,0,.1-.005a.66.66,0,1,1,.115,1.314C103.068,118.421,102.995,118.424,102.921,118.424Z" transform="translate(-100.136 -112.854)"/>
          </g>
          <g id="Group_1156607" data-name="Group 1156607" transform="translate(28.035 27.387)">
            <path id="Path_990830" data-name="Path 990830" d="M115.174,116.449a5.757,5.757,0,0,1-5.75-5.75V106.6a.932.932,0,0,1,1.124-.912,4.829,4.829,0,0,0,4.872-1.58.933.933,0,0,1,1.386-.086,4.673,4.673,0,0,0,3.214,1.131.931.931,0,0,1,.9.914V110.7A5.756,5.756,0,0,1,115.174,116.449Zm-4.43-9.385V110.7a4.43,4.43,0,1,0,8.861,0v-4.241a6.046,6.046,0,0,1-3.413-1.216A6.135,6.135,0,0,1,110.744,107.064Zm9.237-.586h0Zm-4.045-1.954h0Z" transform="translate(-109.424 -103.759)"/>
          </g>
          <g id="Group_1156608" data-name="Group 1156608" transform="translate(27.602 40.099)">
            <path id="Path_990831" data-name="Path 990831" d="M111.368,157.3a1.207,1.207,0,0,1-.857-.354l-2.534-2.534a.66.66,0,0,1,.29-1.1,9.339,9.339,0,0,0,1.643-.624c.241-.119.444-.22.485-.241a1.085,1.085,0,0,0,.33-.28.66.66,0,0,1,.479-.249.668.668,0,0,1,.5.192l1.82,1.82a1.213,1.213,0,0,1,0,1.714l-1.3,1.3A1.208,1.208,0,0,1,111.368,157.3Zm.076-1.288h0Zm-1.779-1.779,1.7,1.7,1.151-1.151-1.3-1.3q-.1.064-.2.12c-.023.013-.253.127-.527.263s-.546.255-.83.366Z" transform="translate(-107.784 -151.918)"/>
          </g>
          <g id="Group_1156609" data-name="Group 1156609" transform="translate(33.868 40.096)">
            <path id="Path_990832" data-name="Path 990832" d="M134.039,157.3a1.206,1.206,0,0,1-.857-.354l-1.3-1.3a1.211,1.211,0,0,1,0-1.714L133.7,152.1a.659.659,0,0,1,.984.057,1.1,1.1,0,0,0,.264.244s.092.05.512.26a9.388,9.388,0,0,0,1.679.642.66.66,0,0,1,.29,1.1l-2.535,2.535a1.205,1.205,0,0,1-.857.354Zm.076-1.288h0Zm-1.228-1.228,1.151,1.151,1.7-1.7q-.448-.174-.871-.386c-.548-.274-.6-.306-.637-.331l-.047-.031Z" transform="translate(-131.523 -151.908)"/>
          </g>
          <g id="Group_1156610" data-name="Group 1156610" transform="translate(32.499 42.473)">
            <path id="Path_990833" data-name="Path 990833" d="M128.265,162.232h-1.27a.66.66,0,1,1,0-1.32h1.27a.66.66,0,0,1,0,1.32Z" transform="translate(-126.335 -160.912)"/>
          </g>
          <g id="Group_1156611" data-name="Group 1156611" transform="translate(22.985 41.469)">
            <path id="Path_990834" data-name="Path 990834" d="M90.951,160.737a.67.67,0,0,1-.145-.016.66.66,0,0,1-.5-.789,2.653,2.653,0,0,1,1.947-2l2.925-.736c.043-.011.084-.023.125-.035l.087-.025a.66.66,0,1,1,.354,1.271l-.073.021c-.057.017-.114.033-.172.048l-2.924.736a1.338,1.338,0,0,0-.982,1.011.662.662,0,0,1-.644.516Z" transform="translate(-90.29 -157.109)"/>
          </g>
          <g id="Group_1156612" data-name="Group 1156612" transform="translate(30.401 38.317)">
            <path id="Path_990835" data-name="Path 990835" d="M119.046,148.269a.66.66,0,0,1-.517-1.07,1.1,1.1,0,0,0,.237-.681v-.692a.66.66,0,0,1,1.32,0v.692a2.427,2.427,0,0,1-.522,1.5A.659.659,0,0,1,119.046,148.269Z" transform="translate(-118.387 -145.167)"/>
          </g>
          <g id="Group_1156613" data-name="Group 1156613" transform="translate(35.471 38.347)">
            <path id="Path_990836" data-name="Path 990836" d="M138.636,148.35a.659.659,0,0,1-.518-.25,2.424,2.424,0,0,1-.524-1.5v-.661a.66.66,0,0,1,1.32,0v.661a1.1,1.1,0,0,0,.239.678.66.66,0,0,1-.517,1.07Z" transform="translate(-137.594 -145.281)"/>
          </g>
          <g id="Group_1156614" data-name="Group 1156614" transform="translate(38.649 41.469)">
            <path id="Path_990837" data-name="Path 990837" d="M154.908,160.717a.66.66,0,0,1-.642-.509,1.34,1.34,0,0,0-.979-1l-2.922-.735c-.058-.015-.113-.031-.169-.047l-.077-.022a.66.66,0,1,1,.354-1.271l.092.027c.041.012.082.024.123.034l2.921.735a2.656,2.656,0,0,1,1.941,1.976.66.66,0,0,1-.491.794.669.669,0,0,1-.152.018Z" transform="translate(-149.636 -157.109)"/>
          </g>
          <g id="Group_1156615" data-name="Group 1156615" transform="translate(13.139 21.662)">
            <path id="Path_990838" data-name="Path 990838" d="M60.285,87.222a.655.655,0,0,1-.329-.088L53.317,83.3a.66.66,0,1,1,.66-1.143l6.639,3.833a.66.66,0,0,1-.331,1.232Z" transform="translate(-52.987 -82.069)"/>
          </g>
          <g id="Group_1156616" data-name="Group 1156616" transform="translate(46.474 40.756)">
            <path id="Path_990839" data-name="Path 990839" d="M187.526,160.108a.655.655,0,0,1-.329-.088l-7.586-4.38a.66.66,0,1,1,.66-1.143l7.586,4.38a.66.66,0,0,1-.33,1.231Z" transform="translate(-179.281 -154.408)"/>
          </g>
          <g id="Group_1156617" data-name="Group 1156617" transform="translate(40.756 13.322)">
            <path id="Path_990840" data-name="Path 990840" d="M158.277,58.246a.66.66,0,0,1-.571-.99l3.727-6.456a.66.66,0,1,1,1.143.66l-3.727,6.456a.66.66,0,0,1-.572.33Z" transform="translate(-157.618 -50.47)"/>
          </g>
          <g id="Group_1156618" data-name="Group 1156618" transform="translate(41.446 0.66)">
            <circle id="Ellipse_11755" data-name="Ellipse 11755" cx="6.995" cy="6.995" r="6.995" fill="#70d6f9"/>
          </g>
          <g id="Group_1156619" data-name="Group 1156619" transform="translate(46.461 3.563)">
            <circle id="Ellipse_11756" data-name="Ellipse 11756" cx="1.98" cy="1.98" r="1.98" fill="#f9d0b4"/>
          </g>
          <g id="Group_1156620" data-name="Group 1156620" transform="translate(43.689 9.634)">
            <path id="Path_990841" data-name="Path 990841" d="M175.368,36.5H171.6a2.873,2.873,0,0,0-2.865,2.865v.287a6.99,6.99,0,0,0,9.5,0v-.287A2.874,2.874,0,0,0,175.368,36.5Z" transform="translate(-168.731 -36.5)" fill="#fc657e"/>
          </g>
          <g id="Group_1156621" data-name="Group 1156621" transform="translate(40.786)">
            <path id="Path_990842" data-name="Path 990842" d="M165.385,15.309a7.655,7.655,0,1,1,7.655-7.655A7.663,7.663,0,0,1,165.385,15.309Zm0-13.989a6.335,6.335,0,1,0,6.335,6.335A6.342,6.342,0,0,0,165.385,1.32Z" transform="translate(-157.73)"/>
          </g>
          <g id="Group_1156622" data-name="Group 1156622" transform="translate(45.801 2.903)">
            <path id="Path_990843" data-name="Path 990843" d="M179.369,16.279a2.639,2.639,0,1,1,2.639-2.639A2.642,2.642,0,0,1,179.369,16.279Zm0-3.959a1.32,1.32,0,1,0,1.32,1.32A1.321,1.321,0,0,0,179.369,12.32Z" transform="translate(-176.73 -11)"/>
          </g>
          <g id="Group_1156623" data-name="Group 1156623" transform="translate(43.03 8.974)">
            <path id="Path_990844" data-name="Path 990844" d="M176.393,38.333a.66.66,0,0,1-.66-.66v-.149a2.208,2.208,0,0,0-2.205-2.205h-3.772a2.208,2.208,0,0,0-2.205,2.205v.129a.66.66,0,1,1-1.32,0v-.129A3.529,3.529,0,0,1,169.756,34h3.772a3.529,3.529,0,0,1,3.525,3.525v.149A.66.66,0,0,1,176.393,38.333Z" transform="translate(-166.231 -34)"/>
          </g>
          <g id="Group_1156624" data-name="Group 1156624" transform="translate(0.66 11.746)">
            <circle id="Ellipse_11757" data-name="Ellipse 11757" cx="6.995" cy="6.995" r="6.995" fill="#f5c84c"/>
          </g>
          <g id="Group_1156625" data-name="Group 1156625" transform="translate(5.675 14.649)">
            <circle id="Ellipse_11758" data-name="Ellipse 11758" cx="1.98" cy="1.98" r="1.98" fill="#f9d0b4"/>
          </g>
          <g id="Group_1156626" data-name="Group 1156626" transform="translate(2.904 20.72)">
            <path id="Path_990845" data-name="Path 990845" d="M20.847,78.5H17.075a2.873,2.873,0,0,0-2.865,2.865v.287a6.99,6.99,0,0,0,9.5,0v-.287A2.874,2.874,0,0,0,20.847,78.5Z" transform="translate(-14.21 -78.5)" fill="#fc657e"/>
          </g>
          <g id="Group_1156627" data-name="Group 1156627" transform="translate(0 11.086)">
            <path id="Path_990846" data-name="Path 990846" d="M10.864,57.309a7.655,7.655,0,1,1,7.655-7.655A7.663,7.663,0,0,1,10.864,57.309Zm0-13.989A6.335,6.335,0,1,0,17.2,49.655,6.342,6.342,0,0,0,10.864,43.32Z" transform="translate(-3.209 -42)"/>
          </g>
          <g id="Group_1156628" data-name="Group 1156628" transform="translate(5.015 13.989)">
            <path id="Path_990847" data-name="Path 990847" d="M24.848,58.279a2.639,2.639,0,1,1,2.639-2.639A2.642,2.642,0,0,1,24.848,58.279Zm0-3.959a1.32,1.32,0,1,0,1.32,1.32A1.321,1.321,0,0,0,24.848,54.32Z" transform="translate(-22.209 -53)"/>
          </g>
          <g id="Group_1156629" data-name="Group 1156629" transform="translate(2.244 20.06)">
            <path id="Path_990848" data-name="Path 990848" d="M12.369,80.314a.66.66,0,0,1-.66-.66v-.129A3.529,3.529,0,0,1,15.234,76h3.772a3.529,3.529,0,0,1,3.525,3.525v.121a.66.66,0,1,1-1.32,0v-.121a2.208,2.208,0,0,0-2.205-2.205H15.234a2.208,2.208,0,0,0-2.205,2.205v.129A.66.66,0,0,1,12.369,80.314Z" transform="translate(-11.709 -76)"/>
          </g>
          <g id="Group_1156630" data-name="Group 1156630" transform="translate(54.363 43.008)">
            <circle id="Ellipse_11759" data-name="Ellipse 11759" cx="5.427" cy="5.427" r="5.427" fill="#fc657e"/>
          </g>
          <g id="Group_1156631" data-name="Group 1156631" transform="translate(58.254 45.26)">
            <circle id="Ellipse_11760" data-name="Ellipse 11760" cx="1.536" cy="1.536" r="1.536" fill="#f9d0b4"/>
          </g>
          <g id="Group_1156632" data-name="Group 1156632" transform="translate(56.104 49.971)">
            <path id="Path_990849" data-name="Path 990849" d="M220.914,189.319h-2.927a2.229,2.229,0,0,0-2.223,2.223v.223a5.423,5.423,0,0,0,7.373,0v-.223A2.229,2.229,0,0,0,220.914,189.319Z" transform="translate(-215.764 -189.319)" fill="#f5c84c"/>
          </g>
          <g id="Group_1156633" data-name="Group 1156633" transform="translate(53.703 42.348)">
            <path id="Path_990850" data-name="Path 990850" d="M212.756,172.613a6.087,6.087,0,1,1,6.087-6.087A6.094,6.094,0,0,1,212.756,172.613Zm0-10.854a4.767,4.767,0,1,0,4.767,4.767A4.773,4.773,0,0,0,212.756,161.759Z" transform="translate(-206.669 -160.439)"/>
          </g>
          <g id="Group_1156634" data-name="Group 1156634" transform="translate(57.594 44.601)">
            <path id="Path_990851" data-name="Path 990851" d="M223.608,173.366a2.2,2.2,0,1,1,2.2-2.2A2.2,2.2,0,0,1,223.608,173.366Zm0-3.072a.876.876,0,1,0,.876.876A.877.877,0,0,0,223.608,170.295Z" transform="translate(-221.412 -168.975)"/>
          </g>
          <g id="Group_1156635" data-name="Group 1156635" transform="translate(55.444 49.311)">
            <path id="Path_990852" data-name="Path 990852" d="M213.925,190.463a.66.66,0,0,1-.66-.66v-.1a2.886,2.886,0,0,1,2.883-2.883h2.927a2.886,2.886,0,0,1,2.883,2.883v.1a.66.66,0,1,1-1.32,0v-.1a1.565,1.565,0,0,0-1.563-1.563h-2.927a1.565,1.565,0,0,0-1.563,1.563v.1A.66.66,0,0,1,213.925,190.463Z" transform="translate(-213.265 -186.819)"/>
          </g>
          <g id="Group_1156638" data-name="Group 1156638" transform="translate(53.779 14.781)">
            <g id="Group_1156637" data-name="Group 1156637">
              <g id="Group_1156636" data-name="Group 1156636">
                <path id="Path_990853" data-name="Path 990853" d="M211.8,58.336a2.929,2.929,0,0,1-2.349-2.3c0-.053-.106-.053-.106,0a2.929,2.929,0,0,1-2.349,2.3c-.053,0-.053.079,0,.106a2.929,2.929,0,0,1,2.349,2.3c0,.053.106.053.106,0a2.929,2.929,0,0,1,2.349-2.3C211.851,58.415,211.851,58.336,211.8,58.336Z" transform="translate(-206.955 -56)" fill="#fc657e"/>
              </g>
            </g>
          </g>
          <g id="Group_1156639" data-name="Group 1156639" transform="translate(22.938 46.324)">
            <path id="Path_990854" data-name="Path 990854" d="M90.772,181.251a.66.66,0,0,1-.571-.99l2.557-4.429a.66.66,0,0,1,1.143.66l-2.557,4.429A.659.659,0,0,1,90.772,181.251Z" transform="translate(-90.113 -175.502)"/>
          </g>
          <g id="Group_1156640" data-name="Group 1156640" transform="translate(11.205 50.51)">
            <circle id="Ellipse_11761" data-name="Ellipse 11761" cx="8.2" cy="8.2" r="8.2" fill="#87d147"/>
          </g>
          <g id="Group_1156641" data-name="Group 1156641" transform="translate(16.743 53.397)">
            <circle id="Ellipse_11762" data-name="Ellipse 11762" cx="2.663" cy="2.663" r="2.663" fill="#f9d0b4"/>
          </g>
          <g id="Group_1156642" data-name="Group 1156642" transform="translate(13.836 61.032)">
            <path id="Path_990855" data-name="Path 990855" d="M63.408,231.225H58.986a3.369,3.369,0,0,0-3.359,3.359v.337a8.2,8.2,0,0,0,11.14,0v-.337a3.369,3.369,0,0,0-3.359-3.359Z" transform="translate(-55.627 -231.225)" fill="#5290db"/>
          </g>
          <g id="Group_1156643" data-name="Group 1156643" transform="translate(10.546 49.85)">
            <path id="Path_990856" data-name="Path 990856" d="M52.022,206.585a8.86,8.86,0,1,1,8.86-8.86A8.87,8.87,0,0,1,52.022,206.585Zm0-16.4a7.541,7.541,0,1,0,7.54,7.541A7.549,7.549,0,0,0,52.022,190.184Z" transform="translate(-43.162 -188.864)"/>
          </g>
          <g id="Group_1156644" data-name="Group 1156644" transform="translate(16.083 52.737)">
            <path id="Path_990857" data-name="Path 990857" d="M67.464,206.446a3.323,3.323,0,1,1,3.323-3.323A3.327,3.327,0,0,1,67.464,206.446Zm0-5.326a2,2,0,1,0,2,2A2.005,2.005,0,0,0,67.464,201.12Z" transform="translate(-64.141 -199.8)"/>
          </g>
          <g id="Group_1156645" data-name="Group 1156645" transform="translate(13.176 60.371)">
            <path id="Path_990858" data-name="Path 990858" d="M64.927,233.6a.66.66,0,0,1-.66-.66v-.2a2.7,2.7,0,0,0-2.7-2.7H57.146a2.7,2.7,0,0,0-2.7,2.7v.177a.66.66,0,0,1-1.32,0v-.177a4.023,4.023,0,0,1,4.019-4.019h4.422a4.023,4.023,0,0,1,4.019,4.019v.2A.66.66,0,0,1,64.927,233.6Z" transform="translate(-53.127 -228.724)"/>
          </g>
          <g id="Group_1156648" data-name="Group 1156648" transform="translate(31.251 53.696)">
            <g id="Group_1156647" data-name="Group 1156647">
              <g id="Group_1156646" data-name="Group 1156646">
                <path id="Path_990859" data-name="Path 990859" d="M124.015,204.593a1.456,1.456,0,0,1-1.168-1.142c0-.026-.053-.026-.053,0a1.457,1.457,0,0,1-1.168,1.142c-.026,0-.026.039,0,.053a1.456,1.456,0,0,1,1.168,1.142c0,.026.053.026.053,0a1.457,1.457,0,0,1,1.168-1.142C124.041,204.633,124.041,204.593,124.015,204.593Z" transform="translate(-121.607 -203.432)" fill="#f5c84c"/>
              </g>
            </g>
          </g>
          <g id="Group_1156651" data-name="Group 1156651" transform="translate(9.95 40.384)">
            <g id="Group_1156650" data-name="Group 1156650">
              <g id="Group_1156649" data-name="Group 1156649">
                <circle id="Ellipse_11763" data-name="Ellipse 11763" cx="0.897" cy="0.897" r="0.897" fill="#87d147"/>
              </g>
            </g>
          </g>
          <g id="Group_1156654" data-name="Group 1156654" transform="translate(51.39 21.644)">
            <g id="Group_1156653" data-name="Group 1156653">
              <g id="Group_1156652" data-name="Group 1156652">
                <circle id="Ellipse_11764" data-name="Ellipse 11764" cx="0.897" cy="0.897" r="0.897" fill="#f5c84c"/>
              </g>
            </g>
          </g>
          <g id="Group_1156657" data-name="Group 1156657" transform="translate(5.753 46.191)">
            <g id="Group_1156656" data-name="Group 1156656">
              <g id="Group_1156655" data-name="Group 1156655">
                <path id="Path_990860" data-name="Path 990860" d="M28.753,176.452h-.607v-.607A.85.85,0,0,0,27.3,175a.834.834,0,0,0-.845.845v.607H25.85a.85.85,0,0,0-.845.845.834.834,0,0,0,.845.845h.607v.607a.85.85,0,0,0,.845.845.834.834,0,0,0,.845-.845v-.607h.607a.85.85,0,0,0,.845-.845A.834.834,0,0,0,28.753,176.452Z" transform="translate(-25.005 -175)" fill="#70d6f9"/>
              </g>
            </g>
          </g>
          <g id="Group_1156658" data-name="Group 1156658" transform="translate(18.344 18.344)">
            <path id="Path_990861" data-name="Path 990861" d="M88.15,100.382a15.441,15.441,0,1,1,15.441-15.441A15.459,15.459,0,0,1,88.15,100.382Zm0-29.562a14.121,14.121,0,1,0,14.121,14.121A14.137,14.137,0,0,0,88.15,70.82Z" transform="translate(-72.709 -69.5)"/>
          </g>
        </g>
      </g>
    </g>
  </g>
</svg>
