<svg xmlns="http://www.w3.org/2000/svg" xmlns:xlink="http://www.w3.org/1999/xlink" width="110" height="110" viewBox="0 0 110 110">
  <defs>
    <filter id="Path_982547" x="0" y="0" width="110" height="110" filterUnits="userSpaceOnUse">
      <feOffset dy="3" input="SourceAlpha"/>
      <feGaussianBlur stdDeviation="3" result="blur"/>
      <feFlood flood-opacity="0.161"/>
      <feComposite operator="in" in2="blur"/>
      <feComposite in="SourceGraphic"/>
    </filter>
  </defs>
  <g id="Group_1157495" data-name="Group 1157495" transform="translate(-1165.187 -2269.224)">
    <g id="Group_1157234" data-name="Group 1157234" transform="translate(1174.187 2275.224)">
      <g id="Group_1155734" data-name="Group 1155734">
        <g id="Group_1154704" data-name="Group 1154704">
          <g id="Group_1150790" data-name="Group 1150790">
            <g id="Group_1154214" data-name="Group 1154214">
              <g id="Group_1152583" data-name="Group 1152583">
                <g id="Group_1146973" data-name="Group 1146973" transform="translate(0 0)">
                  <g id="Group_1146954" data-name="Group 1146954">
                    <g transform="matrix(1, 0, 0, 1, -9, -6)" filter="url(#Path_982547)">
                      <g id="Path_982547-2" data-name="Path 982547" transform="translate(9 6)" fill="#fcf3f0">
                        <path d="M 46 90.49987030029297 C 39.99187850952148 90.49987030029297 34.16426849365234 89.32350921630859 28.67905426025391 87.00345611572266 C 23.38019943237305 84.76224517822266 18.62104034423828 81.55341339111328 14.53374671936035 77.46613311767578 C 10.44646644592285 73.37885284423828 7.237639904022217 68.61969757080078 4.996413230895996 63.32085418701172 C 2.676359891891479 57.83565521240234 1.5 52.008056640625 1.5 45.99993515014648 C 1.5 39.99181365966797 2.676359891891479 34.16421508789062 4.996413230895996 28.67901420593262 C 7.237639904022217 23.38017463684082 10.44646644592285 18.62101554870605 14.53374671936035 14.53373527526855 C 18.62104034423828 10.44645500183105 23.38019943237305 7.23762845993042 28.67905426025391 4.996415138244629 C 34.16426849365234 2.676361799240112 39.99187850952148 1.500001788139343 46 1.500001788139343 C 52.00812149047852 1.500001788139343 57.83573150634766 2.676361799240112 63.32094573974609 4.996415138244629 C 68.61979675292969 7.23762845993042 73.37895965576172 10.44645500183105 77.46625518798828 14.53373527526855 C 81.55353546142578 18.62101554870605 84.76235961914062 23.38017463684082 87.00358581542969 28.67901420593262 C 89.32363891601562 34.16421508789062 90.5 39.99181365966797 90.5 45.99993515014648 C 90.5 52.008056640625 89.32363891601562 57.83565521240234 87.00358581542969 63.32085418701172 C 84.76235961914062 68.61969757080078 81.55353546142578 73.37885284423828 77.46625518798828 77.46613311767578 C 73.37895965576172 81.55341339111328 68.61979675292969 84.76224517822266 63.32094573974609 87.00345611572266 C 57.83573150634766 89.32350921630859 52.00812149047852 90.49987030029297 46 90.49987030029297 Z" stroke="none"/>
                        <path d="M 46 2.999992370605469 C 40.1937141418457 2.999992370605469 34.56269836425781 4.136489868164062 29.26337051391602 6.377906799316406 C 24.14332580566406 8.543502807617188 19.54441070556641 11.64437866210938 15.59439849853516 15.59437561035156 C 11.64440155029297 19.54439544677734 8.54351806640625 24.14329528808594 6.377914428710938 29.26333618164062 C 4.136497497558594 34.56264877319336 3 40.19366455078125 3 45.99993515014648 C 3 51.80620574951172 4.136497497558594 57.43720626831055 6.377914428710938 62.73651885986328 C 8.54351806640625 67.8565673828125 11.64440155029297 72.45545959472656 15.59439849853516 76.40547943115234 C 19.54441070556641 80.35547637939453 24.14332580566406 83.45635223388672 29.26337051391602 85.6219482421875 C 34.56269836425781 87.86336517333984 40.1937141418457 88.99986267089844 46 88.99986267089844 C 51.8062858581543 88.99986267089844 57.43730163574219 87.86336517333984 62.73661422729492 85.6219482421875 C 67.85667419433594 83.45635223388672 72.45557403564453 80.35547637939453 76.40558624267578 76.40547943115234 C 80.35559844970703 72.45545959472656 83.45647430419922 67.8565673828125 85.6220703125 62.73651885986328 C 87.86350250244141 57.43720626831055 89 51.80620574951172 89 45.99993515014648 C 89 40.19366455078125 87.86350250244141 34.56264877319336 85.6220703125 29.26333618164062 C 83.45647430419922 24.14329528808594 80.35559844970703 19.54439544677734 76.40558624267578 15.59437561035156 C 72.45557403564453 11.64437866210938 67.85667419433594 8.543502807617188 62.73661422729492 6.377906799316406 C 57.43730163574219 4.136489868164062 51.8062858581543 2.999992370605469 46 2.999992370605469 M 46 -7.62939453125e-06 C 71.40509033203125 -7.62939453125e-06 92 20.59486389160156 92 45.99993515014648 C 92 71.40499114990234 71.40509033203125 91.99986267089844 46 91.99986267089844 C 20.59490203857422 91.99986267089844 0 71.40499114990234 0 45.99993515014648 C 0 20.59486389160156 20.59490203857422 -7.62939453125e-06 46 -7.62939453125e-06 Z" stroke="none" fill="#e89076"/>
                      </g>
                    </g>
                  </g>
                </g>
              </g>
            </g>
          </g>
        </g>
      </g>
      <g id="controlar" transform="translate(15 12.812)">
        <g id="Group_1157013" data-name="Group 1157013" transform="translate(1 1)">
          <g id="Group_1156988" data-name="Group 1156988" transform="translate(4 53)">
            <path id="Path_991059" data-name="Path 991059" d="M6,55H18v7H6Z" transform="translate(-6 -55)" fill="#969faa"/>
          </g>
          <g id="Group_1156989" data-name="Group 1156989" transform="translate(44 53)">
            <path id="Path_991060" data-name="Path 991060" d="M46,55H58v7H46Z" transform="translate(-46 -55)" fill="#969faa"/>
          </g>
          <g id="Group_1156990" data-name="Group 1156990" transform="translate(4 44)">
            <path id="Path_991061" data-name="Path 991061" d="M18,51v4H6V46a5,5,0,0,0,5,5Z" transform="translate(-6 -46)" fill="#b4dd7f"/>
          </g>
          <g id="Group_1156991" data-name="Group 1156991" transform="translate(9.28 33.05)">
            <path id="Path_991062" data-name="Path 991062" d="M11.28,35.05a5.425,5.425,0,0,1,.72.19,8.023,8.023,0,0,1,5.67,6.81L18,45H12V37A3,3,0,0,0,11.28,35.05Z" transform="translate(-11.28 -35.05)" fill="#b4dd7f"/>
          </g>
          <g id="Group_1156992" data-name="Group 1156992" transform="translate(4 32.003)">
            <path id="Path_991063" data-name="Path 991063" d="M8.4,34.06A3,3,0,0,1,12,37v5H6V37.12a3.116,3.116,0,0,1,2-2.95A2.619,2.619,0,0,1,8.4,34.06Z" transform="translate(-6 -34.003)" fill="#b4dd7f"/>
          </g>
          <g id="Group_1156993" data-name="Group 1156993" transform="translate(44 44)">
            <path id="Path_991064" data-name="Path 991064" d="M58,46v9H46V51h7A5,5,0,0,0,58,46Z" transform="translate(-46 -46)" fill="#ff826e"/>
          </g>
          <g id="Group_1156994" data-name="Group 1156994" transform="translate(44 33.05)">
            <path id="Path_991065" data-name="Path 991065" d="M52,35.24a5.424,5.424,0,0,1,.72-.19A3,3,0,0,0,52,37v8H46l.33-2.95A8.023,8.023,0,0,1,52,35.24Z" transform="translate(-46 -35.05)" fill="#ff826e"/>
          </g>
          <g id="Group_1156995" data-name="Group 1156995" transform="translate(50 32.003)">
            <path id="Path_991066" data-name="Path 991066" d="M56,34.17a3.116,3.116,0,0,1,2,2.95V42H52V37a3,3,0,0,1,3.6-2.94,2.619,2.619,0,0,1,.4.11Z" transform="translate(-52 -34.003)" fill="#ff826e"/>
          </g>
          <g id="Group_1156996" data-name="Group 1156996" transform="translate(19 22.21)">
            <path id="Path_991067" data-name="Path 991067" d="M35,31l.85-6.79,1.75.44a7.058,7.058,0,0,1,2.55,1.21,7.276,7.276,0,0,1,2.1,2.52A7.054,7.054,0,0,1,43,31.56V39.2l-3.22-3.22-2.29,1.36a11.91,11.91,0,0,0-1.84-.77L35,34H29l-.65,2.57a11.91,11.91,0,0,0-1.84.77l-2.29-1.36L21,39.2V31.56a7.147,7.147,0,0,1,2.85-5.7,7.059,7.059,0,0,1,2.55-1.21l1.75-.44L29,31l3-4Z" transform="translate(-21 -24.21)" fill="#75b1f2"/>
          </g>
          <g id="Group_1156997" data-name="Group 1156997" transform="translate(30 22)">
            <path id="Path_991068" data-name="Path 991068" d="M35.85,24.21,35,31l-3-4,3-3Z" transform="translate(-32 -24)" fill="#5d9cec"/>
          </g>
          <g id="Group_1156998" data-name="Group 1156998" transform="translate(26.15 22)">
            <path id="Path_991069" data-name="Path 991069" d="M32,27l-3,4-.85-6.79L29,24Z" transform="translate(-28.15 -24)" fill="#5d9cec"/>
          </g>
          <g id="Group_1156999" data-name="Group 1156999" transform="translate(17.98 48.63)">
            <path id="Path_991070" data-name="Path 991070" d="M43.43,51.65a11.91,11.91,0,0,1-.77,1.84l1.36,2.29-4.24,4.24-2.29-1.36a11.91,11.91,0,0,1-1.84.77L35,62H29l-.65-2.57a11.91,11.91,0,0,1-1.84-.77l-2.29,1.36-4.24-4.24,1.36-2.29a11.91,11.91,0,0,1-.77-1.84l.04-.65H23a2.939,2.939,0,0,0,1.44-.37,8.007,8.007,0,0,0,15.12,0A2.939,2.939,0,0,0,41,51h2.64Z" transform="translate(-19.98 -50.63)" fill="#ffc729"/>
          </g>
          <g id="Group_1157000" data-name="Group 1157000" transform="translate(17.98 32)">
            <path id="Path_991071" data-name="Path 991071" d="M42.66,42.51a11.91,11.91,0,0,1,.77,1.84l.24.65H41a2.939,2.939,0,0,0-1.44.37,8.007,8.007,0,0,0-15.12,0A2.939,2.939,0,0,0,23,45H20.56l.01-.65a11.909,11.909,0,0,1,.77-1.84l-1.36-2.29L21,39.2l3.22-3.22,2.29,1.36a11.91,11.91,0,0,1,1.84-.77L29,34h6l.65,2.57a11.91,11.91,0,0,1,1.84.77l2.29-1.36L43,39.2l1.02,1.02Z" transform="translate(-19.98 -34)" fill="#ffc729"/>
          </g>
          <g id="Group_1157001" data-name="Group 1157001" transform="translate(22.44 38)">
            <path id="Path_991072" data-name="Path 991072" d="M36,48a4,4,0,1,0-4,4A4,4,0,0,0,36,48Zm2,0a2.989,2.989,0,0,0,1.56,2.63,8.007,8.007,0,0,1-15.12,0,3,3,0,0,0,.68-4.75,3.1,3.1,0,0,0-.68-.51,8.007,8.007,0,0,1,15.12,0,3.1,3.1,0,0,0-.68.51A2.993,2.993,0,0,0,38,48Z" transform="translate(-24.44 -40)" fill="#fcd770"/>
          </g>
          <g id="Group_1157002" data-name="Group 1157002" transform="translate(0 13)">
            <path id="Path_991073" data-name="Path 991073" d="M16,15a2.006,2.006,0,0,1,2,2,4.025,4.025,0,0,1-1.17,2.83A4.066,4.066,0,0,1,14,21H12.46a3,3,0,0,0-2.94,2.41L8,31l-.44-.15A8.133,8.133,0,0,1,10.14,15Z" transform="translate(-2 -15)" fill="#b27946"/>
          </g>
          <g id="Group_1157003" data-name="Group 1157003" transform="translate(44 13)">
            <path id="Path_991074" data-name="Path 991074" d="M59.12,42.4,58,43.33V37.12a3.116,3.116,0,0,0-2-2.95V31l-1.52-7.59A3,3,0,0,0,51.54,21H50a4.007,4.007,0,0,1-4-4,2.015,2.015,0,0,1,2-2h6a8,8,0,0,1,8,8V36.25A7.982,7.982,0,0,1,59.12,42.4Z" transform="translate(-46 -15)" fill="#b27946"/>
          </g>
          <g id="Group_1157004" data-name="Group 1157004" transform="translate(21)">
            <path id="Path_991075" data-name="Path 991075" d="M41,10v.23a5.583,5.583,0,0,1-.93,3.08A1.97,1.97,0,0,0,39,13H37v-.01h-.17a6.835,6.835,0,0,1-4.83-2,6.835,6.835,0,0,1-4.83,2H27V13H25a1.97,1.97,0,0,0-1.07.31A5.583,5.583,0,0,1,23,10.23a7.788,7.788,0,0,1,2.28-5.51l.63-.63A7.138,7.138,0,0,1,37.08,5.47L38,7a3,3,0,0,1,3,3Z" transform="translate(-23 -2)" fill="#656d78"/>
          </g>
          <g id="Group_1157005" data-name="Group 1157005" transform="translate(35 11)">
            <path id="Path_991076" data-name="Path 991076" d="M40.41,13.59A1.955,1.955,0,0,1,41,15a2.006,2.006,0,0,1-2,2H37V13h2a1.97,1.97,0,0,1,1.07.31A1.809,1.809,0,0,1,40.41,13.59Z" transform="translate(-37 -13)" fill="#f0d0b4"/>
          </g>
          <g id="Group_1157006" data-name="Group 1157006" transform="translate(25 8.99)">
            <path id="Path_991077" data-name="Path 991077" d="M37,13v4a5,5,0,0,1-10,0V12.99h.17a6.835,6.835,0,0,0,4.83-2,6.835,6.835,0,0,0,4.83,2H37Z" transform="translate(-27 -10.99)" fill="#f0d0b4"/>
          </g>
          <g id="Group_1157007" data-name="Group 1157007" transform="translate(27 19.41)">
            <path id="Path_991078" data-name="Path 991078" d="M29.65,21.41a5.051,5.051,0,0,0,4.7,0L35,24l-3,3-3-3Z" transform="translate(-29 -21.41)" fill="#f0d0b4"/>
          </g>
          <g id="Group_1157008" data-name="Group 1157008" transform="translate(21 11)">
            <path id="Path_991079" data-name="Path 991079" d="M27,16.99V17H25a2.015,2.015,0,0,1-2-2,2,2,0,0,1,.93-1.69A1.97,1.97,0,0,1,25,13h2Z" transform="translate(-23 -13)" fill="#f0d0b4"/>
          </g>
          <g id="Group_1157009" data-name="Group 1157009" transform="translate(6 18.37)">
            <path id="Path_991080" data-name="Path 991080" d="M12,32v3.24a5.424,5.424,0,0,0-.72-.19,3.01,3.01,0,0,0-2.88-.99,2.619,2.619,0,0,0-.4.11V31l1.52-7.59A3,3,0,0,1,12.46,21H14a3.956,3.956,0,0,0,2.15-.63L18,25l-1,1v2a4,4,0,0,1-4,4Z" transform="translate(-8 -20.37)" fill="#f0d0b4"/>
          </g>
          <g id="Group_1157010" data-name="Group 1157010" transform="translate(4 40)">
            <path id="Path_991081" data-name="Path 991081" d="M12,42v3H23a2.939,2.939,0,0,1,1.44.37,3.1,3.1,0,0,1,.68.51,3,3,0,0,1-.68,4.75A2.939,2.939,0,0,1,23,51H11a5,5,0,0,1-5-5V42Z" transform="translate(-6 -42)" fill="#f0d0b4"/>
          </g>
          <g id="Group_1157011" data-name="Group 1157011" transform="translate(36 40)">
            <path id="Path_991082" data-name="Path 991082" d="M58,45v1a5,5,0,0,1-5,5H41a2.939,2.939,0,0,1-1.44-.37,3,3,0,0,1-.68-4.75,3.1,3.1,0,0,1,.68-.51A2.939,2.939,0,0,1,41,45H52V42h6v3Z" transform="translate(-38 -42)" fill="#f0d0b4"/>
          </g>
          <g id="Group_1157012" data-name="Group 1157012" transform="translate(44 18.37)">
            <path id="Path_991083" data-name="Path 991083" d="M55.6,34.06a3.01,3.01,0,0,0-2.88.99,5.425,5.425,0,0,0-.72.19V32H51a4,4,0,0,1-4-4V26l-1-1,1.85-4.63A3.956,3.956,0,0,0,50,21h1.54a3,3,0,0,1,2.94,2.41L56,31v3.17a2.619,2.619,0,0,0-.4-.11Z" transform="translate(-46 -20.37)" fill="#f0d0b4"/>
          </g>
        </g>
        <g id="Group_1157014" data-name="Group 1157014">
          <path id="Path_991084" data-name="Path 991084" d="M32,53a5,5,0,1,0-5-5A5.006,5.006,0,0,0,32,53Zm0-8a3,3,0,1,1-3,3A3,3,0,0,1,32,45Z" transform="translate(-1 -1)"/>
          <path id="Path_991085" data-name="Path 991085" d="M54,14H48a3,3,0,0,0-3,3,4.97,4.97,0,0,0,1.649,3.685l-1.823,4.556L46,26.414V28a5.006,5.006,0,0,0,5,5v1.525a9.008,9.008,0,0,0-5.666,7.411L45.1,44h-.739a12.648,12.648,0,0,0-.568-1.446l1.479-2.489L44,38.787V31.561a8.161,8.161,0,0,0-3.249-6.5,8.077,8.077,0,0,0-2.9-1.382l-2.022-.506L35.5,21.859A6,6,0,0,0,37.909,18H39a3,3,0,0,0,3-3,2.97,2.97,0,0,0-.679-1.877A6.527,6.527,0,0,0,42,10.231V10a4.005,4.005,0,0,0-3.407-3.956l-.655-1.092A8.184,8.184,0,0,0,30.957,1,8.086,8.086,0,0,0,25.2,3.384l-.625.625A8.738,8.738,0,0,0,22,10.231a6.528,6.528,0,0,0,.679,2.892A2.968,2.968,0,0,0,22,15a3,3,0,0,0,3,3h1.091A6,6,0,0,0,28.5,21.86l-.329,1.316-2.022.506a8.057,8.057,0,0,0-2.9,1.382,8.159,8.159,0,0,0-3.25,6.5v7.226l-1.277,1.277L20.2,42.554A12.648,12.648,0,0,0,19.634,44h-.739l-.229-2.064A9.008,9.008,0,0,0,13,34.525V33a5.006,5.006,0,0,0,5-5V26.414l1.174-1.173-1.823-4.556A4.97,4.97,0,0,0,19,17a3,3,0,0,0-3-3H10.136A9.132,9.132,0,0,0,7,31.71v1.835a4.139,4.139,0,0,0-2,3.574V63H19V56.213l5.064,5.064L26.553,59.8c.317.147.638.281.956.4l.714,2.8h7.555l.713-2.8c.318-.119.639-.253.956-.4l2.489,1.479L45,56.213V63H59V43.8l.761-.635A8.975,8.975,0,0,0,63,36.253V23a9.01,9.01,0,0,0-9-9ZM48,28V25.586l-.826-.827,1.219-3.048A4.929,4.929,0,0,0,50,22h1.541A2.006,2.006,0,0,1,53.5,23.608L55,31.1v1.912a3.979,3.979,0,0,0-2,.548V31H51a3,3,0,0,1-3-3Zm-.678,14.156a7,7,0,0,1,3.709-5.436c-.007.094-.031.185-.031.28v7H47.117ZM36.7,25.456l.661.165a6.073,6.073,0,0,1,2.188,1.042,6.153,6.153,0,0,1,2.45,4.9v5.226l-2.064-2.064L37.447,36.2c-.317-.147-.638-.281-.956-.4L35.777,33h-.019Zm-4.7.13-1.893-1.893.235-.939a5.894,5.894,0,0,0,3.316,0l.235.939Zm2.646.182-.332,2.652-.994-1.326ZM30.68,27.094l-.994,1.326-.332-2.652ZM32,28.667,35.25,33h-6.5ZM39,16H38V14h1a1,1,0,0,1,0,2ZM26,16H25a1,1,0,0,1,0-2h1Zm1.172-4.007H26V12H25a2.991,2.991,0,0,0-.61.063A4.557,4.557,0,0,1,24,10.231a6.754,6.754,0,0,1,1.991-4.808l.625-.625A6.1,6.1,0,0,1,30.957,3a6.173,6.173,0,0,1,5.266,2.98L37.434,8H38a2,2,0,0,1,2,2v.231a4.548,4.548,0,0,1-.391,1.832A2.981,2.981,0,0,0,39,12H38v-.007H36.828a5.787,5.787,0,0,1-4.121-1.707L32,9.578l-.707.708a5.793,5.793,0,0,1-4.121,1.707Zm.828,5V13.95a7.745,7.745,0,0,0,4-1.622,7.754,7.754,0,0,0,4,1.622v3.043a4,4,0,1,1-8,0ZM22,31.562a6.151,6.151,0,0,1,2.45-4.9,6.082,6.082,0,0,1,2.188-1.042l.661-.165L28.242,33h-.019l-.713,2.8c-.318.119-.639.253-.956.4l-2.489-1.479L22,36.787Zm-.764,8.817,3.143-3.143,2.095,1.246.493-.255a11.016,11.016,0,0,1,1.685-.705l.528-.168.6-2.354h4.445l.6,2.354.528.168a11.016,11.016,0,0,1,1.685.705l.493.255,2.1-1.246,3.143,3.143-1.246,2.1.255.493c.175.339.325.683.464,1.033H41a3.956,3.956,0,0,0-.89.108,8.992,8.992,0,0,0-16.22,0A3.956,3.956,0,0,0,23,44H21.764a10.93,10.93,0,0,1,.464-1.033l.255-.493Zm4.437,4.667a6.97,6.97,0,0,1,12.654,0,3.953,3.953,0,0,0,0,5.909,6.97,6.97,0,0,1-12.654,0,3.951,3.951,0,0,0,0-5.908Zm-8.995-2.89.2,1.844H13V37c0-.1-.024-.186-.031-.28a7,7,0,0,1,3.709,5.436ZM16,25.586V28a3,3,0,0,1-3,3H11v2.56a3.981,3.981,0,0,0-2-.548V31.1l1.5-7.493A2.006,2.006,0,0,1,12.459,22H14a4.929,4.929,0,0,0,1.607-.289l1.219,3.048ZM3,23.136A7.144,7.144,0,0,1,10.136,16H16a1,1,0,0,1,1,1,3,3,0,0,1-3,3H12.459a4.011,4.011,0,0,0-3.922,3.215L7.248,29.661A7.125,7.125,0,0,1,3,23.136ZM7,37.118A2.091,2.091,0,0,1,8.593,35.04,2.207,2.207,0,0,1,9,35a1.971,1.971,0,0,1,1.267.456A2,2,0,0,1,11,37v4H7ZM7,45V43h4v1.586L9.293,46.293l1.414,1.414L12.414,46H23a2,2,0,1,1,0,4H11a4,4,0,0,1-4-4ZM17,61H14v-.586a2.4,2.4,0,0,1,.707-1.707l-1.414-1.414A4.384,4.384,0,0,0,12,60.414V61H7V56H17Zm0-7H7V50.46A5.969,5.969,0,0,0,11,52h6Zm2,1.469V52h.635a12.648,12.648,0,0,0,.568,1.446Zm20.621,3.3-2.1-1.246-.493.255a11.016,11.016,0,0,1-1.685.705l-.528.168L34.223,61H29.778l-.6-2.354-.528-.168a11.016,11.016,0,0,1-1.685-.705l-.493-.255-2.095,1.246-3.143-3.143,1.246-2.1-.255-.493A11.178,11.178,0,0,1,21.764,52H23a3.956,3.956,0,0,0,.89-.108,8.992,8.992,0,0,0,16.22,0A3.963,3.963,0,0,0,41,52h1.237c-.137.345-.287.69-.464,1.033l-.255.493,1.246,2.1ZM43.8,53.446A12.877,12.877,0,0,0,44.366,52H45v3.469ZM57,61H52v-.586a4.384,4.384,0,0,0-1.293-3.121l-1.414,1.414A2.4,2.4,0,0,1,50,60.414V61H47V56H57Zm0-7H47V52h6a5.969,5.969,0,0,0,4-1.54Zm0-9v1a4,4,0,0,1-4,4H41a2,2,0,0,1,0-4H51.586l1.707,1.707,1.414-1.414L53,44.586V43h4Zm0-4H53V37a2,2,0,0,1,2.407-1.96A2.091,2.091,0,0,1,57,37.118Zm4-4.747a6.973,6.973,0,0,1-2,4.894V37.118a4.14,4.14,0,0,0-2-3.574V31l-1.537-7.784A4.011,4.011,0,0,0,51.541,20H50a3,3,0,0,1-3-3,1,1,0,0,1,1-1h6a7.008,7.008,0,0,1,7,7Z" transform="translate(-1 -1)"/>
        </g>
      </g>
    </g>
  </g>
</svg>
