<svg xmlns="http://www.w3.org/2000/svg" xmlns:xlink="http://www.w3.org/1999/xlink" width="108" height="108" viewBox="0 0 108 108">
  <defs>
    <filter id="Path_982547" x="0" y="0" width="108" height="108" filterUnits="userSpaceOnUse">
      <feOffset dy="3" input="SourceAlpha"/>
      <feGaussianBlur stdDeviation="3" result="blur"/>
      <feFlood flood-opacity="0.161"/>
      <feComposite operator="in" in2="blur"/>
      <feComposite in="SourceGraphic"/>
    </filter>
  </defs>
  <g id="Group_1157507" data-name="Group 1157507" transform="translate(-171 -5565.637)">
    <g id="Group_1157032" data-name="Group 1157032" transform="translate(0 2587.637)">
      <g id="Group_1155827" data-name="Group 1155827" transform="translate(180 2984)">
        <g id="Group_1153134" data-name="Group 1153134">
          <g id="Group_1149598" data-name="Group 1149598">
            <g id="Group_1148770" data-name="Group 1148770">
              <g id="Group_1146954" data-name="Group 1146954">
                <g transform="matrix(1, 0, 0, 1, -9, -6)" filter="url(#Path_982547)">
                  <g id="Path_982547-2" data-name="Path 982547" transform="translate(9 6)" fill="#fdf6ea">
                    <path d="M 45 88.5 C 39.12687683105469 88.5 33.43022537231445 87.35007476806641 28.06830024719238 85.08217620849609 C 22.88852500915527 82.89131164550781 18.23629951477051 79.75458526611328 14.2408504486084 75.75914764404297 C 10.24541282653809 71.76370239257812 7.108687400817871 67.11147308349609 4.917825222015381 61.93170166015625 C 2.649924993515015 56.56977462768555 1.5 50.87312316894531 1.5 45 C 1.5 39.12687683105469 2.649924993515015 33.43022537231445 4.917825222015381 28.06830024719238 C 7.108687400817871 22.88852500915527 10.24541282653809 18.23629951477051 14.2408504486084 14.2408504486084 C 18.23629951477051 10.24541282653809 22.88852500915527 7.108687400817871 28.06830024719238 4.917825222015381 C 33.43022537231445 2.649924993515015 39.12687683105469 1.5 45 1.5 C 50.87312316894531 1.5 56.56977462768555 2.649924993515015 61.93170166015625 4.917825222015381 C 67.11147308349609 7.108687400817871 71.76370239257812 10.24541282653809 75.75914764404297 14.2408504486084 C 79.75458526611328 18.23629951477051 82.89131164550781 22.88852500915527 85.08217620849609 28.06830024719238 C 87.35007476806641 33.43022537231445 88.5 39.12687683105469 88.5 45 C 88.5 50.87312316894531 87.35007476806641 56.56977462768555 85.08217620849609 61.93170166015625 C 82.89131164550781 67.11147308349609 79.75458526611328 71.76370239257812 75.75914764404297 75.75914764404297 C 71.76370239257812 79.75458526611328 67.11147308349609 82.89131164550781 61.93170166015625 85.08217620849609 C 56.56977462768555 87.35007476806641 50.87312316894531 88.5 45 88.5 Z" stroke="none"/>
                    <path d="M 45 3 C 39.32871246337891 3 33.82865524291992 4.110054016113281 28.65262985229492 6.299339294433594 C 23.65165710449219 8.414573669433594 19.15968322753906 11.44334411621094 15.301513671875 15.301513671875 C 11.44334411621094 19.15968322753906 8.414573669433594 23.65165710449219 6.299339294433594 28.65262985229492 C 4.110054016113281 33.82865524291992 3 39.32871246337891 3 45 C 3 50.67128753662109 4.110054016113281 56.17134475708008 6.299339294433594 61.34737396240234 C 8.414573669433594 66.34834289550781 11.44334411621094 70.84031677246094 15.301513671875 74.698486328125 C 19.15968322753906 78.55665588378906 23.65165710449219 81.58542633056641 28.65262985229492 83.70066070556641 C 33.82865524291992 85.88994598388672 39.32871246337891 87 45 87 C 50.67128753662109 87 56.17134475708008 85.88994598388672 61.34737396240234 83.70066070556641 C 66.34834289550781 81.58542633056641 70.84031677246094 78.55665588378906 74.698486328125 74.698486328125 C 78.55665588378906 70.84031677246094 81.58542633056641 66.34834289550781 83.70066070556641 61.34737396240234 C 85.88994598388672 56.17134475708008 87 50.67128753662109 87 45 C 87 39.32871246337891 85.88994598388672 33.82865524291992 83.70066070556641 28.65262985229492 C 81.58542633056641 23.65165710449219 78.55665588378906 19.15968322753906 74.698486328125 15.301513671875 C 70.84031677246094 11.44334411621094 66.34834289550781 8.414573669433594 61.34737396240234 6.299339294433594 C 56.17134475708008 4.110054016113281 50.67128753662109 3 45 3 M 45 0 C 69.85281372070312 0 90 20.14718627929688 90 45 C 90 69.85281372070312 69.85281372070312 90 45 90 C 20.14718627929688 90 0 69.85281372070312 0 45 C 0 20.14718627929688 20.14718627929688 0 45 0 Z" stroke="none" fill="#edae3b"/>
                  </g>
                </g>
              </g>
            </g>
          </g>
        </g>
      </g>
      <g id="bombilla_4_" data-name="bombilla (4)" transform="translate(194 2998)">
        <path id="Path_989863" data-name="Path 989863" d="M232.342,459.757l-3.7-1.851-3.7,1.851a3.7,3.7,0,0,0,7.4,0Z" transform="translate(-198.131 -403.335)" fill="#8795de"/>
        <path id="Path_989864" data-name="Path 989864" d="M224.938,459.757a3.685,3.685,0,0,0,.46,1.788h6.485a3.685,3.685,0,0,0,.46-1.788l-3.7-1.851Z" transform="translate(-198.131 -403.335)" fill="#6c7fd8"/>
        <path id="Path_989865" data-name="Path 989865" d="M218.724,405.036h-7.53a1.788,1.788,0,0,1-1.788-1.788v-5.616l5.553-1.851,5.553,1.851v5.616A1.788,1.788,0,0,1,218.724,405.036Z" transform="translate(-184.45 -348.614)" fill="#c8effe"/>
        <path id="Path_989866" data-name="Path 989866" d="M218.128,404.646v4.027a1.788,1.788,0,0,1-1.788,1.788h-6.935v.6a1.788,1.788,0,0,0,1.788,1.788h7.53a1.788,1.788,0,0,0,1.788-1.788v-5.616Z" transform="translate(-184.45 -356.422)" fill="#99e6fc"/>
        <path id="Path_989867" data-name="Path 989867" d="M119.962,28.786A21.286,21.286,0,1,0,87.03,46.606a7.2,7.2,0,0,1,3.056,4.271l.736,2.943a2.384,2.384,0,0,0,2.312,1.805h11.086a2.384,2.384,0,0,0,2.312-1.805l.736-2.943a7.1,7.1,0,0,1,3-4.235A21.268,21.268,0,0,0,119.962,28.786Z" transform="translate(-68.168 -6.606)" fill="#ffe177"/>
        <path id="Path_989868" data-name="Path 989868" d="M209.832,48.835a21.29,21.29,0,0,1-4.767,31.474,7.1,7.1,0,0,0-3,4.235l-.736,2.943a2.383,2.383,0,0,1-2.312,1.805H188.124l.234.936a2.384,2.384,0,0,0,2.312,1.805h11.086a2.384,2.384,0,0,0,2.312-1.805l.736-2.943a7.1,7.1,0,0,1,3-4.235,21.289,21.289,0,0,0,2.026-34.215Z" transform="translate(-165.704 -43.015)" fill="#ffd15b"/>
        <path id="Path_989869" data-name="Path 989869" d="M92.069,0A22.224,22.224,0,0,0,80.794,3.059.894.894,0,0,0,81.7,4.6a20.4,20.4,0,0,1,21.472,34.686,7.965,7.965,0,0,0-3.381,4.768L99.057,47a1.487,1.487,0,0,1-1.445,1.128h-.947V36.3a.3.3,0,0,1,.24-.292l3.637-.727a2.091,2.091,0,0,0,1.677-2.045V29.7a.894.894,0,0,0-1.788,0v3.535a.3.3,0,0,1-.24.292l-3.637.727A2.091,2.091,0,0,0,94.877,36.3V48.124H92.963V23.838l7.111-1.422a.3.3,0,0,1,.356.292v2.82a.894.894,0,1,0,1.788,0v-2.82a2.086,2.086,0,0,0-2.494-2.045l-7.654,1.531-7.654-1.531a2.086,2.086,0,0,0-2.494,2.045V33.234A2.091,2.091,0,0,0,83.6,35.279l3.637.727a.3.3,0,0,1,.24.292V48.125h-.947A1.488,1.488,0,0,1,85.081,47l-.736-2.943a8.077,8.077,0,0,0-3.433-4.8A20.421,20.421,0,0,1,78.392,7.03a.894.894,0,1,0-1.2-1.327,22.208,22.208,0,0,0,2.739,35.045,6.3,6.3,0,0,1,2.678,3.74l.736,2.943a3.272,3.272,0,0,0,2.276,2.356v2.041h-.957a.894.894,0,0,0,0,1.788h.957v1.02a2.686,2.686,0,0,0,1.918,2.571,4.6,4.6,0,0,0,9.058,0,2.686,2.686,0,0,0,1.918-2.571v-1.02h.957a.894.894,0,0,0,0-1.788h-.957V49.786a3.273,3.273,0,0,0,2.276-2.356l.736-2.943a6.182,6.182,0,0,1,2.622-3.7A22.182,22.182,0,0,0,92.069,0ZM87.584,34.253l-3.637-.727a.3.3,0,0,1-.24-.292V22.708a.3.3,0,0,1,.356-.292l7.111,1.422V48.124H89.261V36.3A2.091,2.091,0,0,0,87.584,34.253ZM92.069,59.23a2.813,2.813,0,0,1-2.662-1.914h5.324a2.813,2.813,0,0,1-2.662,1.914Zm1.9-5.616h2.764v1.02a.9.9,0,0,1-.894.894H88.3a.9.9,0,0,1-.894-.894v-1.02h2.383a.894.894,0,0,0,0-1.788H87.41V49.912h9.318v1.914H93.965a.894.894,0,1,0,0,1.788Z" transform="translate(-61.56)"/>
        <path id="Path_989870" data-name="Path 989870" d="M202.624,209.888l1.851.37a.894.894,0,1,0,.351-1.753l-1.851-.37a.894.894,0,0,0-.351,1.753Z" transform="translate(-177.843 -183.315)"/>
        <path id="Path_989871" data-name="Path 989871" d="M204.825,245.781l-1.851-.37a.894.894,0,1,0-.35,1.753l1.851.37a.894.894,0,1,0,.35-1.753Z" transform="translate(-177.843 -216.149)"/>
        <path id="Path_989872" data-name="Path 989872" d="M283.182,208.836a.894.894,0,0,0-1.052-.7l-1.851.37a.894.894,0,1,0,.351,1.753l1.851-.37A.894.894,0,0,0,283.182,208.836Z" transform="translate(-246.244 -183.315)"/>
        <path id="Path_989873" data-name="Path 989873" d="M282.131,245.41l-1.851.37a.894.894,0,1,0,.351,1.753l1.851-.37a.894.894,0,1,0-.351-1.753Z" transform="translate(-246.244 -216.148)"/>
        <path id="Path_989874" data-name="Path 989874" d="M470.534,178.609h-3.7a.894.894,0,1,0,0,1.788h3.7a.894.894,0,1,0,0-1.788Z" transform="translate(-410.41 -157.323)"/>
        <path id="Path_989875" data-name="Path 989875" d="M451.3,81.294a.89.89,0,0,0,.446-.12l3.206-1.851a.894.894,0,0,0-.894-1.548l-3.206,1.851a.894.894,0,0,0,.448,1.668Z" transform="translate(-396.728 -68.401)"/>
        <path id="Path_989876" data-name="Path 989876" d="M454.953,266l-3.206-1.851a.894.894,0,1,0-.894,1.548l3.206,1.851a.894.894,0,0,0,.894-1.548Z" transform="translate(-396.729 -232.564)"/>
        <path id="Path_989877" data-name="Path 989877" d="M5.489,179.5a.894.894,0,0,0-.894-.894H.894a.894.894,0,0,0,0,1.788H4.6A.894.894,0,0,0,5.489,179.5Z" transform="translate(0 -157.323)"/>
        <path id="Path_989878" data-name="Path 989878" d="M24.238,79.625l-3.206-1.851a.894.894,0,0,0-.894,1.548l3.206,1.851a.894.894,0,0,0,.894-1.548Z" transform="translate(-17.344 -68.4)"/>
        <path id="Path_989879" data-name="Path 989879" d="M23.345,264.15,20.139,266a.894.894,0,1,0,.894,1.548l3.206-1.851a.894.894,0,1,0-.894-1.548Z" transform="translate(-17.345 -232.564)"/>
      </g>
    </g>
  </g>
</svg>
