<svg xmlns="http://www.w3.org/2000/svg" xmlns:xlink="http://www.w3.org/1999/xlink" width="108" height="108" viewBox="0 0 108 108">
  <defs>
    <filter id="Path_982547" x="0" y="0" width="108" height="108" filterUnits="userSpaceOnUse">
      <feOffset dy="3" input="SourceAlpha"/>
      <feGaussianBlur stdDeviation="3" result="blur"/>
      <feFlood flood-opacity="0.161"/>
      <feComposite operator="in" in2="blur"/>
      <feComposite in="SourceGraphic"/>
    </filter>
    <clipPath id="clip-path">
      <rect id="Rectangle_405856" data-name="Rectangle 405856" width="75.705" height="66.142" fill="none"/>
    </clipPath>
  </defs>
  <g id="Group_1157615" data-name="Group 1157615" transform="translate(-210 -894.637)">
    <g id="Group_1157032" data-name="Group 1157032" transform="translate(39 -2083.363)">
      <g id="Group_1155827" data-name="Group 1155827" transform="translate(180 2984)">
        <g id="Group_1153134" data-name="Group 1153134">
          <g id="Group_1149598" data-name="Group 1149598">
            <g id="Group_1148770" data-name="Group 1148770">
              <g id="Group_1146954" data-name="Group 1146954">
                <g transform="matrix(1, 0, 0, 1, -9, -6)" filter="url(#Path_982547)">
                  <g id="Path_982547-2" data-name="Path 982547" transform="translate(9 6)" fill="#fae8e3">
                    <path d="M 45 88.5 C 39.12687683105469 88.5 33.43022537231445 87.35007476806641 28.06830024719238 85.08217620849609 C 22.88852500915527 82.89131164550781 18.23629951477051 79.75458526611328 14.2408504486084 75.75914764404297 C 10.24541282653809 71.76370239257812 7.108687400817871 67.11147308349609 4.917825222015381 61.93170166015625 C 2.649924993515015 56.56977462768555 1.5 50.87312316894531 1.5 45 C 1.5 39.12687683105469 2.649924993515015 33.43022537231445 4.917825222015381 28.06830024719238 C 7.108687400817871 22.88852500915527 10.24541282653809 18.23629951477051 14.2408504486084 14.2408504486084 C 18.23629951477051 10.24541282653809 22.88852500915527 7.108687400817871 28.06830024719238 4.917825222015381 C 33.43022537231445 2.649924993515015 39.12687683105469 1.5 45 1.5 C 50.87312316894531 1.5 56.56977462768555 2.649924993515015 61.93170166015625 4.917825222015381 C 67.11147308349609 7.108687400817871 71.76370239257812 10.24541282653809 75.75914764404297 14.2408504486084 C 79.75458526611328 18.23629951477051 82.89131164550781 22.88852500915527 85.08217620849609 28.06830024719238 C 87.35007476806641 33.43022537231445 88.5 39.12687683105469 88.5 45 C 88.5 50.87312316894531 87.35007476806641 56.56977462768555 85.08217620849609 61.93170166015625 C 82.89131164550781 67.11147308349609 79.75458526611328 71.76370239257812 75.75914764404297 75.75914764404297 C 71.76370239257812 79.75458526611328 67.11147308349609 82.89131164550781 61.93170166015625 85.08217620849609 C 56.56977462768555 87.35007476806641 50.87312316894531 88.5 45 88.5 Z" stroke="none"/>
                    <path d="M 45 3 C 39.32871246337891 3 33.82865524291992 4.110054016113281 28.65262985229492 6.299339294433594 C 23.65165710449219 8.414573669433594 19.15968322753906 11.44334411621094 15.301513671875 15.301513671875 C 11.44334411621094 19.15968322753906 8.414573669433594 23.65165710449219 6.299339294433594 28.65262985229492 C 4.110054016113281 33.82865524291992 3 39.32871246337891 3 45 C 3 50.67128753662109 4.110054016113281 56.17134475708008 6.299339294433594 61.34737396240234 C 8.414573669433594 66.34834289550781 11.44334411621094 70.84031677246094 15.301513671875 74.698486328125 C 19.15968322753906 78.55665588378906 23.65165710449219 81.58542633056641 28.65262985229492 83.70066070556641 C 33.82865524291992 85.88994598388672 39.32871246337891 87 45 87 C 50.67128753662109 87 56.17134475708008 85.88994598388672 61.34737396240234 83.70066070556641 C 66.34834289550781 81.58542633056641 70.84031677246094 78.55665588378906 74.698486328125 74.698486328125 C 78.55665588378906 70.84031677246094 81.58542633056641 66.34834289550781 83.70066070556641 61.34737396240234 C 85.88994598388672 56.17134475708008 87 50.67128753662109 87 45 C 87 39.32871246337891 85.88994598388672 33.82865524291992 83.70066070556641 28.65262985229492 C 81.58542633056641 23.65165710449219 78.55665588378906 19.15968322753906 74.698486328125 15.301513671875 C 70.84031677246094 11.44334411621094 66.34834289550781 8.414573669433594 61.34737396240234 6.299339294433594 C 56.17134475708008 4.110054016113281 50.67128753662109 3 45 3 M 45 0 C 69.85281372070312 0 90 20.14718627929688 90 45 C 90 69.85281372070312 69.85281372070312 90 45 90 C 20.14718627929688 90 0 69.85281372070312 0 45 C 0 20.14718627929688 20.14718627929688 0 45 0 Z" stroke="none" fill="#e89076"/>
                  </g>
                </g>
              </g>
            </g>
          </g>
        </g>
      </g>
      <g id="Group_1145596" data-name="Group 1145596" transform="translate(187.148 2992.893)">
        <path id="Path_979881" data-name="Path 979881" d="M0,0V.121L.121,0Z" transform="translate(0 0)" fill="#fefefe"/>
        <path id="Path_979882" data-name="Path 979882" d="M0,273.622H.121L0,273.5Z" transform="translate(0 -207.343)" fill="#fefefe"/>
        <path id="Path_979883" data-name="Path 979883" d="M311.5,273.622h.121V273.5Z" transform="translate(-236.15 -207.343)" fill="#fefefe"/>
        <g id="Group_1145595" data-name="Group 1145595" transform="translate(0 0.137)">
          <g id="Group_1145594" data-name="Group 1145594" clip-path="url(#clip-path)">
            <path id="Path_979884" data-name="Path 979884" d="M39.322,126.967a1.865,1.865,0,0,0,1.148.606c.521,0,2.179-.759,2.954-.912,3.115-.613,11.362-.588,14.4.22,11.292,3,13.175,18.558,2.953,24.253-3.531,1.967-6.646,1.62-10.535,1.781l-2.828,2.665c-.035-.786.187-1.908-.489-2.469-.6-.5-1.309-.224-1.986-.309-8.161-1.016-13.693-8.512-11.568-16.632.222-.848,1-2.02.61-2.836a5.264,5.264,0,0,0-.455-.57,7.836,7.836,0,0,1,1.57-2.415c1.094,1.009,2.834-.671,1.811-1.811a8.316,8.316,0,0,1,2.415-1.57m.572,9.084c-4.42.7-3.649,7.753,1.165,7.2,4.623-.53,3.866-7.994-1.165-7.2m9.66,0c-4.42.7-3.649,7.753,1.165,7.2,4.623-.53,3.866-7.994-1.165-7.2m9.66,0c-4.42.7-3.649,7.753,1.165,7.2,4.623-.53,3.866-7.994-1.165-7.2" transform="translate(-24.952 -95.835)" fill="#fdfdfd"/>
            <path id="Path_979885" data-name="Path 979885" d="M31.728,97.369c-.588-1.1.556-1.734,1.386-2.055,4.512-1.744,10.073-.652,14.831-.961a15.872,15.872,0,0,1,12.819-7.009c8.286-.415,16.377-.512,21.416,7.09a15.654,15.654,0,0,1-11.812,24.182c-.165,1.31.726,5.03-1.624,4.582-.892-.17-3.7-3.724-4.656-4.4l-4.266-.17a16.173,16.173,0,0,1-10.559,6.834c-1.872.281-3.705.067-5.587.209l-4.789,4.509c-2.266.519-1.47-3.353-1.605-4.561a15.7,15.7,0,0,1-13.877-19.61c.269-1.048.927-3.692,2.527-2.846a5.343,5.343,0,0,1,.455.57c.386.816-.388,1.988-.61,2.836-2.126,8.12,3.407,15.616,11.568,16.632.677.084,1.385-.19,1.985.309.677.562.454,1.684.49,2.47l2.828-2.665c3.889-.161,7,.186,10.535-1.781,10.222-5.694,8.338-21.249-2.953-24.252-3.038-.808-11.285-.833-14.4-.22-.775.152-2.433.91-2.954.911a1.865,1.865,0,0,1-1.148-.605m29.343,18.954H65l2.836,2.656c.018-1.506-.28-2.554,1.526-2.762,2.634-.3,4.06-.385,6.435-1.775C86,108.47,83.675,92.863,72.181,90.186c-2.7-.629-9.428-.492-12.384-.307-2.85.179-7.412,2.187-9,4.648a.511.511,0,0,0-.116.428c9.229,2.154,14.215,12.728,10.385,21.369" transform="translate(-17.359 -66.238)" fill="#030303"/>
            <path id="Path_979886" data-name="Path 979886" d="M74.54,58.326a12.6,12.6,0,0,1,8.639,2.158,11.57,11.57,0,0,1,1.778,1.6,1.249,1.249,0,0,1-1.244,1.857c-.453-.075-1.623-1.248-2.154-1.6a9.972,9.972,0,0,0-11.622.433c-.7.508-1.225,1.558-2.287,1.037-.88-.431-.813-1.336-.272-2.026,1.336-1.7,5.039-3.259,7.162-3.463" transform="translate(-50.776 -44.303)" fill="#030303"/>
            <path id="Path_979887" data-name="Path 979887" d="M167.5,29.437a12.553,12.553,0,0,1,8.2,2.109c.863.594,2.5,1.669,1.937,2.837-.856,1.787-2.437-.207-3.264-.785a9.955,9.955,0,0,0-11.093-.168c-.651.416-1.8,1.668-2.455,1.651a1.216,1.216,0,0,1-1.1-1.7,6.973,6.973,0,0,1,1.647-1.612,12.745,12.745,0,0,1,6.124-2.328" transform="translate(-121.033 -22.415)" fill="#030303"/>
            <path id="Path_979888" data-name="Path 979888" d="M185.327,54.235c-1.1,1.112-2.118-.5-3.135-.947a4.778,4.778,0,0,0-4.833.527c-.694.44-1.3,1.425-2.257.4-1.516-1.621,2.274-3.358,3.5-3.628a7.316,7.316,0,0,1,4.349.368c1.021.4,3.65,1.989,2.376,3.276" transform="translate(-132.478 -38.357)" fill="#040404"/>
            <path id="Path_979889" data-name="Path 979889" d="M86.792,79.337a7.34,7.34,0,0,1,5.583,1.595c.65.575,1.184,1.178.583,2.035-.858,1.226-1.9-.065-2.6-.505a4.8,4.8,0,0,0-5.442.194c-.3.189-.576.605-.871.7a1.194,1.194,0,0,1-1.4-1.88,7.006,7.006,0,0,1,4.141-2.137" transform="translate(-62.427 -60.245)" fill="#030303"/>
            <path id="Path_979890" data-name="Path 979890" d="M42.578,134.576c1.023,1.14-.717,2.82-1.811,1.811a2.46,2.46,0,0,1-.371-.908,1.28,1.28,0,0,1,2.182-.9" transform="translate(-30.623 -101.876)" fill="#070707"/>
            <path id="Path_979891" data-name="Path 979891" d="M52.625,166.631c5.032-.794,5.788,6.671,1.165,7.2-4.815.552-5.586-6.5-1.165-7.2m.359,2.41a1.214,1.214,0,0,0,.548,2.363,1.214,1.214,0,1,0-.548-2.363" transform="translate(-37.683 -126.416)" fill="#020303"/>
            <path id="Path_979892" data-name="Path 979892" d="M92.561,166.631c5.032-.794,5.788,6.671,1.165,7.2-4.815.552-5.586-6.5-1.165-7.2m.359,2.41a1.214,1.214,0,0,0,.548,2.363,1.214,1.214,0,1,0-.548-2.363" transform="translate(-67.959 -126.416)" fill="#020303"/>
            <path id="Path_979893" data-name="Path 979893" d="M132.5,166.631c5.032-.794,5.788,6.671,1.165,7.2-4.815.552-5.586-6.5-1.165-7.2m.359,2.41a1.214,1.214,0,0,0,.548,2.363,1.214,1.214,0,1,0-.548-2.363" transform="translate(-98.235 -126.416)" fill="#020303"/>
            <path id="Path_979894" data-name="Path 979894" d="M148.131,124.255c3.83-8.642-1.156-19.216-10.385-21.369a.511.511,0,0,1,.116-.428c1.584-2.461,6.147-4.469,9-4.648,2.956-.185,9.682-.322,12.384.307,11.493,2.677,13.819,18.284,3.612,24.257-2.375,1.39-3.8,1.473-6.435,1.775-1.806.208-1.507,1.256-1.526,2.762l-2.836-2.656Z" transform="translate(-104.418 -74.17)" fill="#fdcc68"/>
            <path id="Path_979895" data-name="Path 979895" d="M60.478,176.654a1.213,1.213,0,1,1,.548,2.363,1.213,1.213,0,0,1-.548-2.363" transform="translate(-45.177 -134.029)" fill="#32d0ee"/>
            <path id="Path_979896" data-name="Path 979896" d="M100.414,176.654a1.213,1.213,0,1,1,.548,2.363,1.213,1.213,0,0,1-.548-2.363" transform="translate(-75.452 -134.029)" fill="#32d0ee"/>
            <path id="Path_979897" data-name="Path 979897" d="M140.35,176.654a1.213,1.213,0,1,1,.548,2.363,1.213,1.213,0,0,1-.548-2.363" transform="translate(-105.728 -134.029)" fill="#32d0ee"/>
          </g>
        </g>
      </g>
    </g>
  </g>
</svg>
