<svg xmlns="http://www.w3.org/2000/svg" xmlns:xlink="http://www.w3.org/1999/xlink" width="108" height="108" viewBox="0 0 108 108">
  <defs>
    <filter id="Path_982547" x="0" y="0" width="108" height="108" filterUnits="userSpaceOnUse">
      <feOffset dy="3" input="SourceAlpha"/>
      <feGaussianBlur stdDeviation="3" result="blur"/>
      <feFlood flood-opacity="0.161"/>
      <feComposite operator="in" in2="blur"/>
      <feComposite in="SourceGraphic"/>
    </filter>
    <clipPath id="clip-path">
      <rect id="Rectangle_405840" data-name="Rectangle 405840" width="55.583" height="55.943" fill="none"/>
    </clipPath>
  </defs>
  <g id="Group_1157460" data-name="Group 1157460" transform="translate(-221 -4161)">
    <g id="Group_1156563" data-name="Group 1156563" transform="translate(230 4167)">
      <g id="Group_1155739" data-name="Group 1155739">
        <g id="Group_1153134" data-name="Group 1153134">
          <g id="Group_1149598" data-name="Group 1149598">
            <g id="Group_1148770" data-name="Group 1148770">
              <g id="Group_1146954" data-name="Group 1146954">
                <g transform="matrix(1, 0, 0, 1, -9, -6)" filter="url(#Path_982547)">
                  <g id="Path_982547-2" data-name="Path 982547" transform="translate(9 6)" fill="#f2f7f5">
                    <path d="M 45 88.5 C 39.12687683105469 88.5 33.43022537231445 87.35007476806641 28.06830024719238 85.08217620849609 C 22.88852500915527 82.89131164550781 18.23629951477051 79.75458526611328 14.2408504486084 75.75914764404297 C 10.24541282653809 71.76370239257812 7.108687400817871 67.11147308349609 4.917825222015381 61.93170166015625 C 2.649924993515015 56.56977462768555 1.5 50.87312316894531 1.5 45 C 1.5 39.12687683105469 2.649924993515015 33.43022537231445 4.917825222015381 28.06830024719238 C 7.108687400817871 22.88852500915527 10.24541282653809 18.23629951477051 14.2408504486084 14.2408504486084 C 18.23629951477051 10.24541282653809 22.88852500915527 7.108687400817871 28.06830024719238 4.917825222015381 C 33.43022537231445 2.649924993515015 39.12687683105469 1.5 45 1.5 C 50.87312316894531 1.5 56.56977462768555 2.649924993515015 61.93170166015625 4.917825222015381 C 67.11147308349609 7.108687400817871 71.76370239257812 10.24541282653809 75.75914764404297 14.2408504486084 C 79.75458526611328 18.23629951477051 82.89131164550781 22.88852500915527 85.08217620849609 28.06830024719238 C 87.35007476806641 33.43022537231445 88.5 39.12687683105469 88.5 45 C 88.5 50.87312316894531 87.35007476806641 56.56977462768555 85.08217620849609 61.93170166015625 C 82.89131164550781 67.11147308349609 79.75458526611328 71.76370239257812 75.75914764404297 75.75914764404297 C 71.76370239257812 79.75458526611328 67.11147308349609 82.89131164550781 61.93170166015625 85.08217620849609 C 56.56977462768555 87.35007476806641 50.87312316894531 88.5 45 88.5 Z" stroke="none"/>
                    <path d="M 45 3 C 39.32871246337891 3 33.82865524291992 4.110054016113281 28.65262985229492 6.299339294433594 C 23.65165710449219 8.414573669433594 19.15968322753906 11.44334411621094 15.301513671875 15.301513671875 C 11.44334411621094 19.15968322753906 8.414573669433594 23.65165710449219 6.299339294433594 28.65262985229492 C 4.110054016113281 33.82865524291992 3 39.32871246337891 3 45 C 3 50.67128753662109 4.110054016113281 56.17134475708008 6.299339294433594 61.34737396240234 C 8.414573669433594 66.34834289550781 11.44334411621094 70.84031677246094 15.301513671875 74.698486328125 C 19.15968322753906 78.55665588378906 23.65165710449219 81.58542633056641 28.65262985229492 83.70066070556641 C 33.82865524291992 85.88994598388672 39.32871246337891 87 45 87 C 50.67128753662109 87 56.17134475708008 85.88994598388672 61.34737396240234 83.70066070556641 C 66.34834289550781 81.58542633056641 70.84031677246094 78.55665588378906 74.698486328125 74.698486328125 C 78.55665588378906 70.84031677246094 81.58542633056641 66.34834289550781 83.70066070556641 61.34737396240234 C 85.88994598388672 56.17134475708008 87 50.67128753662109 87 45 C 87 39.32871246337891 85.88994598388672 33.82865524291992 83.70066070556641 28.65262985229492 C 81.58542633056641 23.65165710449219 78.55665588378906 19.15968322753906 74.698486328125 15.301513671875 C 70.84031677246094 11.44334411621094 66.34834289550781 8.414573669433594 61.34737396240234 6.299339294433594 C 56.17134475708008 4.110054016113281 50.67128753662109 3 45 3 M 45 0 C 69.85281372070312 0 90 20.14718627929688 90 45 C 90 69.85281372070312 69.85281372070312 90 45 90 C 20.14718627929688 90 0 69.85281372070312 0 45 C 0 20.14718627929688 20.14718627929688 0 45 0 Z" stroke="none" fill="#88bba9"/>
                  </g>
                </g>
              </g>
            </g>
          </g>
        </g>
      </g>
      <g id="Group_1145580" data-name="Group 1145580" transform="translate(19.209 15.028)">
        <g id="Group_1145579" data-name="Group 1145579" clip-path="url(#clip-path)">
          <path id="Path_979719" data-name="Path 979719" d="M2.513,45.681c-1.8-1.029,2.7-3.714,3.988-3.714h5.736V39.454c0-.14-2.109-1.007-2.5-1.266A13.661,13.661,0,0,1,4.4,31.181c-.12-.337-.323-1.551-.407-1.669-.068-.1-1.712-.584-2.165-.894-3.156-2.159-1.922-6.39,1.451-7.47C1.212,16.665-1.548,8.259,5.642,7.023c.393-.068,1.046.087,1.35-.071.1-.051.731-1.2.943-1.461,6.043-7.5,15.8.427,22.914-4.4.576-.391,1.177-1.537,2.033-.9.509.377,1.272,3.655,1.392,4.4.764,4.746,0,9.011-3.765,12.224L30.5,21.086a4.742,4.742,0,0,1,3.664,3.188l2.331,0a2.954,2.954,0,0,1,1.75-3.331c1.01-.32,7.141-.3,8.083.107a2.554,2.554,0,0,1,1.37,1.58c.1.369.1,1.585.159,1.643.249.253,6.257-.23,7.108.049a.836.836,0,0,1,.534.668,34.253,34.253,0,0,1,.009,4.693c-.076.512-.327.849-.876.817-.238-.014-.765-.327-.765-.492V26.072l-.164-.164H47.856c-.153,0,.192,1.918-.76,2.9-1.094,1.129-6.164.959-7.822.82-2.269-.19-2.9-1.594-2.781-3.72H30.484V44.043c.815-.39,2.519-3.354,3.5-2.242,1.025,1.164-2.146,2.839-2.07,3.373.043.3,3.4,3.185,3.816,3.839,1.411,2.21-1.766,3.786-2.841,5.3H53.865V32.736c0-.2.633-.593.765-.6.378-.023.964.468.881.922l0,21.971a.853.853,0,0,1-.63.9l-53.069.016c-.467-.048-.661-.505-.72-.919a48.716,48.716,0,0,1,0-6.777c.071-.475.486-.978.986-.926a2.1,2.1,0,0,1,.655.492V54.2H7.157l1.8-1.856c-.568-.106-2.416-.347-2.6-.954l.194-7.678a3.743,3.743,0,0,0-1.63.609c-.756.454-1.529,1.863-2.412,1.357M14.532,3.731A7.1,7.1,0,0,0,9.4,6.3c-.635.785-1.068,2.552-2.017,2.567C6.295,8.886,6.01,8.421,4.669,9c-3.3,1.422-1.717,6.651-.816,9.178a27.474,27.474,0,0,0,1.191,2.8c.511.3,2.066-.816,2.428-1.2.851-.894,1.838-3.867,2.151-4.078.522-.352,2.382.688,3.052.922,4.59,1.607,9.039,2.18,13.714.439C33,14.6,33.915,8.624,32.012,2.42c-2.763,1.909-5.962,2.094-9.235,1.97-2.659-.1-5.61-.8-8.245-.66M10.271,18.588c-.871,1.427-1.727,2.885-3.312,3.626-.317.148-1.439.363-1.49.422a44.394,44.394,0,0,0,.136,6.353,11.559,11.559,0,0,0,8.38,9.264A11.463,11.463,0,0,0,24.354,36.22c5.972-4.713,4.24-11.59,4.49-18.287a21.2,21.2,0,0,1-15.379.793c-.46-.14-2.668-1.123-2.816-1.094-.221.042-.354.747-.378.956m30.156,9.4c1.7.06,3.382-.1,5.077-.112A.966.966,0,0,0,46,27.5a25.246,25.246,0,0,0,.106-4.159,1.017,1.017,0,0,0-.377-.715,39.541,39.541,0,0,0-5.306-.1c-.638,0-1.612-.391-2.1.357a15.034,15.034,0,0,0-.2,3.964c.173,1.434,1.208,1.1,2.3,1.141m-36.6-5.134a2.419,2.419,0,0,0,0,4.807Zm28.408,1.42c.075-.524-1.4-1.49-1.692-1.422l-.056,1.422ZM28.845,42.295v-8.74a15.588,15.588,0,0,1-4.993,5c-.268.163-1.891.844-1.891.95v2.458c2.289.1,4.65-.268,6.883.328m-8.631-1.42c0-.119.331-.732-.063-.859-.082-.026-1.339.292-1.634.31A15.406,15.406,0,0,1,13.986,40v2.4a15.188,15.188,0,0,0,1.857.983c.33.168,1.025.666,1.339.636l2.962-1.608a5.435,5.435,0,0,0,.07-1.541M9.834,43.606H8.3l-.321,6.877c3.672.652,4.68,1.006,1.523,3.829h3.278Zm2.951,4.479a13.017,13.017,0,0,0,2.833-2.88c-.064-.214-3.464-2.159-4.036-1.6Zm9.832-4.478c-1.576-.283-2.689.99-4.041,1.531l2.786,2.947Zm-.763,9.067,4.236-4.229-.188-4.79-1.55.016Zm6.975-8.614-1.185-.344.11,3.058c.228-.211,1-.817,1.068-1.061a9.42,9.42,0,0,0,.007-1.654M17.152,49.832l1.428-2.014L17.1,46.334l-1.571,1.494,1.4,1.935ZM28.3,51.69a20.759,20.759,0,0,0,2.4,2.353c.426-.639,3.6-3.321,3.7-3.742.1-.461-1.775-2.058-2.169-2.435-1.118-1.067-1.039-1.96-2.461-.768-1.037.869-1.983,2.1-2.993,3.023-.032.223,1.292,1.33,1.521,1.568M14.315,53.328,15.958,51.2l-1.7-2.134c-1.649,1-.076,2.792.056,4.257m5.532-4.252-1.6,2.009,1.582,2.131A15.379,15.379,0,0,0,20.77,50.1c-.023-.269-.716-1.056-.923-1.028m7.031,3.706c-.282-.267-1.1-1.371-1.452-1.3l-2.7,2.666c-.047.253.112.143.27.162a24.8,24.8,0,0,0,2.679,0c.909,0,1.822,0,2.731,0a13.29,13.29,0,0,0-1.53-1.528m-8.413,1.529L17.1,52.564l-1.258,1.748Z" transform="translate(0 0)" fill="#020202"/>
          <path id="Path_979720" data-name="Path 979720" d="M163.45,124.618c-.131.008-.765.4-.765.6V146.8H141.708c1.075-1.513,4.252-3.089,2.841-5.3-.418-.654-3.773-3.538-3.816-3.839-.076-.534,3.095-2.21,2.07-3.373-.98-1.112-2.683,1.852-3.5,2.242V118.391h6.009c-.118,2.125.512,3.529,2.781,3.719,1.658.139,6.727.309,7.822-.82.952-.982.607-2.9.76-2.9h5.845l.164.164v3.933c0,.164.527.478.765.492Zm-4.512,2.59a.84.84,0,0,0-.454-1.394H143.723c-1.156.3-.828,1.7.33,1.648,4.493-.357,9.695.461,14.1,0a1.461,1.461,0,0,0,.782-.256m0,4.807a.834.834,0,0,0-.567-1.39H143.836a.821.821,0,0,0,0,1.643c4.562-.358,9.844.469,14.32,0a1.462,1.462,0,0,0,.782-.256m0,3.669a1.462,1.462,0,0,0-.782-.256c-4.476-.465-9.759.362-14.32,0a.821.821,0,0,0,0,1.643h14.535a.834.834,0,0,0,.567-1.39m-2.189,4.811a1.387,1.387,0,0,0-.778-.261,68.973,68.973,0,0,0-9.838.007c-1.31.173-1.311,1.57.109,1.747a67.95,67.95,0,0,0,9.723,0c.79-.1,1.462-.852.785-1.493" transform="translate(-108.82 -92.483)" fill="#e3e3e3"/>
          <path id="Path_979721" data-name="Path 979721" d="M9.927,201.732c.883.506,1.656-.9,2.412-1.357a3.745,3.745,0,0,1,1.63-.609l-.194,7.678c.182.606,2.03.848,2.6.953l-1.8,1.856H10.146v-6.391a2.1,2.1,0,0,0-.656-.492Z" transform="translate(-7.413 -156.051)" fill="#505e73"/>
          <path id="Path_979722" data-name="Path 979722" d="M46.327,81.528c.024-.209.158-.914.378-.956.148-.029,2.356.954,2.816,1.094A21.2,21.2,0,0,0,64.9,80.873c-.25,6.7,1.482,13.574-4.49,18.287a11.463,11.463,0,0,1-10.369,2.032,15.489,15.489,0,0,1-3.719-9.664,75.7,75.7,0,0,1,0-10m3.025,5.167c-1.443-1.658-2.22,2.822-.869,3.114,1.509.326,1.315-2.6.869-3.114m8.091-.232c-.981.191-.813,3.064-.187,3.309,1.689.663,1.712-3.605.187-3.309M49.53,93.8c-1.314,1.281,2.3,2.635,3.3,2.691,1.153.065,5.023-.943,4.1-2.572-.582-1.029-1.714.379-2.334.63a3.646,3.646,0,0,1-2.7.031c-.739-.272-1.645-1.489-2.371-.781" transform="translate(-36.056 -62.94)" fill="#f7c0ae"/>
          <path id="Path_979723" data-name="Path 979723" d="M54.354,12.37c2.635-.135,5.586.559,8.245.66,3.273.124,6.473-.061,9.235-1.97,1.9,6.2.99,12.177-5.624,14.64-4.675,1.741-9.123,1.169-13.714-.439a10.12,10.12,0,0,1,.346-11.179c.449-.632,1.044-1.11,1.511-1.712" transform="translate(-39.821 -8.639)" fill="#505e74"/>
          <path id="Path_979724" data-name="Path 979724" d="M24.075,17.049c-.467.6-1.062,1.08-1.511,1.712a10.12,10.12,0,0,0-.346,11.179c-.669-.234-2.53-1.274-3.052-.922-.313.211-1.3,3.183-2.15,4.078-.362.381-1.918,1.5-2.429,1.2A27.448,27.448,0,0,1,13.4,31.5c-.9-2.527-2.483-7.756.816-9.178,1.341-.578,1.626-.114,2.714-.131.949-.015,1.382-1.782,2.017-2.567a7.1,7.1,0,0,1,5.132-2.57" transform="translate(-9.543 -13.318)" fill="#3a475a"/>
          <path id="Path_979725" data-name="Path 979725" d="M33.216,104.607a11.559,11.559,0,0,1-8.38-9.264,44.394,44.394,0,0,1-.136-6.353c.051-.058,1.173-.273,1.49-.421,1.585-.741,2.441-2.2,3.311-3.626a75.74,75.74,0,0,0,0,10,15.489,15.489,0,0,0,3.719,9.664" transform="translate(-19.23 -66.355)" fill="#e89d8e"/>
          <path id="Path_979726" data-name="Path 979726" d="M183.958,108.251c.045-.268-.219-.745-.219-.929v-3.714c0-.151.226-.6.219-.819a39.51,39.51,0,0,1,5.306.1,1.018,1.018,0,0,1,.377.715,25.272,25.272,0,0,1-.106,4.159.968.968,0,0,1-.5.374c-1.7.009-3.38.173-5.077.112" transform="translate(-143.531 -80.267)" fill="#f8c1ae"/>
          <path id="Path_979727" data-name="Path 979727" d="M38.333,199.265l2.95,10.706H38c3.156-2.823,2.149-3.177-1.523-3.83l.321-6.877Z" transform="translate(-28.499 -155.659)" fill="#4f5d72"/>
          <path id="Path_979728" data-name="Path 979728" d="M133.251,218.735c.395.377,2.274,1.974,2.169,2.435-.1.421-3.273,3.1-3.7,3.742a20.744,20.744,0,0,1-2.4-2.353Z" transform="translate(-101.019 -170.868)" fill="#f7c0ad"/>
          <path id="Path_979729" data-name="Path 979729" d="M99.866,208.5l2.5-9,1.55-.016.188,4.79Z" transform="translate(-78.012 -155.83)" fill="#4f5d72"/>
          <path id="Path_979730" data-name="Path 979730" d="M127.82,213.967l-3.933,3.824c-.229-.238-1.553-1.345-1.521-1.568,1.01-.925,1.957-2.154,2.993-3.023,1.423-1.192,1.344-.3,2.461.768" transform="translate(-95.588 -166.1)" fill="#eeab99"/>
          <path id="Path_979731" data-name="Path 979731" d="M176.382,102.548c.007.223-.219.669-.219.819v3.714c0,.183.263.661.219.929-1.092-.039-2.127.292-2.3-1.141a15.027,15.027,0,0,1,.2-3.964c.489-.748,1.463-.359,2.1-.357" transform="translate(-135.955 -80.027)" fill="#e4a494"/>
          <path id="Path_979732" data-name="Path 979732" d="M76.768,186.785a5.435,5.435,0,0,1-.069,1.541l-2.962,1.608c-.314.03-1.01-.468-1.339-.636v-2.185Z" transform="translate(-56.554 -145.91)" fill="#f6c0ad"/>
          <path id="Path_979733" data-name="Path 979733" d="M54.132,203.385l-1.2-4.478c.572-.561,3.972,1.385,4.036,1.6a13.019,13.019,0,0,1-2.833,2.88" transform="translate(-41.347 -155.3)" fill="#eaeaea"/>
          <path id="Path_979734" data-name="Path 979734" d="M88.926,199.123,87.671,203.6l-2.786-2.947c1.353-.541,2.465-1.814,4.041-1.531" transform="translate(-66.309 -155.517)" fill="#ededed"/>
          <path id="Path_979735" data-name="Path 979735" d="M70.14,183.665l-4.371.327v2.186a15.174,15.174,0,0,1-1.857-.983v-2.4a15.405,15.405,0,0,0,4.531.325c.295-.018,1.552-.337,1.634-.31.394.127.066.74.063.859" transform="translate(-49.926 -142.79)" fill="#e49a8c"/>
          <path id="Path_979736" data-name="Path 979736" d="M9.808,104.413v4.807a2.419,2.419,0,0,1,0-4.807" transform="translate(-5.983 -81.564)" fill="#df9688"/>
          <path id="Path_979737" data-name="Path 979737" d="M107.98,236.552l-1.2,1.529a24.809,24.809,0,0,1-2.679,0c-.158-.019-.317.091-.27-.162l2.7-2.666c.352-.072,1.17,1.032,1.452,1.3" transform="translate(-81.102 -183.769)" fill="#384557"/>
          <path id="Path_979738" data-name="Path 979738" d="M72.585,215.23l-.226-.069-1.4-1.935,1.571-1.494,1.48,1.484Z" transform="translate(-55.432 -165.398)" fill="#f24664"/>
          <path id="Path_979739" data-name="Path 979739" d="M84.993,224.264c.207-.029.9.759.923,1.028a15.383,15.383,0,0,1-.939,3.112L83.4,226.274Z" transform="translate(-65.146 -175.187)" fill="#ececec"/>
          <path id="Path_979740" data-name="Path 979740" d="M62.547,228.5c-.132-1.465-1.705-3.258-.056-4.257l1.7,2.134Z" transform="translate(-48.231 -175.169)" fill="#ececec"/>
          <path id="Path_979741" data-name="Path 979741" d="M127.51,200.11a9.42,9.42,0,0,1-.007,1.654c-.072.244-.84.851-1.068,1.061l-.11-3.059Z" transform="translate(-98.681 -156.051)" fill="#4e5b70"/>
          <path id="Path_979742" data-name="Path 979742" d="M75.022,241.95H72.4l1.258-1.748Z" transform="translate(-56.556 -187.638)" fill="#e84360"/>
          <path id="Path_979743" data-name="Path 979743" d="M118.537,241.2a13.274,13.274,0,0,1,1.53,1.528c-.909.005-1.822,0-2.731,0Z" transform="translate(-91.658 -188.417)" fill="#505e74"/>
          <path id="Path_979744" data-name="Path 979744" d="M141.051,105.815H139.3l.056-1.422c.289-.068,1.767.9,1.692,1.422" transform="translate(-108.819 -81.545)" fill="#e49a8c"/>
          <path id="Path_979745" data-name="Path 979745" d="M172.143,153.707a1.461,1.461,0,0,1-.782.256c-4.409.459-9.611-.359-14.1,0-1.158.054-1.486-1.35-.329-1.648h14.761a.84.84,0,0,1,.454,1.394" transform="translate(-122.024 -118.982)" fill="#030303"/>
          <path id="Path_979746" data-name="Path 979746" d="M172.2,175.685a1.461,1.461,0,0,1-.782.256c-4.477.465-9.759-.362-14.321,0a.821.821,0,0,1,0-1.643h14.535a.834.834,0,0,1,.567,1.39" transform="translate(-122.076 -136.153)" fill="#010101"/>
          <path id="Path_979747" data-name="Path 979747" d="M172.2,195.978a.834.834,0,0,1-.567,1.39H157.093a.821.821,0,0,1,0-1.643c4.562.358,9.844-.469,14.321,0a1.461,1.461,0,0,1,.782.256" transform="translate(-122.076 -152.777)" fill="#010101"/>
          <path id="Path_979748" data-name="Path 979748" d="M177.668,217.853c.678.64.006,1.388-.785,1.493a67.952,67.952,0,0,1-9.723,0c-1.419-.177-1.418-1.574-.109-1.747a68.965,68.965,0,0,1,9.838-.007,1.386,1.386,0,0,1,.778.261" transform="translate(-129.738 -169.841)" fill="#0b0b0b"/>
          <path id="Path_979749" data-name="Path 979749" d="M60.562,140.124c.726-.708,1.632.509,2.371.781a3.646,3.646,0,0,0,2.7-.031c.62-.251,1.752-1.659,2.334-.63.922,1.628-2.948,2.636-4.1,2.572-1-.056-4.613-1.41-3.3-2.691" transform="translate(-47.087 -109.264)" fill="#050403"/>
          <path id="Path_979750" data-name="Path 979750" d="M55.161,107.245c.446.513.639,3.44-.869,3.114-1.351-.292-.574-4.773.869-3.114" transform="translate(-41.864 -83.49)" fill="#0a0707"/>
          <path id="Path_979751" data-name="Path 979751" d="M95.249,107.442c1.525-.3,1.5,3.972-.187,3.309-.625-.246-.794-3.119.187-3.309" transform="translate(-73.862 -83.919)" fill="#050403"/>
        </g>
      </g>
    </g>
  </g>
</svg>
