<svg xmlns="http://www.w3.org/2000/svg" xmlns:xlink="http://www.w3.org/1999/xlink" width="108" height="108" viewBox="0 0 108 108">
  <defs>
    <filter id="Path_982547" x="0" y="0" width="108" height="108" filterUnits="userSpaceOnUse">
      <feOffset dy="3" input="SourceAlpha"/>
      <feGaussianBlur stdDeviation="3" result="blur"/>
      <feFlood flood-opacity="0.161"/>
      <feComposite operator="in" in2="blur"/>
      <feComposite in="SourceGraphic"/>
    </filter>
  </defs>
  <g id="Group_1157464" data-name="Group 1157464" transform="translate(-196 -4921)">
    <g id="Group_1156501" data-name="Group 1156501" transform="translate(0 2127)">
      <g id="Group_1154418" data-name="Group 1154418" transform="translate(205 2800)">
        <g id="Group_1153134" data-name="Group 1153134">
          <g id="Group_1149598" data-name="Group 1149598">
            <g id="Group_1148770" data-name="Group 1148770">
              <g id="Group_1146954" data-name="Group 1146954">
                <g transform="matrix(1, 0, 0, 1, -9, -6)" filter="url(#Path_982547)">
                  <g id="Path_982547-2" data-name="Path 982547" transform="translate(9 6)" fill="#fae7e2">
                    <path d="M 45 88.5 C 39.12687683105469 88.5 33.43022537231445 87.35007476806641 28.06830024719238 85.08217620849609 C 22.88852500915527 82.89131164550781 18.23629951477051 79.75458526611328 14.2408504486084 75.75914764404297 C 10.24541282653809 71.76370239257812 7.108687400817871 67.11147308349609 4.917825222015381 61.93170166015625 C 2.649924993515015 56.56977462768555 1.5 50.87312316894531 1.5 45 C 1.5 39.12687683105469 2.649924993515015 33.43022537231445 4.917825222015381 28.06830024719238 C 7.108687400817871 22.88852500915527 10.24541282653809 18.23629951477051 14.2408504486084 14.2408504486084 C 18.23629951477051 10.24541282653809 22.88852500915527 7.108687400817871 28.06830024719238 4.917825222015381 C 33.43022537231445 2.649924993515015 39.12687683105469 1.5 45 1.5 C 50.87312316894531 1.5 56.56977462768555 2.649924993515015 61.93170166015625 4.917825222015381 C 67.11147308349609 7.108687400817871 71.76370239257812 10.24541282653809 75.75914764404297 14.2408504486084 C 79.75458526611328 18.23629951477051 82.89131164550781 22.88852500915527 85.08217620849609 28.06830024719238 C 87.35007476806641 33.43022537231445 88.5 39.12687683105469 88.5 45 C 88.5 50.87312316894531 87.35007476806641 56.56977462768555 85.08217620849609 61.93170166015625 C 82.89131164550781 67.11147308349609 79.75458526611328 71.76370239257812 75.75914764404297 75.75914764404297 C 71.76370239257812 79.75458526611328 67.11147308349609 82.89131164550781 61.93170166015625 85.08217620849609 C 56.56977462768555 87.35007476806641 50.87312316894531 88.5 45 88.5 Z" stroke="none"/>
                    <path d="M 45 3 C 39.32871246337891 3 33.82865524291992 4.110054016113281 28.65262985229492 6.299339294433594 C 23.65165710449219 8.414573669433594 19.15968322753906 11.44334411621094 15.301513671875 15.301513671875 C 11.44334411621094 19.15968322753906 8.414573669433594 23.65165710449219 6.299339294433594 28.65262985229492 C 4.110054016113281 33.82865524291992 3 39.32871246337891 3 45 C 3 50.67128753662109 4.110054016113281 56.17134475708008 6.299339294433594 61.34737396240234 C 8.414573669433594 66.34834289550781 11.44334411621094 70.84031677246094 15.301513671875 74.698486328125 C 19.15968322753906 78.55665588378906 23.65165710449219 81.58542633056641 28.65262985229492 83.70066070556641 C 33.82865524291992 85.88994598388672 39.32871246337891 87 45 87 C 50.67128753662109 87 56.17134475708008 85.88994598388672 61.34737396240234 83.70066070556641 C 66.34834289550781 81.58542633056641 70.84031677246094 78.55665588378906 74.698486328125 74.698486328125 C 78.55665588378906 70.84031677246094 81.58542633056641 66.34834289550781 83.70066070556641 61.34737396240234 C 85.88994598388672 56.17134475708008 87 50.67128753662109 87 45 C 87 39.32871246337891 85.88994598388672 33.82865524291992 83.70066070556641 28.65262985229492 C 81.58542633056641 23.65165710449219 78.55665588378906 19.15968322753906 74.698486328125 15.301513671875 C 70.84031677246094 11.44334411621094 66.34834289550781 8.414573669433594 61.34737396240234 6.299339294433594 C 56.17134475708008 4.110054016113281 50.67128753662109 3 45 3 M 45 0 C 69.85281372070312 0 90 20.14718627929688 90 45 C 90 69.85281372070312 69.85281372070312 90 45 90 C 20.14718627929688 90 0 69.85281372070312 0 45 C 0 20.14718627929688 20.14718627929688 0 45 0 Z" stroke="none" fill="#e89076"/>
                  </g>
                </g>
              </g>
            </g>
          </g>
        </g>
      </g>
      <g id="work_time" data-name="work time" transform="translate(218 2813)">
        <circle id="Ellipse_11746" data-name="Ellipse 11746" cx="18" cy="18" r="18" transform="translate(25 25)" fill="#ffdaaa"/>
        <path id="Path_990576" data-name="Path 990576" d="M61,43A18,18,0,0,1,43,61c-.33,0-.67-.01-1-.03a18,18,0,0,0,0-35.94c.33-.02.67-.03,1-.03A18,18,0,0,1,61,43Z" fill="#ffc477"/>
        <path id="Path_990577" data-name="Path 990577" d="M61,13l-1.98.49,1.05,1.75-2.83,2.83-1.75-1.05L55,19H51l-.49-1.98-1.75,1.05-2.83-2.83,1.05-1.75L45,13V9l1.98-.49L45.93,6.76l2.83-2.83,1.75,1.05L51,3h4l.49,1.98,1.75-1.05,2.83,2.83L59.02,8.51,61,9Z" fill="#c0ab91"/>
        <circle id="Ellipse_11747" data-name="Ellipse 11747" cx="3" cy="3" r="3" transform="translate(50 8)" fill="#ffde55"/>
        <path id="Path_990578" data-name="Path 990578" d="M32.44,23.76a13.086,13.086,0,0,1-.98,2.38l1.42,1.99,1.26,1.77L29.9,34.14l-1.77-1.26-1.99-1.42a13.086,13.086,0,0,1-2.38.98L23,37H17l-.76-4.56a13.086,13.086,0,0,1-2.38-.98L10.1,34.14,5.86,29.9l2.68-3.76a14.517,14.517,0,0,1-.98-2.38L3,23V17l4.56-.76a16.936,16.936,0,0,1,.98-2.38L5.86,10.1,10.1,5.86l3.76,2.68a13.086,13.086,0,0,1,2.38-.98L17,3h6l.76,4.56a13.086,13.086,0,0,1,2.38.98L29.9,5.86l4.24,4.24-2.68,3.76a13.086,13.086,0,0,1,.98,2.38L37,17v6Z" fill="#57a4ff"/>
        <path id="Path_990579" data-name="Path 990579" d="M25,18,20,29V22H15l5-11v7Z" fill="#ffde55"/>
        <path id="Path_990580" data-name="Path 990580" d="M19,55l-1.98.49,1.05,1.75-2.83,2.83-1.75-1.05L13,61H9l-.49-1.98L6.76,60.07,3.93,57.24l1.05-1.75L3,55V51l1.98-.49L3.93,48.76l2.83-2.83,1.75,1.05L9,45h4l.49,1.98,1.75-1.05,2.83,2.83-1.05,1.75L19,51Z" fill="#c0ab91"/>
        <circle id="Ellipse_11748" data-name="Ellipse 11748" cx="3" cy="3" r="3" transform="translate(8 50)" fill="#ffde55"/>
        <path id="Path_990581" data-name="Path 990581" d="M36.535,4H45V2H36a1,1,0,0,0-.832.445l-2,3,1.664,1.11Z"/>
        <path id="Path_990582" data-name="Path 990582" d="M27.465,60H19v2h9a1,1,0,0,0,.832-.445l2-3-1.664-1.11Z"/>
        <path id="Path_990583" data-name="Path 990583" d="M43,24a18.779,18.779,0,0,0-9.857,2.78l-.519-.727a14.1,14.1,0,0,0,.581-1.407l3.96-.66A1,1,0,0,0,38,23V17a1,1,0,0,0-.835-.986l-3.96-.66a14.1,14.1,0,0,0-.581-1.407l2.332-3.265a1,1,0,0,0-.107-1.288L30.606,5.151a1,1,0,0,0-1.288-.107L26.053,7.376A14.1,14.1,0,0,0,24.646,6.8l-.66-3.96A1,1,0,0,0,23,2H17a1,1,0,0,0-.986.835l-.66,3.96a14.1,14.1,0,0,0-1.407.581L10.682,5.044a1,1,0,0,0-1.288.107L5.151,9.394a1,1,0,0,0-.107,1.288l2.343,3.28a13.254,13.254,0,0,0-.573,1.389l-3.979.663A1,1,0,0,0,2,17v6a1,1,0,0,0,.835.986l3.978.663a14.849,14.849,0,0,0,.563,1.4L5.044,29.318a1,1,0,0,0,.107,1.288l4.243,4.243a1,1,0,0,0,1.288.107l3.265-2.332a14.1,14.1,0,0,0,1.407.581l.66,3.96A1,1,0,0,0,17,38h6a1,1,0,0,0,.986-.835l.66-3.96a14.1,14.1,0,0,0,1.407-.581l.727.519A18.779,18.779,0,0,0,24,43,19,19,0,1,0,43,24ZM25.668,30.577a11.966,11.966,0,0,1-2.2.908,1,1,0,0,0-.7.793L22.153,36H17.847l-.62-3.722a1,1,0,0,0-.7-.793,11.966,11.966,0,0,1-2.2-.908,1,1,0,0,0-1.054.067L10.2,32.836,7.164,29.792l2.192-3.07a1,1,0,0,0,.067-1.054A13.512,13.512,0,0,1,8.5,23.423a1,1,0,0,0-.777-.65L4,22.153V17.847l3.722-.62a1,1,0,0,0,.777-.65,16.4,16.4,0,0,1,.947-2.289,1,1,0,0,0-.09-1.01l-2.192-3.07,3.044-3.044,3.07,2.192a1,1,0,0,0,1.054.067,11.966,11.966,0,0,1,2.2-.908,1,1,0,0,0,.7-.793L17.847,4h4.306l.62,3.722a1,1,0,0,0,.7.793,11.966,11.966,0,0,1,2.2.908,1,1,0,0,0,1.054-.067L29.8,7.164l3.044,3.044-2.192,3.07a1,1,0,0,0-.067,1.054,11.966,11.966,0,0,1,.908,2.2,1,1,0,0,0,.793.7l3.722.62v4.306l-3.722.62a1,1,0,0,0-.793.7,11.966,11.966,0,0,1-.908,2.2,1,1,0,0,0,.067,1.054l2.192,3.07L29.8,32.846l-3.07-2.192a1,1,0,0,0-1.059-.077ZM44,59.949V57H42v2.949A16.994,16.994,0,0,1,26.051,44H29V42H26.037a16.748,16.748,0,0,1,2.372-7.693l.909.649a1,1,0,0,0,1.288-.107l4.243-4.243a1,1,0,0,0,.107-1.288l-.649-.909A16.748,16.748,0,0,1,42,26.037V29h2V26.051A16.994,16.994,0,0,1,59.949,42H57v2h2.949A16.994,16.994,0,0,1,44,59.949Z"/>
        <path id="Path_990584" data-name="Path 990584" d="M44,31H42V43a1,1,0,0,0,1,1h8V42H44Z"/>
        <path id="Path_990585" data-name="Path 990585" d="M25,17H21V11a1,1,0,0,0-1.91-.414l-5,11A1,1,0,0,0,15,23h4v6a1,1,0,0,0,.788.978A1.025,1.025,0,0,0,20,30a1,1,0,0,0,.91-.586l5-11A1,1,0,0,0,25,17Zm-4,7.383V22a1,1,0,0,0-1-1H16.553L19,15.617V18a1,1,0,0,0,1,1h3.447Z"/>
        <path id="Path_990586" data-name="Path 990586" d="M19,6h2V8H19Z"/>
        <path id="Path_990587" data-name="Path 990587" d="M9.808,9.808h2v2h-2Z" transform="translate(-4.477 10.808) rotate(-45)"/>
        <path id="Path_990588" data-name="Path 990588" d="M6,19H8v2H6Z"/>
        <path id="Path_990589" data-name="Path 990589" d="M9.808,28.192h2v2h-2Z" transform="translate(-17.477 16.192) rotate(-45)"/>
        <path id="Path_990590" data-name="Path 990590" d="M19,32h2v2H19Z"/>
        <path id="Path_990591" data-name="Path 990591" d="M28.192,28.192h2v2h-2Z" transform="translate(-12.092 29.192) rotate(-45)"/>
        <path id="Path_990592" data-name="Path 990592" d="M32,19h2v2H32Z"/>
        <path id="Path_990593" data-name="Path 990593" d="M28.192,9.808h2v2h-2Z" transform="translate(0.908 23.808) rotate(-45)"/>
        <path id="Path_990594" data-name="Path 990594" d="M53,7a4,4,0,1,0,4,4A4,4,0,0,0,53,7Zm0,6a2,2,0,1,1,2-2A2,2,0,0,1,53,13Z"/>
        <path id="Path_990595" data-name="Path 990595" d="M61.243,8.03l-.669-.167.355-.591a1,1,0,0,0-.151-1.222L57.95,3.222a1,1,0,0,0-1.222-.151l-.591.355-.167-.669A1,1,0,0,0,55,2H51a1,1,0,0,0-.97.757l-.167.669-.591-.355a1,1,0,0,0-1.222.151L45.222,6.05a1,1,0,0,0-.151,1.222l.355.591-.669.167A1,1,0,0,0,44,9v4a1,1,0,0,0,.757.97l.669.167-.355.591a1,1,0,0,0,.151,1.222l2.828,2.828a1,1,0,0,0,1.222.151l.591-.355.167.669A1,1,0,0,0,51,20h4a1,1,0,0,0,.97-.757l.167-.669.591.355a1,1,0,0,0,1.222-.151l2.828-2.828a1,1,0,0,0,.151-1.222l-.355-.591.669-.167A1,1,0,0,0,62,13V9a1,1,0,0,0-.757-.97ZM60,12.219l-1.221.3A1,1,0,0,0,58.165,14l.647,1.079-1.724,1.724-1.079-.647a1,1,0,0,0-1.485.614L54.219,18H51.781l-.3-1.221A1,1,0,0,0,50,16.165l-1.079.647-1.724-1.724.647-1.079a1,1,0,0,0-.614-1.485L46,12.219V9.781l1.221-.3A1,1,0,0,0,47.835,8l-.647-1.079,1.724-1.724,1.079.647a1,1,0,0,0,1.485-.615l.3-1.22h2.438l.3,1.22A1,1,0,0,0,56,5.84l1.079-.647L58.8,6.917,58.155,8a1,1,0,0,0,.614,1.485l1.221.3Z"/>
        <path id="Path_990596" data-name="Path 990596" d="M11,49a4,4,0,1,0,4,4A4,4,0,0,0,11,49Zm0,6a2,2,0,1,1,2-2A2,2,0,0,1,11,55Z"/>
        <path id="Path_990597" data-name="Path 990597" d="M18.929,56.728l-.355-.591.669-.167A1,1,0,0,0,20,55V51a1,1,0,0,0-.757-.97l-.669-.167.355-.591a1,1,0,0,0-.151-1.222L15.95,45.222a1,1,0,0,0-1.222-.151l-.591.355-.167-.669A1,1,0,0,0,13,44H9a1,1,0,0,0-.97.757l-.167.669-.591-.355a1,1,0,0,0-1.222.151L3.222,48.05a1,1,0,0,0-.151,1.222l.355.591-.669.167A1,1,0,0,0,2,51v4a1,1,0,0,0,.757.97l.669.167-.355.591a1,1,0,0,0,.151,1.222L6.05,60.778a1,1,0,0,0,1.222.151l.591-.355.167.669A1,1,0,0,0,9,62h4a1,1,0,0,0,.97-.757l.167-.669.591.355a1,1,0,0,0,1.222-.151l2.828-2.828a1,1,0,0,0,.151-1.222ZM18,54.219l-1.221.3A1,1,0,0,0,16.165,56l.647,1.079-1.724,1.724-1.079-.647a1,1,0,0,0-1.485.614L12.219,60H9.781l-.3-1.221A1,1,0,0,0,8,58.165l-1.079.647L5.188,57.088l.647-1.079a1,1,0,0,0-.614-1.485L4,54.219V51.781l1.221-.3A1,1,0,0,0,5.835,50l-.647-1.079,1.724-1.724,1.079.647a1,1,0,0,0,1.485-.615l.3-1.22h2.438l.3,1.22A1,1,0,0,0,14,47.84l1.079-.647L16.8,48.917,16.155,50a1,1,0,0,0,.614,1.485l1.221.3Z"/>
      </g>
    </g>
  </g>
</svg>
