<svg xmlns="http://www.w3.org/2000/svg" xmlns:xlink="http://www.w3.org/1999/xlink" width="110" height="110" viewBox="0 0 110 110">
  <defs>
    <filter id="Path_982547" x="0" y="0" width="110" height="110" filterUnits="userSpaceOnUse">
      <feOffset dy="3" input="SourceAlpha"/>
      <feGaussianBlur stdDeviation="3" result="blur"/>
      <feFlood flood-opacity="0.161"/>
      <feComposite operator="in" in2="blur"/>
      <feComposite in="SourceGraphic"/>
    </filter>
  </defs>
  <g id="Group_1157493" data-name="Group 1157493" transform="translate(-325.187 -2269.224)">
    <g id="Group_1157205" data-name="Group 1157205" transform="translate(334.187 2275.224)">
      <g id="Group_1155734" data-name="Group 1155734">
        <g id="Group_1154704" data-name="Group 1154704">
          <g id="Group_1150790" data-name="Group 1150790">
            <g id="Group_1154214" data-name="Group 1154214">
              <g id="Group_1152583" data-name="Group 1152583">
                <g id="Group_1146973" data-name="Group 1146973" transform="translate(0 0)">
                  <g id="Group_1146954" data-name="Group 1146954">
                    <g transform="matrix(1, 0, 0, 1, -9, -6)" filter="url(#Path_982547)">
                      <g id="Path_982547-2" data-name="Path 982547" transform="translate(9 6)" fill="#fcf3f0">
                        <path d="M 46 90.49987030029297 C 39.99187850952148 90.49987030029297 34.16426849365234 89.32350921630859 28.67905426025391 87.00345611572266 C 23.38019943237305 84.76224517822266 18.62104034423828 81.55341339111328 14.53374671936035 77.46613311767578 C 10.44646644592285 73.37885284423828 7.237639904022217 68.61969757080078 4.996413230895996 63.32085418701172 C 2.676359891891479 57.83565521240234 1.5 52.008056640625 1.5 45.99993515014648 C 1.5 39.99181365966797 2.676359891891479 34.16421508789062 4.996413230895996 28.67901420593262 C 7.237639904022217 23.38017463684082 10.44646644592285 18.62101554870605 14.53374671936035 14.53373527526855 C 18.62104034423828 10.44645500183105 23.38019943237305 7.23762845993042 28.67905426025391 4.996415138244629 C 34.16426849365234 2.676361799240112 39.99187850952148 1.500001788139343 46 1.500001788139343 C 52.00812149047852 1.500001788139343 57.83573150634766 2.676361799240112 63.32094573974609 4.996415138244629 C 68.61979675292969 7.23762845993042 73.37895965576172 10.44645500183105 77.46625518798828 14.53373527526855 C 81.55353546142578 18.62101554870605 84.76235961914062 23.38017463684082 87.00358581542969 28.67901420593262 C 89.32363891601562 34.16421508789062 90.5 39.99181365966797 90.5 45.99993515014648 C 90.5 52.008056640625 89.32363891601562 57.83565521240234 87.00358581542969 63.32085418701172 C 84.76235961914062 68.61969757080078 81.55353546142578 73.37885284423828 77.46625518798828 77.46613311767578 C 73.37895965576172 81.55341339111328 68.61979675292969 84.76224517822266 63.32094573974609 87.00345611572266 C 57.83573150634766 89.32350921630859 52.00812149047852 90.49987030029297 46 90.49987030029297 Z" stroke="none"/>
                        <path d="M 46 2.999992370605469 C 40.1937141418457 2.999992370605469 34.56269836425781 4.136489868164062 29.26337051391602 6.377906799316406 C 24.14332580566406 8.543502807617188 19.54441070556641 11.64437866210938 15.59439849853516 15.59437561035156 C 11.64440155029297 19.54439544677734 8.54351806640625 24.14329528808594 6.377914428710938 29.26333618164062 C 4.136497497558594 34.56264877319336 3 40.19366455078125 3 45.99993515014648 C 3 51.80620574951172 4.136497497558594 57.43720626831055 6.377914428710938 62.73651885986328 C 8.54351806640625 67.8565673828125 11.64440155029297 72.45545959472656 15.59439849853516 76.40547943115234 C 19.54441070556641 80.35547637939453 24.14332580566406 83.45635223388672 29.26337051391602 85.6219482421875 C 34.56269836425781 87.86336517333984 40.1937141418457 88.99986267089844 46 88.99986267089844 C 51.8062858581543 88.99986267089844 57.43730163574219 87.86336517333984 62.73661422729492 85.6219482421875 C 67.85667419433594 83.45635223388672 72.45557403564453 80.35547637939453 76.40558624267578 76.40547943115234 C 80.35559844970703 72.45545959472656 83.45647430419922 67.8565673828125 85.6220703125 62.73651885986328 C 87.86350250244141 57.43720626831055 89 51.80620574951172 89 45.99993515014648 C 89 40.19366455078125 87.86350250244141 34.56264877319336 85.6220703125 29.26333618164062 C 83.45647430419922 24.14329528808594 80.35559844970703 19.54439544677734 76.40558624267578 15.59437561035156 C 72.45557403564453 11.64437866210938 67.85667419433594 8.543502807617188 62.73661422729492 6.377906799316406 C 57.43730163574219 4.136489868164062 51.8062858581543 2.999992370605469 46 2.999992370605469 M 46 -7.62939453125e-06 C 71.40509033203125 -7.62939453125e-06 92 20.59486389160156 92 45.99993515014648 C 92 71.40499114990234 71.40509033203125 91.99986267089844 46 91.99986267089844 C 20.59490203857422 91.99986267089844 0 71.40499114990234 0 45.99993515014648 C 0 20.59486389160156 20.59490203857422 -7.62939453125e-06 46 -7.62939453125e-06 Z" stroke="none" fill="#e89076"/>
                      </g>
                    </g>
                  </g>
                </g>
              </g>
            </g>
          </g>
        </g>
      </g>
      <g id="users_391194" transform="translate(16.315 18.857)">
        <path id="Path_903443" data-name="Path 903443" d="M43.983,29.77h0A14.093,14.093,0,0,0,29.89,43.863v6.413H58.076V43.863A14.093,14.093,0,0,0,43.983,29.77Z" transform="translate(-26.424 -28.86)" fill="#515262"/>
        <path id="Path_903444" data-name="Path 903444" d="M128.175,29.079h.007a14.239,14.239,0,0,0-3.042.368,14.134,14.134,0,0,1,11.051,13.805v6.32h6.063v-6.32A14.15,14.15,0,0,0,128.175,29.079Z" transform="translate(-110.629 -28.249)" opacity="0.1"/>
        <path id="Path_903445" data-name="Path 903445" d="M21.207,174.69a3.461,3.461,0,0,0-3.461,3.461h0a3.461,3.461,0,0,0,3.461,3.461H22.89V174.69H21.207Z" transform="translate(-15.688 -156.976)" fill="#e6b696"/>
        <path id="Path_903446" data-name="Path 903446" d="M41.143,374.483a18.016,18.016,0,0,0-10.117-9.991l-.073-.027H18.033A18.016,18.016,0,0,0,7.844,374.483h33.3Z" transform="translate(-6.935 -324.744)" fill="#ff6465"/>
        <path id="Path_903447" data-name="Path 903447" d="M105.838,307.787v-6.5H98.512v6.5a17.858,17.858,0,0,0-2.8.823,6.7,6.7,0,0,0,12.92,0A17.868,17.868,0,0,0,105.838,307.787Z" transform="translate(-84.616 -268.89)" fill="#e6b696"/>
        <path id="Path_903448" data-name="Path 903448" d="M216.99,374.483a18.016,18.016,0,0,1,10.117-9.991l.073-.027H240.1a18.017,18.017,0,0,1,10.189,10.019h-33.3Z" transform="translate(-191.829 -324.744)" fill="#a5eb78"/>
        <path id="Path_903449" data-name="Path 903449" d="M307.66,307.787v-6.5h7.326v6.5a17.857,17.857,0,0,1,2.8.823,6.7,6.7,0,0,1-12.92,0A17.865,17.865,0,0,1,307.66,307.787Z" transform="translate(-269.512 -268.89)" fill="#e6b696"/>
        <path id="Path_903450" data-name="Path 903450" d="M120.056,299.923v6.154a15.485,15.485,0,0,0,7.276,0v-6.154h-7.276Z" transform="translate(-106.135 -267.687)" opacity="0.1"/>
        <path id="Path_903451" data-name="Path 903451" d="M329.2,299.924v6.154a15.481,15.481,0,0,0,7.276,0v-6.154H329.2Z" transform="translate(-291.03 -267.688)" opacity="0.1"/>
        <path id="Path_903452" data-name="Path 903452" d="M68.207,109.383a2.17,2.17,0,0,1-2.17-2.17,2.17,2.17,0,1,1-4.339,0,2.17,2.17,0,1,1-4.339,0,2.17,2.17,0,1,1-4.339,0,2.168,2.168,0,0,1-3.887,1.323,11.064,11.064,0,0,0-1.659,5.843v6.075a12.054,12.054,0,0,0,24.109,0v-6.075a11.064,11.064,0,0,0-1.659-5.843A2.164,2.164,0,0,1,68.207,109.383Z" transform="translate(-41.969 -97.323)" fill="#f0c5a6"/>
        <path id="Path_903453" data-name="Path 903453" d="M253.131,29.77h0a14.093,14.093,0,0,0-14.093,14.093v6.413h28.186V43.863A14.093,14.093,0,0,0,253.131,29.77Z" transform="translate(-211.32 -28.86)" fill="#ffd782"/>
        <path id="Path_903454" data-name="Path 903454" d="M337.321,29.079h.007a14.239,14.239,0,0,0-3.042.368,14.134,14.134,0,0,1,11.052,13.805v6.32H351.4v-6.32A14.15,14.15,0,0,0,337.321,29.079Z" transform="translate(-295.523 -28.249)" opacity="0.1"/>
        <path id="Path_903455" data-name="Path 903455" d="M451.577,174.69a3.461,3.461,0,0,1,3.461,3.461h0a3.461,3.461,0,0,1-3.461,3.461h-1.683V174.69h1.683Z" transform="translate(-397.726 -156.976)" fill="#e6b696"/>
        <path id="Path_903456" data-name="Path 903456" d="M259.993,109.383a2.17,2.17,0,0,0,2.17-2.17,2.17,2.17,0,0,0,4.339,0,2.17,2.17,0,1,0,4.339,0,2.17,2.17,0,1,0,4.339,0,2.168,2.168,0,0,0,3.887,1.323,11.064,11.064,0,0,1,1.658,5.843v6.075a12.054,12.054,0,0,1-24.109,0v-6.075a11.064,11.064,0,0,1,1.659-5.843A2.165,2.165,0,0,0,259.993,109.383Z" transform="translate(-226.86 -97.323)" fill="#f0c5a6"/>
        <path id="Path_903457" data-name="Path 903457" d="M148.557,61.142h0a14.093,14.093,0,0,0-14.093,14.093v6.413H162.65V75.235A14.093,14.093,0,0,0,148.557,61.142Z" transform="translate(-118.872 -56.595)" fill="#5a4146"/>
        <path id="Path_903458" data-name="Path 903458" d="M232.748,60.451h.007a14.24,14.24,0,0,0-3.042.368,14.134,14.134,0,0,1,11.051,13.805v6.32h6.063v-6.32A14.15,14.15,0,0,0,232.748,60.451Z" transform="translate(-203.076 -55.984)" opacity="0.1"/>
        <g id="Group_1143006" data-name="Group 1143006" transform="translate(14.184 21.352)">
          <path id="Path_903459" data-name="Path 903459" d="M125.78,206.062a3.461,3.461,0,0,0-3.461,3.461h0a3.461,3.461,0,0,0,3.461,3.461h1.683v-6.922H125.78Z" transform="translate(-122.319 -206.062)" fill="#e6b273"/>
          <path id="Path_903460" data-name="Path 903460" d="M347,206.062a3.461,3.461,0,0,1,3.461,3.461h0A3.461,3.461,0,0,1,347,212.984H345.32v-6.922H347Z" transform="translate(-319.461 -206.062)" fill="#e6b273"/>
        </g>
        <path id="Path_903461" data-name="Path 903461" d="M145.717,405.855a18.016,18.016,0,0,0-10.117-9.991l-.073-.027h-12.92a18.016,18.016,0,0,0-10.189,10.019h33.3Z" transform="translate(-99.382 -352.478)" fill="#6ab2cc"/>
        <path id="Path_903462" data-name="Path 903462" d="M210.412,339.16v-6.5h-7.326v6.5a17.853,17.853,0,0,0-2.8.823,6.7,6.7,0,0,0,12.92,0A17.839,17.839,0,0,0,210.412,339.16Z" transform="translate(-177.064 -296.625)" fill="#f0c087"/>
        <path id="Path_903463" data-name="Path 903463" d="M224.629,331.3v6.154a15.484,15.484,0,0,0,7.276,0V331.3h-7.276Z" transform="translate(-198.582 -295.421)" opacity="0.1"/>
        <path id="Path_903464" data-name="Path 903464" d="M172.78,140.755a2.17,2.17,0,0,1-2.17-2.17,2.17,2.17,0,0,1-4.339,0,2.17,2.17,0,0,1-4.339,0,2.17,2.17,0,0,1-4.339,0,2.168,2.168,0,0,1-3.887,1.323,11.064,11.064,0,0,0-1.659,5.843v6.075a12.054,12.054,0,0,0,24.109,0v-6.075a11.065,11.065,0,0,0-1.658-5.843A2.165,2.165,0,0,1,172.78,140.755Z" transform="translate(-134.416 -125.057)" fill="#f0c087"/>
        <path id="Path_903468" data-name="Path 903468" d="M59.3,71.322A18.857,18.857,0,0,0,46.385,60.1V57.186a13.009,13.009,0,0,0,8.176-9.773,4.366,4.366,0,0,0,2.254-7.52V36.928A15.032,15.032,0,0,0,51.862,25.79a.909.909,0,0,0-1.219,1.35A13.21,13.21,0,0,1,55,36.928v1.953q-.11-.03-.221-.053c0-.046,0-.092,0-.139a12.156,12.156,0,0,0-1.014-4.557,11.617,11.617,0,0,0-.775-1.473.909.909,0,0,0-1.493-.077,1.258,1.258,0,0,1-2.257-.767.909.909,0,1,0-1.819,0,1.26,1.26,0,0,1-2.521,0,.909.909,0,1,0-1.819,0,1.25,1.25,0,0,1-.135.561,1.287,1.287,0,0,1-.374.445l-.019.014a14.981,14.981,0,0,0-1.988-2.6l-.031-.032A15.03,15.03,0,0,0,34.7,26.425c-.078-.028-.536-.24-.594-.2a13.2,13.2,0,0,1,13.686-1.052.909.909,0,0,0,.827-1.62,15.01,15.01,0,0,0-16.778,2.163,15.017,15.017,0,0,0-4.312,0,15,15,0,0,0-18.707-.988.909.909,0,1,0,1.06,1.478,13.188,13.188,0,0,1,15.381.019,15.016,15.016,0,0,0-6.044,3.6,15.293,15.293,0,0,0-1.627,1.862,13.263,13.263,0,0,0-.767,1.146l-.019-.014a1.285,1.285,0,0,1-.508-1.006.909.909,0,0,0-1.819,0,1.26,1.26,0,0,1-2.521,0,.909.909,0,0,0-1.819,0,1.259,1.259,0,0,1-2.257.767.909.909,0,0,0-1.493.077,11.9,11.9,0,0,0-1.678,4.656A12.611,12.611,0,0,0,4.6,38.688c0,.046,0,.092,0,.139-.074.016-.148.034-.221.053V36.927a13.2,13.2,0,0,1,3.017-8.394.909.909,0,1,0-1.4-1.159,15.025,15.025,0,0,0-3.434,9.553v2.965a4.366,4.366,0,0,0,2.254,7.52,13.008,13.008,0,0,0,8.176,9.773V60.1a18.738,18.738,0,0,0-6.675,3.161A.909.909,0,0,0,7.4,64.717a17.058,17.058,0,0,1,3.164-1.862c-.245.111,1.665,2.438,1.86,2.615a7.611,7.611,0,0,0,5.138,2H17.7a18.945,18.945,0,0,0-3.127,3.282H2.32a17.047,17.047,0,0,1,2.53-3.709.909.909,0,0,0-1.356-1.213,18.817,18.817,0,0,0-3.427,5.49A.909.909,0,0,0,.91,72.572H13.366a18.724,18.724,0,0,0-1.173,2.387.909.909,0,0,0,.843,1.251h33.3a.909.909,0,0,0,.843-1.251A18.7,18.7,0,0,0,46,72.573H58.461a.91.91,0,0,0,.843-1.251Zm-14.739-13.6v3.1a.909.909,0,0,0,.725.89,16.982,16.982,0,0,1,1.821.485l-.025.057a5.746,5.746,0,0,1-1.48,1.98,5.793,5.793,0,0,1-9.069-1.979l-.025-.057a17,17,0,0,1,1.821-.485.909.909,0,0,0,.725-.89v-3.1l.14.028a13,13,0,0,0,5.27-.008Zm-9.648,8.257a5.791,5.791,0,0,1-10.531-.148l.052-.017a17.247,17.247,0,0,1,1.769-.469.909.909,0,0,0,.725-.89v-3.1l.1.02a13.006,13.006,0,0,0,5.193.024c.072-.014.144-.028.216-.044v3.1a.909.909,0,0,0,.725.89,16.8,16.8,0,0,1,1.764.467l.057.019-.025.056ZM16.729,49.12a2.549,2.549,0,0,1-.526-4.484,2.617,2.617,0,0,1,.507-.271l.012,0v4.333c0,.133,0,.265.007.4C16.729,49.1,16.729,49.11,16.729,49.12Zm4.278-10.588a3.069,3.069,0,0,0,2.17-.9,3.074,3.074,0,0,0,4.339,0,3.071,3.071,0,0,0,1.856.88,3.106,3.106,0,0,0,.313.016,3.069,3.069,0,0,0,2.17-.9,3.074,3.074,0,0,0,4.339,0,3.079,3.079,0,0,0,3.618.536,10.191,10.191,0,0,1,1.018,4.447v6.075c0,.331-.016.662-.045.992l0,.05a11.212,11.212,0,0,1-2.891,6.493l-.244.256a11.155,11.155,0,0,1-4.9,2.926l-.017.005a11.175,11.175,0,0,1-6.094,0l-.017-.005a11.322,11.322,0,0,1-7.975-9.183l0-.017a11.083,11.083,0,0,1-.1-1.516V42.618a10.194,10.194,0,0,1,1.018-4.447,3.031,3.031,0,0,0,.515.217A3.084,3.084,0,0,0,21.007,38.532ZM35.036,63.947q-.386-.114-.778-.212v-.617q.277-.137.555-.263c-.027.012.54,1.032.614,1.146.018.027.034.055.053.082l-.048-.015Q35.235,64.005,35.036,63.947Zm-.006-3.153h0l-.081.031c-.23.09-.46.187-.69.288v-.289a12.944,12.944,0,0,0,2.981-1.6V60.1A18.844,18.844,0,0,0,35.031,60.794Zm7.612-11.709c0-.13.006-.26.006-.391V44.361l.011,0a2.577,2.577,0,0,1,.476.25l.031.021a2.549,2.549,0,0,1-.526,4.483C42.643,49.108,42.643,49.1,42.643,49.085ZM22.132,59.223a12.946,12.946,0,0,0,2.981,1.6v.289c-.231-.1-.463-.2-.7-.291l-.073-.027h0a18.814,18.814,0,0,0-2.207-.7v-.873h0Zm2.981,4.511q-.593.148-1.175.334l-.047.014c.128-.191.246-.39.356-.591s.218-.421.311-.637q.28.126.555.263v.617ZM54.769,45.482c0-.012,0-.024,0-.035,0-.13.006-.26.006-.391V40.723l.012,0a2.561,2.561,0,0,1,.476.25l.031.021a2.549,2.549,0,0,1-.526,4.483ZM46.151,34.894a3.07,3.07,0,0,0,2.17-.9,3.079,3.079,0,0,0,3.618.536,10.194,10.194,0,0,1,1.018,4.447v6.075c0,.439-.036.874-.077,1.311a11.174,11.174,0,0,1-7.97,9.4l-.051.015a11.265,11.265,0,0,1-4.518.326l-.016,0a12.951,12.951,0,0,0,.9-1.5l.006-.012a13.025,13.025,0,0,0,1.18-3.416l0-.026c.006-.031.012-.062.018-.093a4.366,4.366,0,0,0,2.254-7.52V40.566A14.956,14.956,0,0,0,44.07,36.3l0-.016a15.163,15.163,0,0,0-.676-1.832l.015-.01a4.911,4.911,0,0,0,.574-.45,3.079,3.079,0,0,0,2.173.9ZM32.636,27.715q.6.137,1.181.331a13.359,13.359,0,0,1,5.442,3.465,13.215,13.215,0,0,1,2.993,5.064l.011.035a13.261,13.261,0,0,1,.55,2.735l0,.033c.036.395.054.792.054,1.188v1.953c-.073-.02-.147-.038-.221-.053,0-.046,0-.092,0-.139a11.984,11.984,0,0,0-1.79-6.03.909.909,0,0,0-1.493-.077,1.259,1.259,0,0,1-2.257-.767.909.909,0,0,0-1.819,0,1.26,1.26,0,0,1-2.521,0,.909.909,0,0,0-1.819,0,1.26,1.26,0,0,1-2.52,0,.909.909,0,0,0-1.819,0,1.26,1.26,0,1,1-2.52,0,.909.909,0,0,0-1.819,0,1.258,1.258,0,0,1-2.257.767.909.909,0,0,0-1.493.077,11.773,11.773,0,0,0-1.129,2.375,12.507,12.507,0,0,0-.537,2.189,11.807,11.807,0,0,0-.125,1.476c0,.043,0,.086,0,.129-.074.016-.148.034-.221.053V40.566a13.183,13.183,0,0,1,.916-4.83,13.365,13.365,0,0,1,7.413-7.425,13.127,13.127,0,0,1,7.8-.6ZM4.6,45.482A2.556,2.556,0,0,1,2.968,43.1a2.587,2.587,0,0,1,1.616-2.373l.012,0v4.333c0,.131,0,.261.006.391C4.6,45.459,4.6,45.47,4.6,45.482Zm1.89.885a11.23,11.23,0,0,1-.077-1.311V38.981a10.194,10.194,0,0,1,1.018-4.447A3.079,3.079,0,0,0,11.051,34a3.074,3.074,0,0,0,4.343,0,5.654,5.654,0,0,0,.532.423l.042.027.015.01c-.131.294-.251.592-.363.894s-.219.622-.313.938l0,.016a14.956,14.956,0,0,0-.618,4.264v2.965a4.366,4.366,0,0,0,2.254,7.52c.006.033.013.066.019.1l0,.013A13.032,13.032,0,0,0,19.047,56.1l-.015,0A11.142,11.142,0,0,1,6.493,46.367Zm7.589,15.345a.909.909,0,0,0,.725-.89v-3.1l.095.019a13.024,13.024,0,0,0,5.413-.019v3.1a.909.909,0,0,0,.725.89,9.081,9.081,0,0,1,1.822.492A6.054,6.054,0,0,1,19.267,65.4a5.77,5.77,0,0,1-1.707.259,5.868,5.868,0,0,1-4.538-2.2,3.949,3.949,0,0,1-.753-1.26A11.94,11.94,0,0,1,14.081,61.712Zm.365,12.68a17.172,17.172,0,0,1,6.614-7.057l.01-.006a17.473,17.473,0,0,1,1.618-.835,10.189,10.189,0,0,0,.659,1.222,7.617,7.617,0,0,0,13.335-1.222c.446.2.884.42,1.311.658a17.179,17.179,0,0,1,4.947,4.171q.294.363.568.742a17.047,17.047,0,0,1,1.416,2.326H14.447ZM44.8,70.754a18.931,18.931,0,0,0-3.128-3.282h.135A7.711,7.711,0,0,0,47.839,64.5a7.61,7.61,0,0,0,.971-1.649,17.149,17.149,0,0,1,8.241,7.9Z" transform="translate(-0.001 -21.925)"/>
      </g>
    </g>
  </g>
</svg>
