<svg xmlns="http://www.w3.org/2000/svg" xmlns:xlink="http://www.w3.org/1999/xlink" width="108" height="108" viewBox="0 0 108 108">
  <defs>
    <filter id="Path_982547" x="0" y="0" width="108" height="108" filterUnits="userSpaceOnUse">
      <feOffset dy="3" input="SourceAlpha"/>
      <feGaussianBlur stdDeviation="3" result="blur"/>
      <feFlood flood-opacity="0.161"/>
      <feComposite operator="in" in2="blur"/>
      <feComposite in="SourceGraphic"/>
    </filter>
  </defs>
  <g id="Group_1157463" data-name="Group 1157463" transform="translate(-641 -4387)">
    <g id="Group_1157162" data-name="Group 1157162" transform="translate(650 4393)">
      <g id="Group_1155739" data-name="Group 1155739">
        <g id="Group_1153134" data-name="Group 1153134">
          <g id="Group_1149598" data-name="Group 1149598">
            <g id="Group_1148770" data-name="Group 1148770">
              <g id="Group_1146954" data-name="Group 1146954">
                <g transform="matrix(1, 0, 0, 1, -9, -6)" filter="url(#Path_982547)">
                  <g id="Path_982547-2" data-name="Path 982547" transform="translate(9 6)" fill="#f2f7f5">
                    <path d="M 45 88.5 C 39.12687683105469 88.5 33.43022537231445 87.35007476806641 28.06830024719238 85.08217620849609 C 22.88852500915527 82.89131164550781 18.23629951477051 79.75458526611328 14.2408504486084 75.75914764404297 C 10.24541282653809 71.76370239257812 7.108687400817871 67.11147308349609 4.917825222015381 61.93170166015625 C 2.649924993515015 56.56977462768555 1.5 50.87312316894531 1.5 45 C 1.5 39.12687683105469 2.649924993515015 33.43022537231445 4.917825222015381 28.06830024719238 C 7.108687400817871 22.88852500915527 10.24541282653809 18.23629951477051 14.2408504486084 14.2408504486084 C 18.23629951477051 10.24541282653809 22.88852500915527 7.108687400817871 28.06830024719238 4.917825222015381 C 33.43022537231445 2.649924993515015 39.12687683105469 1.5 45 1.5 C 50.87312316894531 1.5 56.56977462768555 2.649924993515015 61.93170166015625 4.917825222015381 C 67.11147308349609 7.108687400817871 71.76370239257812 10.24541282653809 75.75914764404297 14.2408504486084 C 79.75458526611328 18.23629951477051 82.89131164550781 22.88852500915527 85.08217620849609 28.06830024719238 C 87.35007476806641 33.43022537231445 88.5 39.12687683105469 88.5 45 C 88.5 50.87312316894531 87.35007476806641 56.56977462768555 85.08217620849609 61.93170166015625 C 82.89131164550781 67.11147308349609 79.75458526611328 71.76370239257812 75.75914764404297 75.75914764404297 C 71.76370239257812 79.75458526611328 67.11147308349609 82.89131164550781 61.93170166015625 85.08217620849609 C 56.56977462768555 87.35007476806641 50.87312316894531 88.5 45 88.5 Z" stroke="none"/>
                    <path d="M 45 3 C 39.32871246337891 3 33.82865524291992 4.110054016113281 28.65262985229492 6.299339294433594 C 23.65165710449219 8.414573669433594 19.15968322753906 11.44334411621094 15.301513671875 15.301513671875 C 11.44334411621094 19.15968322753906 8.414573669433594 23.65165710449219 6.299339294433594 28.65262985229492 C 4.110054016113281 33.82865524291992 3 39.32871246337891 3 45 C 3 50.67128753662109 4.110054016113281 56.17134475708008 6.299339294433594 61.34737396240234 C 8.414573669433594 66.34834289550781 11.44334411621094 70.84031677246094 15.301513671875 74.698486328125 C 19.15968322753906 78.55665588378906 23.65165710449219 81.58542633056641 28.65262985229492 83.70066070556641 C 33.82865524291992 85.88994598388672 39.32871246337891 87 45 87 C 50.67128753662109 87 56.17134475708008 85.88994598388672 61.34737396240234 83.70066070556641 C 66.34834289550781 81.58542633056641 70.84031677246094 78.55665588378906 74.698486328125 74.698486328125 C 78.55665588378906 70.84031677246094 81.58542633056641 66.34834289550781 83.70066070556641 61.34737396240234 C 85.88994598388672 56.17134475708008 87 50.67128753662109 87 45 C 87 39.32871246337891 85.88994598388672 33.82865524291992 83.70066070556641 28.65262985229492 C 81.58542633056641 23.65165710449219 78.55665588378906 19.15968322753906 74.698486328125 15.301513671875 C 70.84031677246094 11.44334411621094 66.34834289550781 8.414573669433594 61.34737396240234 6.299339294433594 C 56.17134475708008 4.110054016113281 50.67128753662109 3 45 3 M 45 0 C 69.85281372070312 0 90 20.14718627929688 90 45 C 90 69.85281372070312 69.85281372070312 90 45 90 C 20.14718627929688 90 0 69.85281372070312 0 45 C 0 20.14718627929688 20.14718627929688 0 45 0 Z" stroke="none" fill="#88bba9"/>
                  </g>
                </g>
              </g>
            </g>
          </g>
        </g>
      </g>
      <g id="recursos-humanos" transform="translate(17 18)">
        <g id="Group_1156561" data-name="Group 1156561" transform="translate(1.642 0.879)">
          <g id="Group_1156543" data-name="Group 1156543" transform="translate(27.25 28.129)">
            <path id="Path_990759" data-name="Path 990759" d="M38.142,40.032H32.868a8.92,8.92,0,0,1,5.951-6.962l.2-.07a8.115,8.115,0,0,0,3.191,4.175l.325.22.325-.22A8.115,8.115,0,0,0,46.053,33l1.108.369a6.122,6.122,0,0,1,3.894,3.964,6.244,6.244,0,0,1,.272,1.82,4.382,4.382,0,0,1-4.4,4.4H39.021V40.911A.882.882,0,0,0,38.142,40.032Z" transform="translate(-32.868 -33)" fill="#b4dd7f"/>
          </g>
          <g id="Group_1156544" data-name="Group 1156544" transform="translate(19.339 35.161)">
            <path id="Path_990760" data-name="Path 990760" d="M37.933,41.879v2.637H23.868V41.879A.882.882,0,0,1,24.747,41H37.053A.882.882,0,0,1,37.933,41.879Z" transform="translate(-23.868 -41)" fill="#aab2bd"/>
          </g>
          <g id="Group_1156545" data-name="Group 1156545" transform="translate(33.403 42.194)">
            <path id="Path_990761" data-name="Path 990761" d="M55.691,49v9.669a.882.882,0,0,1-.879.879H39.868V49Z" transform="translate(-39.868 -49)" fill="#cf9e76"/>
          </g>
          <g id="Group_1156546" data-name="Group 1156546" transform="translate(3.516 42.194)">
            <path id="Path_990762" data-name="Path 990762" d="M35.755,49V59.548H6.747a.882.882,0,0,1-.879-.879V49Z" transform="translate(-5.868 -49)" fill="#cf9e76"/>
          </g>
          <g id="Group_1156547" data-name="Group 1156547" transform="translate(1.758 38.677)">
            <path id="Path_990763" data-name="Path 990763" d="M53.094,45.879v1.758a.882.882,0,0,1-.879.879H4.747a.882.882,0,0,1-.879-.879V45.879A.882.882,0,0,1,4.747,45H52.215A.882.882,0,0,1,53.094,45.879Z" transform="translate(-3.868 -45)" fill="#b27946"/>
          </g>
          <g id="Group_1156548" data-name="Group 1156548" transform="translate(6.153 28.129)">
            <path id="Path_990764" data-name="Path 990764" d="M17.219,38.274l1.319,5.274H8.868l.879-5.274.756-4.536a.878.878,0,0,1,.87-.738h3.841a.874.874,0,0,1,.853.668Z" transform="translate(-8.868 -33)" fill="#656d78"/>
          </g>
          <g id="Group_1156549" data-name="Group 1156549" transform="translate(19.339 19.339)">
            <path id="Path_990765" data-name="Path 990765" d="M27.384,23.879V36.185a.882.882,0,0,1-.879.879H23.868V23h2.637A.882.882,0,0,1,27.384,23.879Z" transform="translate(-23.868 -23)" fill="#969faa"/>
          </g>
          <g id="Group_1156550" data-name="Group 1156550" transform="translate(0 19.339)">
            <path id="Path_990766" data-name="Path 990766" d="M21.207,23V37.065H16.372l-1.152-4.606a.874.874,0,0,0-.853-.668H10.526a.878.878,0,0,0-.87.738L8.9,37.065H2.747a.882.882,0,0,1-.879-.879V23.879A.882.882,0,0,1,2.747,23h18.46Z" transform="translate(-1.868 -23)" fill="#ccd1d9"/>
          </g>
          <g id="Group_1156551" data-name="Group 1156551" transform="translate(15.823 14.065)">
            <path id="Path_990767" data-name="Path 990767" d="M23.384,17.879v4.4H19.868v-4.4A.882.882,0,0,1,20.747,17h1.758A.882.882,0,0,1,23.384,17.879Z" transform="translate(-19.868 -17)" fill="#ef7385"/>
          </g>
          <g id="Group_1156552" data-name="Group 1156552" transform="translate(8.79 12.306)">
            <path id="Path_990768" data-name="Path 990768" d="M15.384,15.879v6.153H11.868V15.879A.882.882,0,0,1,12.747,15h1.758A.882.882,0,0,1,15.384,15.879Z" transform="translate(-11.868 -15)" fill="#ef7385"/>
          </g>
          <g id="Group_1156553" data-name="Group 1156553" transform="translate(0 1.758)">
            <path id="Path_990769" data-name="Path 990769" d="M5.384,3,8.9,8.274H7.142V20.581H3.626V8.274H1.868Z" transform="translate(-1.868 -3)" fill="#ef7385"/>
          </g>
          <g id="Group_1156554" data-name="Group 1156554" transform="translate(33.403 25.923)">
            <path id="Path_990770" data-name="Path 990770" d="M40.606,30.49a8.83,8.83,0,0,0,5.555,0L46.9,32.7a8.115,8.115,0,0,1-3.191,4.175l-.325.22-.325-.22A8.115,8.115,0,0,1,39.868,32.7Z" transform="translate(-39.868 -30.49)" fill="#f5e0cd"/>
          </g>
          <g id="Group_1156555" data-name="Group 1156555" transform="translate(45.71 14.065)">
            <path id="Path_990771" data-name="Path 990771" d="M53.868,18.978V17h1.758a1.763,1.763,0,0,1,1.758,1.758,1.771,1.771,0,0,1-1.758,1.758h-1.67A12.79,12.79,0,0,1,53.868,18.978Z" transform="translate(-53.868 -17)" fill="#f5e0cd"/>
          </g>
          <g id="Group_1156556" data-name="Group 1156556" transform="translate(28.129 7.032)">
            <path id="Path_990772" data-name="Path 990772" d="M51.449,16.032v3.516a8.79,8.79,0,1,1-17.581,0V16.032a5.262,5.262,0,0,1,3.314-4.843L42.658,9l5.476,2.189A5.262,5.262,0,0,1,51.449,16.032Z" transform="translate(-33.868 -9)" fill="#f5e0cd"/>
          </g>
          <g id="Group_1156557" data-name="Group 1156557" transform="translate(24.613 14.065)">
            <path id="Path_990773" data-name="Path 990773" d="M33.384,17v1.978a12.79,12.79,0,0,1-.088,1.538h-1.67a1.771,1.771,0,0,1-1.758-1.758A1.763,1.763,0,0,1,31.626,17Z" transform="translate(-29.868 -17)" fill="#f5e0cd"/>
          </g>
          <g id="Group_1156558" data-name="Group 1156558" transform="translate(26.371 17.581)">
            <path id="Path_990774" data-name="Path 990774" d="M33.626,35.944V31.153a3.309,3.309,0,0,0-.967-2.329,2.7,2.7,0,0,1-.791-1.907,2.76,2.76,0,0,1,.281-1.213A13.632,13.632,0,0,0,33.538,21h.088a8.8,8.8,0,0,0,6.013,8.342L38.9,31.548l-.2.07a8.847,8.847,0,0,0-5.063,4.325Z" transform="translate(-31.868 -21)" fill="#fcd770"/>
          </g>
          <g id="Group_1156559" data-name="Group 1156559" transform="translate(39.697 17.581)">
            <path id="Path_990775" data-name="Path 990775" d="M54.939,35.671l-2.171.211a6.122,6.122,0,0,0-3.894-3.964l-1.108-.369-.738-2.206A8.8,8.8,0,0,0,53.041,21H54.8l1.055,2.118A6.707,6.707,0,0,0,57.8,25.457a5.719,5.719,0,0,1,1.679,2,5.656,5.656,0,0,1,.607,2.532V30a5.7,5.7,0,0,1-5.151,5.67Z" transform="translate(-47.028 -21)" fill="#fcd770"/>
          </g>
          <g id="Group_1156560" data-name="Group 1156560" transform="translate(26.371)">
            <path id="Path_990776" data-name="Path 990776" d="M33.626,15.065H31.868v-4.4A9.664,9.664,0,0,1,41.537,1H43.3a9.664,9.664,0,0,1,9.669,9.669v4.4H51.207a5.262,5.262,0,0,0-3.314-4.843L42.416,8.032,36.94,10.221A5.262,5.262,0,0,0,33.626,15.065Z" transform="translate(-31.868 -1)" fill="#fcd770"/>
          </g>
        </g>
        <g id="Group_1156562" data-name="Group 1156562">
          <path id="Path_990777" data-name="Path 990777" d="M51.747,38.677h-4.87a5.247,5.247,0,0,0,1.354-3.516,6.986,6.986,0,0,0-.083-1.037l1.188-.115a6.572,6.572,0,0,0,3.31-11.8,5.764,5.764,0,0,1-1.692-2.027L50.365,19a2.617,2.617,0,0,0-.377-4.779V10.548A10.56,10.56,0,0,0,39.44,0H37.681A10.56,10.56,0,0,0,27.133,10.548v3.678a2.631,2.631,0,0,0,.879,5.112h.631a13.088,13.088,0,0,1-1.133,3.433,3.585,3.585,0,0,0,.672,4.134,2.4,2.4,0,0,1,.709,1.711v1.271h1.758v-1.27a4.145,4.145,0,0,0-1.224-2.954,1.826,1.826,0,0,1-.341-2.106c.215-.43.4-.873.576-1.322a9.721,9.721,0,0,0,5.025,5.077l-.335,1A9.718,9.718,0,0,0,28.2,35.161H23.618A1.76,1.76,0,0,0,25.376,33.4V21.1a1.76,1.76,0,0,0-1.758-1.758H21.86V15.823A1.76,1.76,0,0,0,20.1,14.065H18.344a1.76,1.76,0,0,0-1.758,1.758v3.516H14.828V14.065a1.76,1.76,0,0,0-1.758-1.758H11.311a1.76,1.76,0,0,0-1.758,1.758v5.274H7.8V8.79h2.521L5.158,1.052,0,8.79H2.521V19.339A1.76,1.76,0,0,0,.763,21.1V33.4a1.76,1.76,0,0,0,1.758,1.758H7.636L7.05,38.677H4.279a1.76,1.76,0,0,0-1.758,1.758v1.758a1.76,1.76,0,0,0,1.758,1.758v8.79A1.76,1.76,0,0,0,6.037,54.5H49.989a1.76,1.76,0,0,0,1.758-1.758v-8.79A1.76,1.76,0,0,0,53.5,42.194V40.435a1.76,1.76,0,0,0-1.758-1.758Zm-.155-15.06a4.814,4.814,0,0,1-2.424,8.643l-1.524.147a6.948,6.948,0,0,0-4.183-3.864l-.687-.229-.334-1a9.727,9.727,0,0,0,5.025-5.077c.171.449.36.891.575,1.32a1.825,1.825,0,0,1-.34,2.107,4.149,4.149,0,0,0-1.224,2.954v1.27h1.758v-1.27a2.4,2.4,0,0,1,.709-1.711,3.585,3.585,0,0,0,.671-4.136,13.074,13.074,0,0,1-1.132-3.431h.088l.816,1.631a7.532,7.532,0,0,0,2.209,2.649ZM49.11,17.581h-.84c-.011-.219-.039-.437-.039-.656v-1.1h.879a.879.879,0,1,1,0,1.758ZM28.892,10.548a8.8,8.8,0,0,1,8.79-8.79H39.44a8.8,8.8,0,0,1,8.79,8.79V13.4a10.149,10.149,0,0,0-7.7-9.859l-.425,1.705a8.39,8.39,0,0,1,5.693,4.86,6.216,6.216,0,0,0-1.436-.824l-5.8-2.321-5.8,2.321a6.181,6.181,0,0,0-1.436.823,8.388,8.388,0,0,1,5.693-4.86l-.425-1.705a10.149,10.149,0,0,0-7.7,9.859Zm-.879,7.032a.879.879,0,0,1,0-1.758h.879v1.1c0,.219-.027.437-.039.656Zm2.637.879V15a4.373,4.373,0,0,1,2.763-4.08l5.148-2.06,5.148,2.059A4.375,4.375,0,0,1,46.473,15V18.46a7.911,7.911,0,1,1-15.823,0Zm7.911,9.669a9.622,9.622,0,0,0,2.208-.265l.37,1.11a7.254,7.254,0,0,1-2.578,3.368,7.254,7.254,0,0,1-2.578-3.368l.37-1.11a9.628,9.628,0,0,0,2.208.265Zm-4.008,2.014a9.028,9.028,0,0,0,3.2,3.775l.812.541.812-.541a9.025,9.025,0,0,0,3.214-3.813l.317.105a5.213,5.213,0,0,1,3.569,4.951,3.52,3.52,0,0,1-3.516,3.516H35.925V36.919a1.79,1.79,0,0,0-.024-.239l3.916-.559.6,1.191,1.573-.787-.593-1.188a11.211,11.211,0,0,1,2.838-2.029l-.787-1.573a12.939,12.939,0,0,0-3.376,2.434l-.162.161-5.8.83H30a7.961,7.961,0,0,1,4.552-5.018Zm-.388,6.776v1.758H21.86V36.919Zm-14.065,0v1.758H18.15l-.879-3.516H21.86A1.76,1.76,0,0,0,20.1,36.919ZM23.618,21.1V33.4H21.86V21.1Zm-5.274-5.274H20.1v3.516H18.344Zm-7.032-1.758h1.758v5.274H11.311ZM3.284,7.032l1.874-2.81,1.874,2.81h-1V19.339H4.279V7.032ZM2.521,33.4V21.1H20.1V33.4h-3.27l-.985-3.942a1.754,1.754,0,0,0-1.705-1.332H10.3A1.754,1.754,0,0,0,8.564,29.6L7.93,33.4ZM10.3,29.887h3.844l2.2,8.79H8.833ZM6.037,43.952H34.166v8.79H6.037Zm43.952,8.79H35.924v-8.79H49.989ZM4.279,42.194V40.435H51.747v1.758Z" transform="translate(0 0)"/>
          <path id="Path_990778" data-name="Path 990778" d="M12.868,8h1.758V9.758H12.868Z" transform="translate(-1.557 -0.968)"/>
          <path id="Path_990779" data-name="Path 990779" d="M16.868,8h1.758V9.758H16.868Z" transform="translate(-2.04 -0.968)"/>
          <path id="Path_990780" data-name="Path 990780" d="M36.868,16h1.758v3.516H36.868Z" transform="translate(-4.46 -1.935)"/>
          <path id="Path_990781" data-name="Path 990781" d="M48.868,16h1.758v3.516H48.868Z" transform="translate(-5.911 -1.935)"/>
          <path id="Path_990782" data-name="Path 990782" d="M46.728,25.524l.092-.185-1.573-.787-.092.185a1.966,1.966,0,0,1-3.516,0l-.092-.185-1.573.787.092.185a3.723,3.723,0,0,0,6.661,0Z" transform="translate(-4.836 -2.97)"/>
        </g>
      </g>
    </g>
  </g>
</svg>
