<svg xmlns="http://www.w3.org/2000/svg" xmlns:xlink="http://www.w3.org/1999/xlink" width="103" height="103" viewBox="0 0 103 103">
  <defs>
    <filter id="Path_982547" x="0" y="0" width="103" height="103" filterUnits="userSpaceOnUse">
      <feOffset dy="3" input="SourceAlpha"/>
      <feGaussianBlur stdDeviation="3" result="blur"/>
      <feFlood flood-opacity="0.161"/>
      <feComposite operator="in" in2="blur"/>
      <feComposite in="SourceGraphic"/>
    </filter>
  </defs>
  <g id="Group_1157655" data-name="Group 1157655" transform="translate(-906 -2043)">
    <g id="Group_1156662" data-name="Group 1156662" transform="translate(740 -4885)">
      <g id="Group_1155787" data-name="Group 1155787" transform="translate(175 6934)">
        <g id="Group_1153134" data-name="Group 1153134">
          <g id="Group_1149598" data-name="Group 1149598">
            <g id="Group_1148770" data-name="Group 1148770">
              <g id="Group_1146954" data-name="Group 1146954">
                <g transform="matrix(1, 0, 0, 1, -9, -6)" filter="url(#Path_982547)">
                  <g id="Path_982547-2" data-name="Path 982547" transform="translate(9 6)" fill="#fcf3f0">
                    <path d="M 42.5 83.5 C 36.96437835693359 83.5 31.59512901306152 82.41617584228516 26.54141235351562 80.27863311767578 C 21.65934181213379 78.21369171142578 17.27447128295898 75.25723266601562 13.50862312316895 71.49137878417969 C 9.742764472961426 67.72553253173828 6.786305904388428 63.34066009521484 4.721364498138428 58.45858764648438 C 2.583823442459106 53.40486907958984 1.5 48.03562164306641 1.5 42.5 C 1.5 36.96437835693359 2.583823442459106 31.59512901306152 4.721364498138428 26.54141235351562 C 6.786305904388428 21.65934181213379 9.742764472961426 17.27447128295898 13.50862312316895 13.50862312316895 C 17.27447128295898 9.742764472961426 21.65934181213379 6.786305904388428 26.54141235351562 4.721364498138428 C 31.59512901306152 2.583823442459106 36.96437835693359 1.5 42.5 1.5 C 48.03562164306641 1.5 53.40486907958984 2.583823442459106 58.45858764648438 4.721364498138428 C 63.34066009521484 6.786305904388428 67.72553253173828 9.742764472961426 71.49137878417969 13.50862312316895 C 75.25723266601562 17.27447128295898 78.21369171142578 21.65934181213379 80.27863311767578 26.54141235351562 C 82.41617584228516 31.59512901306152 83.5 36.96437835693359 83.5 42.5 C 83.5 48.03562164306641 82.41617584228516 53.40486907958984 80.27863311767578 58.45858764648438 C 78.21369171142578 63.34066009521484 75.25723266601562 67.72553253173828 71.49137878417969 71.49137878417969 C 67.72553253173828 75.25723266601562 63.34066009521484 78.21369171142578 58.45858764648438 80.27863311767578 C 53.40486907958984 82.41617584228516 48.03562164306641 83.5 42.5 83.5 Z" stroke="none"/>
                    <path d="M 42.5 3 C 37.16621398925781 3 31.99356079101562 4.043960571289062 27.125732421875 6.102882385253906 C 22.42246627807617 8.092185974121094 18.19785308837891 10.94070434570312 14.56928253173828 14.56928253173828 C 10.94070434570312 18.19785308837891 8.092185974121094 22.42246627807617 6.102882385253906 27.125732421875 C 4.043960571289062 31.99356079101562 3 37.16621398925781 3 42.5 C 3 47.83378601074219 4.043960571289062 53.00643920898438 6.102882385253906 57.87425231933594 C 8.092185974121094 62.57753372192383 10.94070434570312 66.80213165283203 14.56928253173828 70.43071746826172 C 18.19786834716797 74.05929565429688 22.42246627807617 76.90781402587891 27.125732421875 78.89711761474609 C 31.99356079101562 80.95603942871094 37.16621398925781 82 42.5 82 C 47.83378601074219 82 53.00642395019531 80.95603942871094 57.87425231933594 78.89711761474609 C 62.57753372192383 76.90781402587891 66.80213165283203 74.05929565429688 70.43071746826172 70.43071746826172 C 74.05929565429688 66.80213165283203 76.90781402587891 62.57753372192383 78.89711761474609 57.87425231933594 C 80.95603942871094 53.00642395019531 82 47.83378601074219 82 42.5 C 82 37.16621398925781 80.95603942871094 31.99356079101562 78.89711761474609 27.125732421875 C 76.90781402587891 22.42246627807617 74.05929565429688 18.19786834716797 70.43071746826172 14.56928253173828 C 66.80213165283203 10.94070434570312 62.57753372192383 8.092185974121094 57.87425231933594 6.102882385253906 C 53.00643920898438 4.043960571289062 47.83378601074219 3 42.5 3 M 42.5 0 C 65.97209167480469 0 85 19.02789306640625 85 42.5 C 85 65.97209167480469 65.97209167480469 85 42.5 85 C 19.02789306640625 85 0 65.97209167480469 0 42.5 C 0 19.02789306640625 19.02789306640625 0 42.5 0 Z" stroke="none" fill="#e89076"/>
                  </g>
                </g>
              </g>
            </g>
          </g>
        </g>
      </g>
      <g id="administrar" transform="translate(186.803 6949.74)">
        <g id="Group_1156565" data-name="Group 1156565" transform="translate(5.279 6.412)">
          <path id="Path_990783" data-name="Path 990783" d="M58.3,94.209V90.248H45.824a1.8,1.8,0,0,0-1.8,1.8v4.194H56.153Z" transform="translate(-44.025 -90.248)" fill="#02c7dd"/>
          <path id="Path_990784" data-name="Path 990784" d="M331.322,92.17a7.443,7.443,0,0,1,.253-1.923h-6.948v3.961l2.149,2.032h5.76A7.4,7.4,0,0,1,331.322,92.17Z" transform="translate(-290.979 -90.247)" fill="#02c7dd"/>
        </g>
        <path id="Path_990785" data-name="Path 990785" d="M50.137,92.047a1.8,1.8,0,0,1,1.8-1.8H45.824a1.8,1.8,0,0,0-1.8,1.8v4.194h6.112Z" transform="translate(-38.746 -83.835)" fill="#07b2cd"/>
        <path id="Path_990786" data-name="Path 990786" d="M91.8,143.59a7.428,7.428,0,0,1-6.223-3.367H77.672v8.79L72.4,153.568l-4.059-4.1a.5.5,0,0,0-.7,0l-4.059,4.1L58.3,149.013v-8.79H44.025v30.138a1.8,1.8,0,0,0,1.8,1.8H54.2v-1.214a.412.412,0,0,1,.412-.412h12.5a.412.412,0,0,1,.412.412v1.214h6.918l.872-.872a1.2,1.2,0,0,0,.26-1.306l-.242-.584a1.2,1.2,0,0,0-1.108-.741h-2.2a1.2,1.2,0,0,1-1.2-1.2v-2.866a1.2,1.2,0,0,1,1.2-1.2h2.2a1.2,1.2,0,0,0,1.108-.741l.242-.584a1.2,1.2,0,0,0-.26-1.306l-1.553-1.553a1.2,1.2,0,0,1,0-1.7l2.026-2.026a1.2,1.2,0,0,1,1.7,0l1.553,1.553a1.2,1.2,0,0,0,1.306.26l.584-.242a1.2,1.2,0,0,0,.741-1.108v-2.2a1.2,1.2,0,0,1,1.2-1.2h2.866a1.2,1.2,0,0,1,1.2,1.2v2.2a1.2,1.2,0,0,0,.741,1.108l.584.242a1.2,1.2,0,0,0,1.306-.26l1.553-1.553a1.2,1.2,0,0,1,.833-.351V143.587c-.048,0-.1,0-.145,0Z" transform="translate(-38.746 -127.818)" fill="#eaf9fa"/>
        <g id="Group_1156566" data-name="Group 1156566" transform="translate(5.279 12.405)">
          <path id="Path_990787" data-name="Path 990787" d="M44.025,140.223h6.112V154H44.025Z" transform="translate(-44.025 -140.223)" fill="#d4f2f6"/>
          <path id="Path_990788" data-name="Path 990788" d="M50.137,367.3V364H44.025v3.3a1.8,1.8,0,0,0,1.8,1.8h6.112A1.8,1.8,0,0,1,50.137,367.3Z" transform="translate(-44.025 -337.167)" fill="#d4f2f6"/>
        </g>
        <g id="Group_1156569" data-name="Group 1156569" transform="translate(13.574 1.442)">
          <g id="Group_1156567" data-name="Group 1156567" transform="translate(0 0)">
            <path id="Path_990789" data-name="Path 990789" d="M219.027,52.277l-3.5-3.314a.6.6,0,0,0-.824,0l-3.5,3.314Z" transform="translate(-199.443 -48.799)" fill="#ffe177"/>
            <path id="Path_990790" data-name="Path 990790" d="M138.555,123.282V134.1l-5.274,4.555-4.059-4.1a.5.5,0,0,0-.7,0l-4.059,4.1-5.274-4.555V123.282l-5.982,5.656v10.154h6.132a.6.6,0,0,1,.6.6v10.326h11.778v-.335a1.2,1.2,0,0,1,1.2-1.2h2.2a1.2,1.2,0,0,0,1.108-.741l.242-.584a1.2,1.2,0,0,0-.26-1.306l-1.553-1.553a1.2,1.2,0,0,1,0-1.7l2.027-2.026a1.2,1.2,0,0,1,1.7,0l1.553,1.553a1.2,1.2,0,0,0,1.306.26l.584-.242a1.2,1.2,0,0,0,.741-1.108v-2.2a1.2,1.2,0,0,1,1.2-1.2h.787v-8.707Z" transform="translate(-113.203 -114.351)" fill="#ffe177"/>
          </g>
          <path id="Path_990791" data-name="Path 990791" d="M168.363,98.631l4.059-4.1a.5.5,0,0,1,.7,0l4.059,4.1,5.274-4.555V78.4a.6.6,0,0,0-.6-.6H163.689a.6.6,0,0,0-.6.6V94.077Z" transform="translate(-157.107 -74.323)" fill="#eaf9fa"/>
          <path id="Path_990792" data-name="Path 990792" d="M167.155,97.588V78.4a.6.6,0,0,1,.6-.6h-4.066a.6.6,0,0,0-.6.6V94.077Z" transform="translate(-157.107 -74.323)" fill="#d4f2f6"/>
          <g id="Group_1156568" data-name="Group 1156568" transform="translate(0 14.587)">
            <path id="Path_990793" data-name="Path 990793" d="M113.2,180.6h6.132a.6.6,0,0,1,.6.6v3.533l4.524-4.565L113.2,170.448V180.6Z" transform="translate(-113.201 -170.448)" fill="#ffc344"/>
            <path id="Path_990794" data-name="Path 990794" d="M284.034,182.087a1.2,1.2,0,0,1,1.7,0l1.553,1.553a1.2,1.2,0,0,0,1.306.26l.584-.242a1.2,1.2,0,0,0,.741-1.108v-2.2a1.2,1.2,0,0,1,1.2-1.2h.787v-8.707l-11.256,9.721,2.642,2.666Z" transform="translate(-260.566 -170.448)" fill="#ffc344"/>
          </g>
          <path id="Path_990795" data-name="Path 990795" d="M169.343,231.736h11.778V231.4a1.2,1.2,0,0,1,1.2-1.2h2.2a1.2,1.2,0,0,0,1.108-.741l.242-.584a1.2,1.2,0,0,0-.26-1.306l-1.553-1.553a1.2,1.2,0,0,1,0-1.7l1.278-1.278-6.7-6.762a.5.5,0,0,0-.7,0l-8.583,8.661Z" transform="translate(-162.611 -196.07)" fill="#ffe177"/>
          <path id="Path_990796" data-name="Path 990796" d="M177.927,216.282l-8.583,8.661v4.09l10.961-11.061-1.674-1.689A.5.5,0,0,0,177.927,216.282Z" transform="translate(-162.612 -196.07)" fill="#ffd15b"/>
        </g>
        <g id="Group_1156573" data-name="Group 1156573" transform="translate(32.084 24.736)">
          <g id="Group_1156570" data-name="Group 1156570" transform="translate(0 0)">
            <path id="Path_990797" data-name="Path 990797" d="M293.308,253.9h-2.2a1.2,1.2,0,0,1-1.108-.741l-.242-.584a1.2,1.2,0,0,1,.26-1.306l1.553-1.553a1.2,1.2,0,0,0,0-1.7l-2.026-2.027a1.2,1.2,0,0,0-1.7,0l-1.553,1.553a1.2,1.2,0,0,1-1.306.26l-.584-.242a1.2,1.2,0,0,1-.741-1.108v-2.2a1.2,1.2,0,0,0-1.2-1.2H279.6a1.2,1.2,0,0,0-1.2,1.2v2.2a1.2,1.2,0,0,1-.741,1.108l-.584.242a1.2,1.2,0,0,1-1.306-.26l-1.553-1.553a1.2,1.2,0,0,0-1.7,0l-2.027,2.027a1.2,1.2,0,0,0,0,1.7l1.553,1.553a1.2,1.2,0,0,1,.26,1.306l-.242.584a1.2,1.2,0,0,1-1.108.741h-2.2a1.2,1.2,0,0,0-1.2,1.2v2.866a1.2,1.2,0,0,0,1.2,1.2h2.2a1.2,1.2,0,0,1,1.108.741l.242.584a1.2,1.2,0,0,1-.26,1.306l-1.553,1.553a1.2,1.2,0,0,0,0,1.7l2.027,2.027a1.2,1.2,0,0,0,1.7,0l1.553-1.553a1.2,1.2,0,0,1,1.306-.26l.584.242a1.2,1.2,0,0,1,.741,1.108v2.2a1.2,1.2,0,0,0,1.2,1.2h2.866a1.2,1.2,0,0,0,1.2-1.2v-2.2a1.2,1.2,0,0,1,.741-1.108l.584-.242a1.2,1.2,0,0,1,1.306.26l1.553,1.553a1.2,1.2,0,0,0,1.7,0l2.026-2.027a1.2,1.2,0,0,0,0-1.7l-1.553-1.553a1.2,1.2,0,0,1-.26-1.306L290,259.9a1.2,1.2,0,0,1,1.108-.741h2.2a1.2,1.2,0,0,0,1.2-1.2V255.1A1.2,1.2,0,0,0,293.308,253.9Z" transform="translate(-267.567 -243.059)" fill="#af66da"/>
          </g>
          <g id="Group_1156571" data-name="Group 1156571" transform="translate(0 0)">
            <path id="Path_990798" data-name="Path 990798" d="M275.348,256.529a11.728,11.728,0,0,1,8.321-11.222v-1.05a1.2,1.2,0,0,0-1.2-1.2H279.6a1.2,1.2,0,0,0-1.2,1.2v2.2a1.2,1.2,0,0,1-.741,1.108l-.584.242a1.2,1.2,0,0,1-1.306-.26l-1.553-1.553a1.2,1.2,0,0,0-1.7,0l-2.026,2.026a1.2,1.2,0,0,0,0,1.7l1.553,1.553a1.2,1.2,0,0,1,.26,1.306l-.242.584a1.2,1.2,0,0,1-1.108.741h-2.2a1.2,1.2,0,0,0-1.2,1.2v2.866a1.2,1.2,0,0,0,1.2,1.2h2.2a1.2,1.2,0,0,1,1.108.741l.242.584a1.2,1.2,0,0,1-.26,1.306l-1.553,1.553a1.2,1.2,0,0,0,0,1.7l2.026,2.027a1.2,1.2,0,0,0,1.7,0l1.553-1.553a1.2,1.2,0,0,1,1.306-.26l.584.242a1.2,1.2,0,0,1,.741,1.108v2.2a1.2,1.2,0,0,0,1.2,1.2h2.866a1.2,1.2,0,0,0,1.2-1.2v-1.05A11.728,11.728,0,0,1,275.348,256.529Z" transform="translate(-267.567 -243.059)" fill="#9857bd"/>
          </g>
          <g id="Group_1156572" data-name="Group 1156572" transform="translate(6.279 6.3)">
            <circle id="Ellipse_11750" data-name="Ellipse 11750" cx="5.978" cy="5.978" r="5.978" transform="translate(0 11.634) rotate(-76.7)" fill="#cb97e7"/>
          </g>
          <circle id="Ellipse_11751" data-name="Ellipse 11751" cx="2.105" cy="2.105" r="2.105" transform="translate(11.365 11.365)" fill="#fff"/>
        </g>
        <g id="Group_1156578" data-name="Group 1156578" transform="translate(45.622 0.899)">
          <g id="Group_1156574" data-name="Group 1156574" transform="translate(0 0)">
            <circle id="Ellipse_11752" data-name="Ellipse 11752" cx="7.437" cy="7.437" r="7.437" fill="#05e39c"/>
          </g>
          <g id="Group_1156575" data-name="Group 1156575" transform="translate(0 0)">
            <path id="Path_990799" data-name="Path 990799" d="M384.487,51.707a7.438,7.438,0,0,1,5.426-7.159,7.437,7.437,0,1,0,0,14.319,7.438,7.438,0,0,1-5.426-7.159Z" transform="translate(-380.466 -44.271)" fill="#0ed290"/>
          </g>
          <path id="Path_990800" data-name="Path 990800" d="M410.041,126.981a3.352,3.352,0,0,1-4.163,0,6.466,6.466,0,0,0-2.622,3.278,7.434,7.434,0,0,0,9.408,0A6.468,6.468,0,0,0,410.041,126.981Z" transform="translate(-400.523 -117.063)" fill="#814aa0"/>
          <g id="Group_1156576" data-name="Group 1156576" transform="translate(4.081 3.932)">
            <circle id="Ellipse_11753" data-name="Ellipse 11753" cx="3.355" cy="3.355" r="3.355" fill="#af66da"/>
          </g>
          <g id="Group_1156577" data-name="Group 1156577" transform="translate(4.081 3.932)">
            <path id="Path_990801" data-name="Path 990801" d="M417.078,80.413a3.356,3.356,0,0,1,2.066-3.1,3.355,3.355,0,1,0,0,6.2A3.356,3.356,0,0,1,417.078,80.413Z" transform="translate(-414.5 -77.058)" fill="#9857bd"/>
          </g>
        </g>
        <g id="Group_1156584" data-name="Group 1156584" transform="translate(0.899 26.183)">
          <g id="Group_1156579" data-name="Group 1156579" transform="translate(0 0)">
            <path id="Path_990802" data-name="Path 990802" d="M26.907,267.58V255.724a.6.6,0,0,0-.6-.6H8.1a.6.6,0,0,0-.6.6V267.58a.6.6,0,0,0,.6.6H26.307A.6.6,0,0,0,26.907,267.58Z" transform="translate(-7.5 -255.124)" fill="#fe7701"/>
          </g>
          <g id="Group_1156580" data-name="Group 1156580" transform="translate(0 0.159)">
            <path id="Path_990803" data-name="Path 990803" d="M7.7,256.454a.6.6,0,0,0-.2.44V268.75a.6.6,0,0,0,.19.436l7.576-6.543Z" transform="translate(-7.5 -256.454)" fill="#fe9738"/>
            <path id="Path_990804" data-name="Path 990804" d="M112.149,256.454l-7.571,6.189,7.576,6.543a.6.6,0,0,0,.19-.436V256.894A.6.6,0,0,0,112.149,256.454Z" transform="translate(-92.937 -256.454)" fill="#fe9738"/>
          </g>
          <g id="Group_1156582" data-name="Group 1156582" transform="translate(0 0)">
            <g id="Group_1156581" data-name="Group 1156581">
              <path id="Path_990805" data-name="Path 990805" d="M10.558,255.724a.6.6,0,0,1,.6-.6H8.1a.6.6,0,0,0-.6.6V267.58a.6.6,0,0,0,.19.436l2.868-2.477Z" transform="translate(-7.5 -255.124)" fill="#fe860a"/>
            </g>
          </g>
          <g id="Group_1156583" data-name="Group 1156583" transform="translate(0.195 0)">
            <path id="Path_990806" data-name="Path 990806" d="M18.635,263.056l9.508-7.773a.6.6,0,0,0-.4-.16H9.531a.6.6,0,0,0-.4.16Z" transform="translate(-9.127 -255.124)" fill="#fe7701"/>
          </g>
        </g>
        <g id="Group_1156588" data-name="Group 1156588" transform="translate(15.458 42.716)">
          <g id="Group_1156585" data-name="Group 1156585" transform="translate(0 0)">
            <path id="Path_990807" data-name="Path 990807" d="M142.235,401.549v-8.138a.412.412,0,0,0-.412-.412h-12.5a.412.412,0,0,0-.412.412v8.138a.412.412,0,0,0,.412.412h12.5A.412.412,0,0,0,142.235,401.549Z" transform="translate(-128.915 -393)" fill="#ffd15b"/>
          </g>
          <g id="Group_1156586" data-name="Group 1156586" transform="translate(0 0.109)">
            <path id="Path_990808" data-name="Path 990808" d="M129.049,393.913a.409.409,0,0,0-.134.3v8.138a.409.409,0,0,0,.13.3l5.2-4.491Z" transform="translate(-128.915 -393.913)" fill="#ffc344"/>
            <path id="Path_990809" data-name="Path 990809" d="M200.743,393.913l-5.2,4.248,5.2,4.491a.409.409,0,0,0,.13-.3v-8.138A.409.409,0,0,0,200.743,393.913Z" transform="translate(-187.557 -393.913)" fill="#ffc344"/>
          </g>
          <g id="Group_1156587" data-name="Group 1156587" transform="translate(0.134 0)">
            <path id="Path_990810" data-name="Path 990810" d="M136.558,398.444l6.526-5.335a.409.409,0,0,0-.278-.109h-12.5a.409.409,0,0,0-.278.109Z" transform="translate(-130.032 -393)" fill="#ffe177"/>
          </g>
        </g>
        <g id="Group_1156589" data-name="Group 1156589">
          <path id="Path_990811" data-name="Path 990811" d="M196.278,116.047h9.827a.9.9,0,1,0,0-1.8h-9.827a.9.9,0,1,0,0,1.8Z" transform="translate(-171.951 -104.958)"/>
          <path id="Path_990812" data-name="Path 990812" d="M196.278,148.117h9.827a.9.9,0,1,0,0-1.8h-9.827a.9.9,0,1,0,0,1.8Z" transform="translate(-171.951 -133.182)"/>
          <path id="Path_990813" data-name="Path 990813" d="M203.516,179.287a.9.9,0,0,0-.9-.9h-6.338a.9.9,0,1,0,0,1.8h6.338A.9.9,0,0,0,203.516,179.287Z" transform="translate(-171.951 -161.406)"/>
          <path id="Path_990814" data-name="Path 990814" d="M334.254,303.348a.9.9,0,0,0,1.711-.555,6.876,6.876,0,1,0-.218,4.828.9.9,0,0,0-1.653-.708,5.08,5.08,0,1,1,.16-3.565Z" transform="translate(-283.869 -266.71)"/>
          <path id="Path_990815" data-name="Path 990815" d="M354.845,333.343a3,3,0,1,0,3-3A3.008,3.008,0,0,0,354.845,333.343Zm4.21,0a1.206,1.206,0,1,1-1.206-1.206A1.207,1.207,0,0,1,359.055,333.343Z" transform="translate(-312.295 -295.136)"/>
          <path id="Path_990816" data-name="Path 990816" d="M57.826,71.445h-2.2a.3.3,0,0,1-.277-.185l-.242-.584a.3.3,0,0,1,.065-.327L56.729,68.8a2.1,2.1,0,0,0,0-2.968L54.7,63.8a2.085,2.085,0,0,0-.6-.416V53.374a8.335,8.335,0,1,0-8.887-11.091h-5.39a1.5,1.5,0,0,0-1.5-1.493H33.516l-3.245-3.068a1.5,1.5,0,0,0-2.06,0l-3.245,3.068H20.156a1.5,1.5,0,0,0-1.5,1.493h-1.15a.9.9,0,0,0,0,1.8h1.15v2.674l-1.607,1.52H6.178V44.981a.9.9,0,0,1,.9-.9H13.31a.9.9,0,0,0,0-1.8H7.078a2.7,2.7,0,0,0-2.7,2.7V62.054H1.5a1.5,1.5,0,0,0-1.5,1.5V75.409a1.5,1.5,0,0,0,1.5,1.5H4.38v2.405a2.7,2.7,0,0,0,2.7,2.7h7.481v6.024a1.312,1.312,0,0,0,1.311,1.311h12.5a1.312,1.312,0,0,0,1.311-1.311V82.011h4.186a2.1,2.1,0,0,0,.516,2.113l2.026,2.027a2.1,2.1,0,0,0,2.968,0L40.927,84.6a.3.3,0,0,1,.327-.065l.584.242a.3.3,0,0,1,.185.277v2.2a2.1,2.1,0,0,0,2.1,2.1h2.866a2.1,2.1,0,0,0,2.1-2.1v-2.2a.3.3,0,0,1,.185-.277l.584-.242a.3.3,0,0,1,.327.065l1.553,1.553a2.1,2.1,0,0,0,2.968,0l2.026-2.026a2.1,2.1,0,0,0,0-2.968L55.176,79.6a.3.3,0,0,1-.065-.327l.242-.584a.3.3,0,0,1,.277-.185h2.2a2.1,2.1,0,0,0,2.1-2.1V73.544a2.1,2.1,0,0,0-2.1-2.1ZM46.987,60.607h-1.18V52.8a.9.9,0,0,0-.282-.654l-2.191-2.071H46.37A8.335,8.335,0,0,0,52.3,53.406V63.4a2.085,2.085,0,0,0-.569.4l-1.553,1.553a.3.3,0,0,1-.327.065l-.584-.242a.3.3,0,0,1-.185-.277v-2.2a2.1,2.1,0,0,0-2.1-2.1ZM39.826,49.232l3.742,3.538L39.826,56Zm13.233,2.412a6.5,6.5,0,0,1-3.586-1.075,5.556,5.556,0,0,1,1.51-1.9,4.241,4.241,0,0,0,4.151,0,5.556,5.556,0,0,1,1.51,1.9,6.5,6.5,0,0,1-3.586,1.075ZM50.6,44.956a2.456,2.456,0,1,1,2.456,2.456A2.459,2.459,0,0,1,50.6,44.956Zm2.456-6.388a6.532,6.532,0,0,1,4.967,10.781A7.311,7.311,0,0,0,56.5,47.46a4.255,4.255,0,1,0-6.874,0,7.311,7.311,0,0,0-1.53,1.889,6.532,6.532,0,0,1,4.967-10.78Zm-7.708,9.707H41.433l-1.607-1.52V44.082h4.962a8.26,8.26,0,0,0,.563,4.194Zm-1.342,6.488v5.848a2.1,2.1,0,0,0-1.986,2.093v2.2a.3.3,0,0,1-.185.277l-.584.242a.3.3,0,0,1-.327-.065L39.374,63.8a2.1,2.1,0,0,0-2.968,0l-.109.109-1.328-1.34ZM29.241,39.224,30.9,40.791H27.585Zm-8.786,3.365H38.027V57.554L33.7,61.291l-3.467-3.5a1.4,1.4,0,0,0-1.983,0l-3.468,3.5-4.327-3.737V42.589Zm3.058,19.982L21.206,64.9V63.553a1.5,1.5,0,0,0-1.5-1.5H14.473V54.764ZM18.657,56l-3.742-3.231,3.742-3.538ZM6.178,50.075h8.969l-2.191,2.071a.9.9,0,0,0-.282.654v9.254h-6.5ZM17.785,63.852,10.6,69.724,3.421,63.852Zm1.622,1v9.194L13.938,69.32ZM1.8,64.85,7.268,69.32,1.8,74.044Zm6.883,5.626,1.352,1.105a.9.9,0,0,0,1.138,0l1.352-1.105,5.365,4.633H3.317Zm10.71,13.386-3.033,2.619v-5.1Zm-1.411-3.477h8.278l-4.139,3.384Zm-.1,7.162,2.929-2.53.745.609a.9.9,0,0,0,1.138,0l.745-.609,2.929,2.53Zm10-1.066-3.033-2.62,3.033-2.48Zm.488-7.9H15.87A1.312,1.312,0,0,0,14.559,79.9v.315H7.078a.9.9,0,0,1-.9-.9V76.908H19.707a1.5,1.5,0,0,0,1.5-1.5v-.631h2.177a.9.9,0,0,0,0-1.8H21.206V67.456l8.036-8.109,5.784,5.837-.645.645a2.1,2.1,0,0,0,0,2.968l1.553,1.553a.3.3,0,0,1,.065.327l-.242.584a.3.3,0,0,1-.277.185h-2.2a2.1,2.1,0,0,0-2.019,1.534H27.58a.9.9,0,1,0,0,1.8h3.605V76.41a2.1,2.1,0,0,0,2.1,2.1h2.2a.3.3,0,0,1,.277.185l.242.584a.3.3,0,0,1-.065.327l-.609.609H29.678V79.9a1.312,1.312,0,0,0-1.311-1.311ZM58.125,76.41a.3.3,0,0,1-.3.3h-2.2a2.092,2.092,0,0,0-1.939,1.3l-.242.584a2.093,2.093,0,0,0,.455,2.286l1.553,1.553a.3.3,0,0,1,0,.424L53.43,84.879a.3.3,0,0,1-.424,0l-1.553-1.553a2.093,2.093,0,0,0-2.286-.455l-.584.242a2.092,2.092,0,0,0-1.3,1.939v2.2a.3.3,0,0,1-.3.3H44.122a.3.3,0,0,1-.3-.3v-2.2a2.093,2.093,0,0,0-1.3-1.939l-.584-.242a2.093,2.093,0,0,0-2.286.455L38.1,84.879a.3.3,0,0,1-.424,0l-2.026-2.027a.3.3,0,0,1,0-.424L37.2,80.876a2.092,2.092,0,0,0,.455-2.286l-.242-.584a2.092,2.092,0,0,0-1.939-1.3h-2.2a.3.3,0,0,1-.3-.3V73.544a.3.3,0,0,1,.3-.3h2.2a2.092,2.092,0,0,0,1.939-1.3l.242-.584a2.093,2.093,0,0,0-.455-2.286l-1.553-1.553a.3.3,0,0,1,0-.424l2.026-2.027a.3.3,0,0,1,.424,0l1.553,1.553a2.092,2.092,0,0,0,2.286.455l.584-.242a2.092,2.092,0,0,0,1.3-1.939v-2.2a.3.3,0,0,1,.3-.3h2.866a.3.3,0,0,1,.3.3v2.2a2.092,2.092,0,0,0,1.3,1.939l.584.242a2.092,2.092,0,0,0,2.286-.455l1.553-1.553a.3.3,0,0,1,.424,0L55.457,67.1a.3.3,0,0,1,0,.424L53.9,69.078a2.092,2.092,0,0,0-.455,2.286l.242.584a2.092,2.092,0,0,0,1.939,1.3h2.2a.3.3,0,0,1,.3.3Z" transform="translate(0 -36.77)"/>
        </g>
      </g>
    </g>
  </g>
</svg>
