<svg xmlns="http://www.w3.org/2000/svg" xmlns:xlink="http://www.w3.org/1999/xlink" width="104" height="104" viewBox="0 0 104 104">
  <defs>
    <filter id="Path_1013380" x="0" y="0" width="104" height="104" filterUnits="userSpaceOnUse">
      <feOffset dy="3" input="SourceAlpha"/>
      <feGaussianBlur stdDeviation="3" result="blur"/>
      <feFlood flood-opacity="0.161"/>
      <feComposite operator="in" in2="blur"/>
      <feComposite in="SourceGraphic"/>
    </filter>
  </defs>
  <g id="Group_1157609" data-name="Group 1157609" transform="translate(-217 -751)">
    <g id="Group_1099689" data-name="Group 1099689" transform="translate(30 -1102)">
      <g transform="matrix(1, 0, 0, 1, 187, 1853)" filter="url(#Path_1013380)">
        <g id="Path_1013380-2" data-name="Path 1013380" transform="translate(9 6)" fill="#fdf6ea">
          <path d="M 43 85 C 37.3296012878418 85 31.82934188842773 83.88967132568359 26.65201187133789 81.69984436035156 C 21.65080070495605 79.58450317382812 17.1590461730957 76.55601501464844 13.30151748657227 72.69847869873047 C 9.443987846374512 68.84095001220703 6.415493965148926 64.34919738769531 4.300152778625488 59.34798812866211 C 2.110329389572144 54.17065811157227 1 48.6703987121582 1 43 C 1 37.3296012878418 2.110329389572144 31.82934188842773 4.300152778625488 26.65201187133789 C 6.415493965148926 21.65080070495605 9.443987846374512 17.1590461730957 13.30151748657227 13.30151748657227 C 17.1590461730957 9.443987846374512 21.65080070495605 6.415493965148926 26.65201187133789 4.300152778625488 C 31.82934188842773 2.110329389572144 37.3296012878418 1 43 1 C 48.6703987121582 1 54.17065811157227 2.110329389572144 59.34798812866211 4.300152778625488 C 64.34919738769531 6.415493965148926 68.84095001220703 9.443987846374512 72.69847869873047 13.30151748657227 C 76.55601501464844 17.1590461730957 79.58450317382812 21.65080070495605 81.69984436035156 26.65201187133789 C 83.88967132568359 31.82934188842773 85 37.3296012878418 85 43 C 85 47.0694580078125 84.41603851318359 51.09018707275391 83.26432037353516 54.95051574707031 C 82.14104461669922 58.71550750732422 80.47006225585938 62.35593032836914 78.29775238037109 65.77068328857422 C 74.6492919921875 71.5086669921875 69.53655242919922 76.3184814453125 63.51213073730469 79.68034362792969 C 60.44787216186523 81.39030456542969 57.17514038085938 82.71112060546875 53.78484725952148 83.60610961914062 C 50.2811279296875 84.53102111816406 46.652587890625 85 43 85 Z" stroke="none"/>
          <path d="M 43 2 C 37.46414947509766 2 32.09496307373047 3.083747863769531 27.04156112670898 5.221160888671875 C 22.15954971313477 7.28607177734375 17.77463531494141 10.24259948730469 14.00862121582031 14.00862121582031 C 10.24259948730469 17.77463531494141 7.28607177734375 22.15954971313477 5.221160888671875 27.04156112670898 C 3.083747863769531 32.09496307373047 2 37.46414947509766 2 43 C 2 48.53585052490234 3.083747863769531 53.90503692626953 5.221160888671875 58.95843505859375 C 7.28607177734375 63.84045028686523 10.24259948730469 68.22536468505859 14.00862121582031 71.99137878417969 C 17.77463531494141 75.75740051269531 22.15954971313477 78.71392822265625 27.04156112670898 80.77883911132812 C 32.09496307373047 82.91625213623047 37.46414947509766 84 43 84 C 46.56647491455078 84 50.10914993286133 83.54217529296875 53.52959823608398 82.63922119140625 C 56.8390007019043 81.76560211181641 60.03364944458008 80.47628784179688 63.02482604980469 78.80709838867188 C 68.90476226806641 75.52587890625 73.89421081542969 70.83247375488281 77.45400238037109 65.23394012451172 C 79.57672119140625 61.89712524414062 81.20919799804688 58.34108734130859 82.30605316162109 54.66462707519531 C 83.43007659912109 50.89712524414062 84 46.97258758544922 84 43 C 84 37.46414947509766 82.91625213623047 32.09496307373047 80.77883911132812 27.04156112670898 C 78.71392822265625 22.15954971313477 75.75740051269531 17.77463531494141 71.99137878417969 14.00862121582031 C 68.22536468505859 10.24259948730469 63.84045028686523 7.28607177734375 58.95843505859375 5.221160888671875 C 53.90503692626953 3.083747863769531 48.53585052490234 2 43 2 M 43 0 C 66.74824523925781 0 86 19.25174713134766 86 43 C 86 51.47812652587891 83.54637145996094 59.38317489624023 79.14148712158203 66.30743408203125 C 71.68117523193359 78.04037475585938 58.27012634277344 86 43 86 C 19.25174713134766 86 0 66.74824523925781 0 43 C 0 19.25174713134766 19.25174713134766 0 43 0 Z" stroke="none" fill="#ecae3b"/>
        </g>
      </g>
      <g id="question_14913011" transform="translate(214.795 1874.87)">
        <g id="Group_1143288" data-name="Group 1143288" transform="translate(34.202 6.577)">
          <path id="Path_904062" data-name="Path 904062" d="M339.54,93.021H322l3.289-4.385V72.192A2.192,2.192,0,0,1,327.481,70H339.54a2.192,2.192,0,0,1,2.192,2.192V90.828A2.192,2.192,0,0,1,339.54,93.021Z" transform="translate(-322 -70)" fill="#ff9eb1" stroke="#000" stroke-linecap="round" stroke-linejoin="round" stroke-miterlimit="10" stroke-width="2"/>
          <g id="Group_1143287" data-name="Group 1143287" transform="translate(8.222 4.385)">
            <path id="Path_904063" data-name="Path 904063" d="M400.289,119.866v-3.289A3.289,3.289,0,1,0,397,113.289" transform="translate(-397 -110)" fill="none" stroke="#000" stroke-linecap="round" stroke-linejoin="round" stroke-miterlimit="10" stroke-width="2"/>
            <g id="Group_1143286" data-name="Group 1143286" transform="translate(3.366 14.123)">
              <rect id="Rectangle_404965" data-name="Rectangle 404965" fill="none" stroke="#000" stroke-linecap="round" stroke-linejoin="round" stroke-miterlimit="10" stroke-width="2"/>
            </g>
          </g>
        </g>
        <path id="Path_904064" data-name="Path 904064" d="M32.713,320H21.51A11.51,11.51,0,0,0,10,331.51v8.441H47.272V331.51A11.51,11.51,0,0,0,35.761,320Z" transform="translate(-10 -286.017)" fill="#fff"/>
        <path id="Path_904065" data-name="Path 904065" d="M46.217,326.691A11.512,11.512,0,0,0,35.761,320H21.51A11.51,11.51,0,0,0,10,331.51v8.441H47.272v-3.508" transform="translate(-10 -286.017)" fill="none" stroke="#000" stroke-linecap="round" stroke-linejoin="round" stroke-miterlimit="10" stroke-width="2"/>
        <path id="Path_904066" data-name="Path 904066" d="M156.577,360H150l1.1,5.481h4.385Z" transform="translate(-134.653 -321.632)" fill="#bfdbff" stroke="#000" stroke-linecap="round" stroke-linejoin="round" stroke-miterlimit="10" stroke-width="2"/>
        <path id="Path_904067" data-name="Path 904067" d="M148.77,420.085H140L142.192,410h4.385Z" transform="translate(-125.749 -366.151)" fill="#a0c8ff" stroke="#000" stroke-linecap="round" stroke-linejoin="round" stroke-miterlimit="10" stroke-width="2"/>
        <line id="Line_620" data-name="Line 620" y2="5.647" transform="translate(6.262 48.613)" fill="none" stroke="#000" stroke-linecap="round" stroke-linejoin="round" stroke-miterlimit="10" stroke-width="2"/>
        <line id="Line_621" data-name="Line 621" y2="5.647" transform="translate(31.673 48.613)" fill="none" stroke="#000" stroke-linecap="round" stroke-linejoin="round" stroke-miterlimit="10" stroke-width="2"/>
        <path id="Path_904068" data-name="Path 904068" d="M144.866,261.029V255H135v6.029l4.933,5.481Z" transform="translate(-121.297 -228.142)" fill="#f5c6af" stroke="#000" stroke-linecap="round" stroke-linejoin="round" stroke-miterlimit="10" stroke-width="2"/>
        <path id="Path_904069" data-name="Path 904069" d="M94.117,26.443V19.1a9.1,9.1,0,0,0-9.1-9.1h0a10.005,10.005,0,0,0-6.25,2.192h0A5.732,5.732,0,0,0,70,17.053v9.39Z" transform="translate(-63.423 -10)" fill="#8690af" stroke="#000" stroke-linecap="round" stroke-linejoin="round" stroke-miterlimit="10" stroke-width="2"/>
        <path id="Path_904070" data-name="Path 904070" d="M86.309,147.741h0A2.741,2.741,0,0,0,83.569,145H62.741A2.741,2.741,0,0,0,60,147.741h0a2.741,2.741,0,0,0,2.741,2.741H83.569A2.741,2.741,0,0,0,86.309,147.741Z" transform="translate(-54.519 -130.201)" fill="#f5c6af" stroke="#000" stroke-linecap="round" stroke-linejoin="round" stroke-miterlimit="10" stroke-width="2"/>
        <path id="Path_904071" data-name="Path 904071" d="M100,109.385h0a6.327,6.327,0,0,0,5.925-4.106l.1-.279h0a14.971,14.971,0,0,0,10.586,4.385h.924v6.577a8.77,8.77,0,0,1-8.77,8.77h0a8.77,8.77,0,0,1-8.77-8.77Z" transform="translate(-90.134 -94.586)" fill="#f5c6af" stroke="#000" stroke-linecap="round" stroke-linejoin="round" stroke-miterlimit="10" stroke-width="2"/>
        <path id="Path_904072" data-name="Path 904072" d="M104.213,310l-3.791,1.207,2.694,7.563,6.029-3.289Z" transform="translate(-90.51 -277.113)" fill="#fff" stroke="#000" stroke-linecap="round" stroke-linejoin="round" stroke-miterlimit="10" stroke-width="2"/>
        <g id="Group_1143289" data-name="Group 1143289" transform="translate(37.32 45.79)">
          <rect id="Rectangle_404966" data-name="Rectangle 404966" transform="translate(0 0)" fill="#fff"/>
          <rect id="Rectangle_404967" data-name="Rectangle 404967" transform="translate(0 0)" fill="none" stroke="#000" stroke-linecap="round" stroke-linejoin="round" stroke-miterlimit="10" stroke-width="2"/>
        </g>
        <path id="Path_904073" data-name="Path 904073" d="M184.933,310l3.791,1.207-2.694,7.563L180,315.481Z" transform="translate(-161.364 -277.113)" fill="#fff" stroke="#000" stroke-linecap="round" stroke-linejoin="round" stroke-miterlimit="10" stroke-width="2"/>
      </g>
    </g>
  </g>
</svg>
