<svg xmlns="http://www.w3.org/2000/svg" xmlns:xlink="http://www.w3.org/1999/xlink" width="110" height="110" viewBox="0 0 110 110">
  <defs>
    <filter id="Path_982547" x="0" y="0" width="110" height="110" filterUnits="userSpaceOnUse">
      <feOffset dy="3" input="SourceAlpha"/>
      <feGaussianBlur stdDeviation="3" result="blur"/>
      <feFlood flood-opacity="0.161"/>
      <feComposite operator="in" in2="blur"/>
      <feComposite in="SourceGraphic"/>
    </filter>
  </defs>
  <g id="Group_1157639" data-name="Group 1157639" transform="translate(-8662.428 -4472.223)">
    <g id="Group_1157582" data-name="Group 1157582" transform="translate(7546.428 1178.223)">
      <g id="Group_1155734" data-name="Group 1155734" transform="translate(0 -1390)">
        <g id="Group_1154704" data-name="Group 1154704" transform="translate(0 1466)">
          <g id="Group_1150790" data-name="Group 1150790" transform="translate(3 2320)">
            <g id="Group_1154214" data-name="Group 1154214" transform="translate(79 -5809)">
              <g id="Group_1152583" data-name="Group 1152583" transform="translate(1043 6713)">
                <g id="Group_1146973" data-name="Group 1146973" transform="translate(0 0)">
                  <g id="Group_1146954" data-name="Group 1146954">
                    <g transform="matrix(1, 0, 0, 1, -9, -6)" filter="url(#Path_982547)">
                      <g id="Path_982547-2" data-name="Path 982547" transform="translate(9 6)" fill="#fcf3f0">
                        <path d="M 46 90.49987030029297 C 39.99187850952148 90.49987030029297 34.16426849365234 89.32350921630859 28.67905426025391 87.00345611572266 C 23.38019943237305 84.76224517822266 18.62104034423828 81.55341339111328 14.53374671936035 77.46613311767578 C 10.44646644592285 73.37885284423828 7.237639904022217 68.61969757080078 4.996413230895996 63.32085418701172 C 2.676359891891479 57.83565521240234 1.5 52.008056640625 1.5 45.99993515014648 C 1.5 39.99181365966797 2.676359891891479 34.16421508789062 4.996413230895996 28.67901420593262 C 7.237639904022217 23.38017463684082 10.44646644592285 18.62101554870605 14.53374671936035 14.53373527526855 C 18.62104034423828 10.44645500183105 23.38019943237305 7.23762845993042 28.67905426025391 4.996415138244629 C 34.16426849365234 2.676361799240112 39.99187850952148 1.500001788139343 46 1.500001788139343 C 52.00812149047852 1.500001788139343 57.83573150634766 2.676361799240112 63.32094573974609 4.996415138244629 C 68.61979675292969 7.23762845993042 73.37895965576172 10.44645500183105 77.46625518798828 14.53373527526855 C 81.55353546142578 18.62101554870605 84.76235961914062 23.38017463684082 87.00358581542969 28.67901420593262 C 89.32363891601562 34.16421508789062 90.5 39.99181365966797 90.5 45.99993515014648 C 90.5 52.008056640625 89.32363891601562 57.83565521240234 87.00358581542969 63.32085418701172 C 84.76235961914062 68.61969757080078 81.55353546142578 73.37885284423828 77.46625518798828 77.46613311767578 C 73.37895965576172 81.55341339111328 68.61979675292969 84.76224517822266 63.32094573974609 87.00345611572266 C 57.83573150634766 89.32350921630859 52.00812149047852 90.49987030029297 46 90.49987030029297 Z" stroke="none"/>
                        <path d="M 46 2.999992370605469 C 40.1937141418457 2.999992370605469 34.56269836425781 4.136489868164062 29.26337051391602 6.377906799316406 C 24.14332580566406 8.543502807617188 19.54441070556641 11.64437866210938 15.59439849853516 15.59437561035156 C 11.64440155029297 19.54439544677734 8.54351806640625 24.14329528808594 6.377914428710938 29.26333618164062 C 4.136497497558594 34.56264877319336 3 40.19366455078125 3 45.99993515014648 C 3 51.80620574951172 4.136497497558594 57.43720626831055 6.377914428710938 62.73651885986328 C 8.54351806640625 67.8565673828125 11.64440155029297 72.45545959472656 15.59439849853516 76.40547943115234 C 19.54441070556641 80.35547637939453 24.14332580566406 83.45635223388672 29.26337051391602 85.6219482421875 C 34.56269836425781 87.86336517333984 40.1937141418457 88.99986267089844 46 88.99986267089844 C 51.8062858581543 88.99986267089844 57.43730163574219 87.86336517333984 62.73661422729492 85.6219482421875 C 67.85667419433594 83.45635223388672 72.45557403564453 80.35547637939453 76.40558624267578 76.40547943115234 C 80.35559844970703 72.45545959472656 83.45647430419922 67.8565673828125 85.6220703125 62.73651885986328 C 87.86350250244141 57.43720626831055 89 51.80620574951172 89 45.99993515014648 C 89 40.19366455078125 87.86350250244141 34.56264877319336 85.6220703125 29.26333618164062 C 83.45647430419922 24.14329528808594 80.35559844970703 19.54439544677734 76.40558624267578 15.59437561035156 C 72.45557403564453 11.64437866210938 67.85667419433594 8.543502807617188 62.73661422729492 6.377906799316406 C 57.43730163574219 4.136489868164062 51.8062858581543 2.999992370605469 46 2.999992370605469 M 46 -7.62939453125e-06 C 71.40509033203125 -7.62939453125e-06 92 20.59486389160156 92 45.99993515014648 C 92 71.40499114990234 71.40509033203125 91.99986267089844 46 91.99986267089844 C 20.59490203857422 91.99986267089844 0 71.40499114990234 0 45.99993515014648 C 0 20.59486389160156 20.59490203857422 -7.62939453125e-06 46 -7.62939453125e-06 Z" stroke="none" fill="#e89076"/>
                      </g>
                    </g>
                  </g>
                </g>
              </g>
            </g>
          </g>
        </g>
      </g>
      <g id="proteger" transform="translate(1141.934 3318.304)">
        <path id="Path_990655" data-name="Path 990655" d="M90,284.345l-11.369,7.609-3.388-.19-.133-1.334a4.329,4.329,0,0,0-3.7-3.858l-12.02-1.053c-1.178-.167-3.656-1.476-5.6-2.591a12.362,12.362,0,0,0-6.045-1.643l-6.112-.051v14.94l17.3,6.551a4.7,4.7,0,0,0,2.011.134l.012,0,17.416-2.51a7.709,7.709,0,0,0,3.656-1.638l11.257-10.124A2.688,2.688,0,0,0,90,284.345Zm0,0" transform="translate(-36.909 -248.861)" fill="#fae0c1"/>
        <path id="Path_990656" data-name="Path 990656" d="M93.725,312.548a2.681,2.681,0,0,0-.246-.31l-11.448,8.407a7.706,7.706,0,0,1-3.656,1.638l-17.416,2.511-.012,0a4.708,4.708,0,0,1-2.011-.134l-17.3-6.551v5.547l17.3,6.551a4.7,4.7,0,0,0,2.011.133l.012,0,17.416-2.51a7.708,7.708,0,0,0,3.656-1.638l11.257-10.124A2.688,2.688,0,0,0,93.725,312.548Zm0,0" transform="translate(-36.909 -276.345)" fill="#efd0af"/>
        <path id="Path_990657" data-name="Path 990657" d="M15.85,268.577H8.664A1.176,1.176,0,0,1,7.488,267.4V245.461a1.176,1.176,0,0,1,1.176-1.176H15.85a1.176,1.176,0,0,1,1.176,1.176V267.4A1.176,1.176,0,0,1,15.85,268.577Zm0,0" transform="translate(-6.638 -216.106)" fill="#f43b45"/>
        <path id="Path_990658" data-name="Path 990658" d="M47.081,244.285H42.719v24.292h4.362a1.176,1.176,0,0,0,1.176-1.176V245.461A1.176,1.176,0,0,0,47.081,244.285Zm0,0" transform="translate(-37.868 -216.106)" fill="#cf3735"/>
        <path id="Path_990659" data-name="Path 990659" d="M150.8,15.6a8.318,8.318,0,0,1-5.1-6.958.822.822,0,0,0-.825-.746l-8.635.051h-.175L127.437,8a.828.828,0,0,0-.818.769,8.319,8.319,0,0,1-5.02,7.008,1.187,1.187,0,0,0-.712,1.217c.4,3.79,2.7,16.7,15.29,22.5a.391.391,0,0,0,.168.036.4.4,0,0,0,.167-.038c12.515-5.952,14.673-18.884,15.025-22.68A1.193,1.193,0,0,0,150.8,15.6Zm0,0" transform="translate(-107.156 -6.555)" fill="#75cff2"/>
        <path id="Path_990660" data-name="Path 990660" d="M249.61,15.6a8.318,8.318,0,0,1-5.1-6.958.822.822,0,0,0-.825-.746l-4.753.028a8.318,8.318,0,0,0,5.12,7.674,1.2,1.2,0,0,1,.74,1.215c-.326,3.519-2.206,14.891-12.453,21.273a25.9,25.9,0,0,0,2.641,1.409.4.4,0,0,0,.168.036.391.391,0,0,0,.167-.038c12.515-5.952,14.673-18.884,15.025-22.68a1.194,1.194,0,0,0-.734-1.212Zm0,0" transform="translate(-205.963 -6.555)" fill="#53b4e4"/>
        <path id="Path_990661" data-name="Path 990661" d="M162.572,60.983c-8.612-4.674-11.109-13.343-11.825-17.6a.455.455,0,0,1,.207-.463,11.13,11.13,0,0,0,4.819-6.329.457.457,0,0,1,.437-.327l12.875-.075a.457.457,0,0,1,.44.322,11.131,11.131,0,0,0,4.893,6.273.455.455,0,0,1,.213.46c-.666,4.262-3.06,12.96-11.617,17.734a.46.46,0,0,1-.442,0Zm0,0" transform="translate(-133.625 -31.64)" fill="#e1e0de"/>
        <path id="Path_990662" data-name="Path 990662" d="M246.614,42.786a11.134,11.134,0,0,1-4.893-6.273.457.457,0,0,0-.44-.322l-5.191.03a11.131,11.131,0,0,0,4.978,6.565.453.453,0,0,1,.212.459c-.6,3.809-2.572,11.164-9.1,16.092a21.779,21.779,0,0,0,2.584,1.646.461.461,0,0,0,.442,0c8.557-4.774,10.952-13.472,11.617-17.735a.454.454,0,0,0-.213-.46Zm0,0" transform="translate(-205.821 -31.639)" fill="#d6d6d6"/>
        <path id="Path_990663" data-name="Path 990663" d="M33.4,393.829a2.161,2.161,0,1,1-2.161-2.161A2.161,2.161,0,0,1,33.4,393.829Zm0,0" transform="translate(-25.773 -346.756)" fill="#ededed"/>
        <path id="Path_990664" data-name="Path 990664" d="M217.385,100.468a.86.86,0,0,0,1.3-.147l5.668-8.554a.852.852,0,1,0-1.42-.941l-5.107,7.708-2.838-2.695a.852.852,0,1,0-1.173,1.235Zm0,0" transform="translate(-189.3 -79.733)"/>
        <path id="Path_990665" data-name="Path 990665" d="M129.184,33.723a1.262,1.262,0,0,0,.522.114h.007a1.246,1.246,0,0,0,.528-.121c12.949-6.158,15.143-19.445,15.507-23.37a2.036,2.036,0,0,0-1.256-2.077,7.442,7.442,0,0,1-4.573-6.245A1.682,1.682,0,0,0,138.25.5h-.01L120.8.6a1.668,1.668,0,0,0-1.661,1.554,7.443,7.443,0,0,1-4.506,6.291,2.029,2.029,0,0,0-1.224,2.088c.41,3.921,2.76,17.182,15.78,23.188ZM115.3,10.013A9.139,9.139,0,0,0,120.83,2.3l17.395-.1a9.14,9.14,0,0,0,5.614,7.639.342.342,0,0,1,.213.347c-.341,3.679-2.385,16.083-14.35,21.9-12.034-5.672-14.221-18.052-14.606-21.727a.335.335,0,0,1,.2-.345Zm0,0" transform="translate(-100.518 0)"/>
        <path id="Path_990666" data-name="Path 990666" d="M143.89,39.818a.9.9,0,0,0,1.045.6.853.853,0,0,0,.6-1.045c-.217-.8-.4-1.609-.542-2.412a11.976,11.976,0,0,0,4.872-6.385l12.3-.072a11.975,11.975,0,0,0,4.947,6.328c-.133.8-.306,1.618-.514,2.42a.852.852,0,1,0,1.649.427c.244-.942.443-1.9.59-2.842a1.3,1.3,0,0,0-.614-1.321A10.277,10.277,0,0,1,163.7,29.72a1.317,1.317,0,0,0-1.252-.924h-.008l-12.875.075a1.317,1.317,0,0,0-1.248.939,10.277,10.277,0,0,1-4.451,5.846,1.3,1.3,0,0,0-.6,1.328c.159.942.368,1.895.623,2.833Zm0,0" transform="translate(-126.984 -25.084)"/>
        <path id="Path_990667" data-name="Path 990667" d="M181.113,147.6a.851.851,0,0,0-1.112.462,21.449,21.449,0,0,1-9.262,10.782,21.457,21.457,0,0,1-9.395-10.69.852.852,0,0,0-1.567.667,23.1,23.1,0,0,0,10.34,11.624,1.3,1.3,0,0,0,1.263-.007,23.093,23.093,0,0,0,10.2-11.727.851.851,0,0,0-.463-1.111Zm0,0" transform="translate(-141.575 -130.34)"/>
        <path id="Path_990668" data-name="Path 990668" d="M24.6,384.273a3.013,3.013,0,1,0,3.013,3.013A3.016,3.016,0,0,0,24.6,384.273Zm0,4.322a1.31,1.31,0,1,1,1.31-1.31A1.311,1.311,0,0,1,24.6,388.6Zm0,0" transform="translate(-19.135 -340.2)"/>
        <path id="Path_990669" data-name="Path 990669" d="M57.521,245.288a3.547,3.547,0,0,0-4.9-.947l-11.132,7.451-2.376-.133-.061-.609a5.168,5.168,0,0,0-4.429-4.617l-.045-.005-12-1.051c-.406-.063-1.7-.436-5.274-2.484a13.246,13.246,0,0,0-6.069-1.746v-2.228a2.029,2.029,0,0,0-2.027-2.027H2.028A2.03,2.03,0,0,0,0,238.918v21.941a2.03,2.03,0,0,0,2.027,2.027H9.214a2.03,2.03,0,0,0,2.027-2.027v-.6l10.485,3.971a5.863,5.863,0,0,0,2.44.18l17.422-2.512.013,0a8.566,8.566,0,0,0,4.06-1.819l.031-.027,11.252-10.12a3.547,3.547,0,0,0,.576-4.637Zm-1.711,3.368-11.24,10.11a6.862,6.862,0,0,1-3.231,1.443l-17.409,2.51-.015,0h-.008a3.824,3.824,0,0,1-1.613-.1l-11.053-4.185v-9.725a.852.852,0,0,0-1.7,0v12.15a.325.325,0,0,1-.324.324H2.028a.325.325,0,0,1-.324-.324V238.918a.325.325,0,0,1,.324-.324H9.214a.325.325,0,0,1,.324.324v5.944a.852.852,0,0,0,1.7,0v-2.011a11.534,11.534,0,0,1,5.221,1.519c4.305,2.469,5.507,2.639,5.9,2.7l.045.005,12,1.051a3.47,3.47,0,0,1,2.952,3.1l.045.454-16.061.992-.032,0a1.941,1.941,0,0,1-1.325-.693.851.851,0,0,0-1.308,1.091,3.688,3.688,0,0,0,2.481,1.3c.526.055,17.181-1.037,17.181-1.037l3.339.188a.848.848,0,0,0,.521-.143l11.371-7.61a1.836,1.836,0,0,1,2.239,2.9Zm0,0" transform="translate(0 -209.552)"/>
      </g>
    </g>
  </g>
</svg>
