<svg xmlns="http://www.w3.org/2000/svg" xmlns:xlink="http://www.w3.org/1999/xlink" width="102.805" height="102.805" viewBox="0 0 102.805 102.805">
  <defs>
    <filter id="Path_982547" x="0" y="0" width="102.805" height="102.805" filterUnits="userSpaceOnUse">
      <feOffset dy="3" input="SourceAlpha"/>
      <feGaussianBlur stdDeviation="3" result="blur"/>
      <feFlood flood-opacity="0.161"/>
      <feComposite operator="in" in2="blur"/>
      <feComposite in="SourceGraphic"/>
    </filter>
  </defs>
  <g id="Group_1157656" data-name="Group 1157656" transform="translate(-1221.195 -2043)">
    <g id="Group_1150932" data-name="Group 1150932" transform="translate(897.195 323.626)">
      <g id="Group_1150760" data-name="Group 1150760" transform="translate(333 1725.374)">
        <g id="Group_1149518" data-name="Group 1149518" transform="translate(0 0)">
          <g id="Group_1147086" data-name="Group 1147086" transform="translate(0 0)">
            <g transform="matrix(1, 0, 0, 1, -9, -6)" filter="url(#Path_982547)">
              <g id="Path_982547-2" data-name="Path 982547" transform="translate(9 6)" fill="#fcf3f0">
                <path d="M 42.40234375 83.3046875 C 36.87989807128906 83.3046875 31.5234489440918 82.22343444824219 26.48176765441895 80.09098815917969 C 21.61132049560547 78.03096771240234 17.23690795898438 75.08155822753906 13.48002624511719 71.32467651367188 C 9.723132133483887 67.56778717041016 6.773720264434814 63.19336700439453 4.713696479797363 58.32292175292969 C 2.581249713897705 53.28125 1.50000262260437 47.92478942871094 1.50000262260437 42.40234375 C 1.50000262260437 36.87989807128906 2.581249713897705 31.5234489440918 4.713696479797363 26.48176765441895 C 6.773720264434814 21.61132049560547 9.723132133483887 17.23690795898438 13.48002624511719 13.48002624511719 C 17.23690795898438 9.723132133483887 21.61132049560547 6.773720264434814 26.48176765441895 4.713696479797363 C 31.5234489440918 2.581249713897705 36.87989807128906 1.50000262260437 42.40234375 1.50000262260437 C 47.92478942871094 1.50000262260437 53.28125 2.581249713897705 58.32292175292969 4.713696479797363 C 63.19336700439453 6.773720264434814 67.56778717041016 9.723132133483887 71.32467651367188 13.48002624511719 C 75.08155822753906 17.23690795898438 78.03096771240234 21.61132049560547 80.09098815917969 26.48176765441895 C 82.22343444824219 31.5234489440918 83.3046875 36.87989807128906 83.3046875 42.40234375 C 83.3046875 47.92478942871094 82.22343444824219 53.28125 80.09098815917969 58.32292175292969 C 78.03096771240234 63.19336700439453 75.08155822753906 67.56778717041016 71.32467651367188 71.32467651367188 C 67.56778717041016 75.08155822753906 63.19336700439453 78.03096771240234 58.32292175292969 80.09098815917969 C 53.28125 82.22343444824219 47.92478942871094 83.3046875 42.40234375 83.3046875 Z" stroke="none"/>
                <path d="M 42.40234375 3 C 37.08174514770508 3 31.92187881469727 4.041374206542969 27.06608963012695 6.095199584960938 C 22.37445068359375 8.079597473144531 18.16029357910156 10.92106628417969 14.54067993164062 14.54067993164062 C 10.92106628417969 18.16029357910156 8.079597473144531 22.37445068359375 6.095199584960938 27.06608963012695 C 4.041374206542969 31.92187881469727 3 37.08174514770508 3 42.40234375 C 3 47.72294235229492 4.041374206542969 52.8828125 6.095199584960938 57.73859786987305 C 8.079597473144531 62.43023681640625 10.92106628417969 66.64439392089844 14.54067993164062 70.26400756835938 C 18.16029357910156 73.88362121582031 22.37445068359375 76.72509002685547 27.06608963012695 78.70948791503906 C 31.92187881469727 80.76332092285156 37.08174514770508 81.8046875 42.40234375 81.8046875 C 47.72294235229492 81.8046875 52.8828125 80.76332092285156 57.73859786987305 78.70948791503906 C 62.43023681640625 76.72509002685547 66.64439392089844 73.88362121582031 70.26400756835938 70.26400756835938 C 73.88362121582031 66.64439392089844 76.72509002685547 62.43023681640625 78.70948791503906 57.73859786987305 C 80.76332092285156 52.8828125 81.8046875 47.72294235229492 81.8046875 42.40234375 C 81.8046875 37.08174514770508 80.76332092285156 31.92187881469727 78.70948791503906 27.06608963012695 C 76.72509002685547 22.37445068359375 73.88362121582031 18.16029357910156 70.26400756835938 14.54067993164062 C 66.64439392089844 10.92106628417969 62.43023681640625 8.079597473144531 57.73859786987305 6.095199584960938 C 52.8828125 4.041374206542969 47.72294235229492 3 42.40234375 3 M 42.40234375 0 C 65.82051849365234 0 84.8046875 18.98416900634766 84.8046875 42.40234375 C 84.8046875 65.82051849365234 65.82051849365234 84.8046875 42.40234375 84.8046875 C 18.98416900634766 84.8046875 0 65.82051849365234 0 42.40234375 C 0 18.98416900634766 18.98416900634766 0 42.40234375 0 Z" stroke="none" fill="#e89076"/>
              </g>
            </g>
          </g>
        </g>
      </g>
      <g id="lista-de-verificacion" transform="translate(349.552 1743.746)">
        <g id="Group_1145765" data-name="Group 1145765" transform="translate(0.852 1.024)">
          <g id="Group_1145758" data-name="Group 1145758" transform="translate(27.249 6.812)">
            <path id="Path_981325" data-name="Path 981325" d="M39.961,16.812H34.852A.854.854,0,0,1,34,15.961V10.852A.854.854,0,0,1,34.852,10h5.109a.854.854,0,0,1,.852.852v5.109A.854.854,0,0,1,39.961,16.812Z" transform="translate(-34 -10)" fill="#fcd770"/>
          </g>
          <g id="Group_1145759" data-name="Group 1145759" transform="translate(27.249 22.14)">
            <path id="Path_981326" data-name="Path 981326" d="M39.961,34.812H34.852A.854.854,0,0,1,34,33.961V28.852A.854.854,0,0,1,34.852,28h5.109a.854.854,0,0,1,.852.852v5.109A.854.854,0,0,1,39.961,34.812Z" transform="translate(-34 -28)" fill="#fcd770"/>
          </g>
          <g id="Group_1145760" data-name="Group 1145760" transform="translate(27.249 35.765)">
            <path id="Path_981327" data-name="Path 981327" d="M39.961,50.812H34.852A.854.854,0,0,1,34,49.961V44.852A.854.854,0,0,1,34.852,44h5.109a.854.854,0,0,1,.852.852v5.109A.854.854,0,0,1,39.961,50.812Z" transform="translate(-34 -44)" fill="#fcd770"/>
          </g>
          <g id="Group_1145761" data-name="Group 1145761" transform="translate(0 0)">
            <path id="Path_981328" data-name="Path 981328" d="M18.213,20.64l-4.292,2.5v-.707a1.708,1.708,0,0,0-1.7-1.7,1.715,1.715,0,0,0-1.7,1.7v.707l-4.292-2.5A8.512,8.512,0,0,1,2,13.291V2.852l1.575.783A6.776,6.776,0,0,0,10.4,3.209L12.219,2l1.822,1.209a6.776,6.776,0,0,0,6.821.426l1.575-.783v10.44A8.512,8.512,0,0,1,18.213,20.64Z" transform="translate(-2 -2)" fill="#aab2bd"/>
          </g>
          <g id="Group_1145762" data-name="Group 1145762" transform="translate(7.664 44.28)">
            <path id="Path_981329" data-name="Path 981329" d="M21.219,54l1.7,6.812H11L11.852,54Z" transform="translate(-11 -54)" fill="#b4dd7f"/>
          </g>
          <g id="Group_1145763" data-name="Group 1145763" transform="translate(0 18.734)">
            <path id="Path_981330" data-name="Path 981330" d="M20.734,34.219h1.7a1.708,1.708,0,0,1,1.7,1.7v1.924a16.983,16.983,0,0,1-2.589,9.026l-1.669,2.674H10.515l-1.167-.877A8.515,8.515,0,0,1,6.3,44.309L5.168,40.528a5.922,5.922,0,0,0-2.4-3.244l-.111-.077a1.474,1.474,0,0,1,.162-2.546l.136-.068a3.557,3.557,0,0,1,4.964,2.061l.673,2a.988.988,0,0,0,1.924-.315V25.7a1.715,1.715,0,0,1,1.7-1.7,1.708,1.708,0,0,1,1.7,1.7v5.109h1.7a1.708,1.708,0,0,1,1.7,1.7h1.7a1.708,1.708,0,0,1,1.7,1.7Z" transform="translate(-2 -24)" fill="#f0d0b4"/>
          </g>
          <g id="Group_1145764" data-name="Group 1145764" transform="translate(5.109 5.109)">
            <path id="Path_981331" data-name="Path 981331" d="M18.219,12.258v1.7a.854.854,0,0,1-.852.852H14.812v2.555a.854.854,0,0,1-.852.852h-1.7a.854.854,0,0,1-.852-.852V14.812H8.852A.854.854,0,0,1,8,13.961v-1.7a.854.854,0,0,1,.852-.852h2.555V8.852A.854.854,0,0,1,12.258,8h1.7a.854.854,0,0,1,.852.852v2.555h2.555A.854.854,0,0,1,18.219,12.258Z" transform="translate(-8 -8)" fill="#ff826e"/>
          </g>
        </g>
        <g id="Group_1145766" data-name="Group 1145766" transform="translate(0 0)">
          <path id="Path_981332" data-name="Path 981332" d="M10.406,17.219a1.7,1.7,0,0,0,1.7,1.7h1.7a1.7,1.7,0,0,0,1.7-1.7v-1.7h1.7a1.7,1.7,0,0,0,1.7-1.7v-1.7a1.7,1.7,0,0,0-1.7-1.7h-1.7V8.7a1.7,1.7,0,0,0-1.7-1.7h-1.7a1.7,1.7,0,0,0-1.7,1.7v1.7H8.7a1.7,1.7,0,0,0-1.7,1.7v1.7a1.7,1.7,0,0,0,1.7,1.7h1.7ZM8.7,13.812v-1.7h3.406V8.7h1.7v3.406h3.406v1.7H13.812v3.406h-1.7V13.812Z" transform="translate(-1.891 -1.719)"/>
          <path id="Path_981333" data-name="Path 981333" d="M22.289,29.922H21.28a2.551,2.551,0,0,0-2.4-1.7H17.874a2.551,2.551,0,0,0-2.4-1.7h-.852V23.458L18.493,21.2A9.4,9.4,0,0,0,23.14,13.11V1.3L20.334,2.7a5.974,5.974,0,0,1-5.973-.372L12.07.8,9.779,2.327A5.971,5.971,0,0,1,3.806,2.7L1,1.3V13.11A9.4,9.4,0,0,0,5.647,21.2l3.869,2.257V34.894a.143.143,0,0,1-.269.043l-.666-2a4.412,4.412,0,0,0-6.158-2.55l-.135.067a2.327,2.327,0,0,0-.251,4.018l.112.075a5.124,5.124,0,0,1,2.06,2.784L5.34,41.107a9.3,9.3,0,0,0,3.353,4.8l.769.576-.911,7.279H22.528l-1.88-7.519,1.477-2.363A17.866,17.866,0,0,0,24.843,34.4V32.477a2.558,2.558,0,0,0-2.555-2.555ZM2.7,13.11V4.051l.341.17a7.679,7.679,0,0,0,7.679-.479l1.347-.9,1.347.9a7.682,7.682,0,0,0,7.679.479l.341-.17V13.11a7.69,7.69,0,0,1-3.8,6.62l-3.123,1.821a2.538,2.538,0,0,0-4.884,0L6.505,19.729a7.689,7.689,0,0,1-3.8-6.62ZM10.48,52.063l.639-5.109h7.95l1.277,5.109ZM23.14,34.4a16.167,16.167,0,0,1-2.459,8.575l-1.419,2.27H10.651l-.937-.7a7.611,7.611,0,0,1-2.742-3.929L5.839,36.844a6.83,6.83,0,0,0-2.746-3.71l-.112-.075a.625.625,0,0,1,.067-1.08l.134-.067a2.71,2.71,0,0,1,3.783,1.566l.666,2a1.841,1.841,0,0,0,3.588-.582V22.259a.852.852,0,0,1,1.7,0V35.032h1.7V28.219h.852a.852.852,0,0,1,.852.852v5.961h1.7V29.922h.852a.852.852,0,0,1,.852.852v4.258h1.7V31.626h.852a.852.852,0,0,1,.852.852Z" transform="translate(-1 -0.798)"/>
          <path id="Path_981334" data-name="Path 981334" d="M32.8,1,28.293,5.507l1.2,1.2L33.505,2.7H57.848V1Z" transform="translate(-5.052 -0.828)"/>
          <path id="Path_981335" data-name="Path 981335" d="M40.823,8.938a1.69,1.69,0,0,0-1.011-.34H34.7A1.7,1.7,0,0,0,33,10.3V15.41a1.7,1.7,0,0,0,1.7,1.7h5.109a1.7,1.7,0,0,0,1.7-1.7V10.654L44.672,7.5l-1.2-1.2ZM39.812,15.41H34.7V10.3H39.46l-2.2,2.2-1.1-1.1-1.2,1.2,2.305,2.305,2.555-2.555Z" transform="translate(-5.751 -1.614)"/>
          <path id="Path_981336" data-name="Path 981336" d="M40.823,26.938a1.69,1.69,0,0,0-1.011-.34H34.7A1.7,1.7,0,0,0,33,28.3V33.41a1.7,1.7,0,0,0,1.7,1.7h5.109a1.7,1.7,0,0,0,1.7-1.7V28.654L44.672,25.5l-1.2-1.2ZM39.812,33.41H34.7V28.3H39.46l-2.2,2.2-1.1-1.1-1.2,1.2,2.305,2.305,2.555-2.555Z" transform="translate(-5.751 -4.286)"/>
          <path id="Path_981337" data-name="Path 981337" d="M43.468,40.293l-2.645,2.645a1.69,1.69,0,0,0-1.011-.34H34.7A1.7,1.7,0,0,0,33,44.3V49.41a1.7,1.7,0,0,0,1.7,1.7h5.109a1.7,1.7,0,0,0,1.7-1.7V44.654L44.672,41.5ZM39.812,49.41H34.7V44.3H39.46l-2.2,2.2-1.1-1.1-1.2,1.2,2.305,2.305,2.555-2.555Z" transform="translate(-5.751 -6.661)"/>
          <path id="Path_981338" data-name="Path 981338" d="M47,15H60.625v1.7H47Z" transform="translate(-7.829 -2.906)"/>
          <path id="Path_981339" data-name="Path 981339" d="M47,11h3.406v1.7H47Z" transform="translate(-7.829 -2.313)"/>
          <path id="Path_981340" data-name="Path 981340" d="M53,11h8.515v1.7H53Z" transform="translate(-8.72 -2.313)"/>
          <path id="Path_981341" data-name="Path 981341" d="M47,33H60.625v1.7H47Z" transform="translate(-7.829 -5.579)"/>
          <path id="Path_981342" data-name="Path 981342" d="M47,29h3.406v1.7H47Z" transform="translate(-7.829 -4.985)"/>
          <path id="Path_981343" data-name="Path 981343" d="M53,29h8.515v1.7H53Z" transform="translate(-8.72 -4.985)"/>
          <path id="Path_981344" data-name="Path 981344" d="M47,49H60.625v1.7H47Z" transform="translate(-7.829 -7.954)"/>
          <path id="Path_981345" data-name="Path 981345" d="M47,45h3.406v1.7H47Z" transform="translate(-7.829 -7.36)"/>
          <path id="Path_981346" data-name="Path 981346" d="M53,45h8.515v1.7H53Z" transform="translate(-8.72 -7.36)"/>
        </g>
      </g>
    </g>
  </g>
</svg>
