<svg xmlns="http://www.w3.org/2000/svg" width="29.446" height="29.446" viewBox="0 0 29.446 29.446">
  <g id="Group_1157525" data-name="Group 1157525" transform="translate(-270.063 -3866.558)">
    <g id="analisis_1_" data-name="analisis (1)" transform="translate(270.063 3866.558)">
      <g id="Group_1150837" data-name="Group 1150837" transform="translate(0 0)">
        <path id="Path_989737" data-name="Path 989737" d="M29.212,21.1l-.827-.608a4.629,4.629,0,0,0,0-1.041l.827-.608a.575.575,0,0,0,.157-.751l-1-1.729A11.38,11.38,0,0,0,29.447,11.5,11.5,11.5,0,0,0,8.534,4.889H1.727A1.727,1.727,0,0,0,0,6.615v5.751a1.727,1.727,0,0,0,1.725,1.725H6.736a11.412,11.412,0,0,0,1.644,3.8L.743,25.165l-.01.01a2.5,2.5,0,0,0,3.54,3.54l.01-.01,7.276-7.64A11.475,11.475,0,0,0,17.945,23c.316,0,.637-.013.956-.04l.507.879a.575.575,0,0,0,.729.239l.94-.412a4.559,4.559,0,0,0,.9.521l.113,1.019a.575.575,0,0,0,.572.512h2.3a.575.575,0,0,0,.572-.512l.113-1.019a4.561,4.561,0,0,0,.9-.521l.94.412a.575.575,0,0,0,.729-.239l1.15-1.992a.575.575,0,0,0-.157-.751ZM17.945,1.151A10.363,10.363,0,0,1,28.3,11.5a10.241,10.241,0,0,1-1,4.444l-.746.327a4.561,4.561,0,0,0-.794-.473,8.906,8.906,0,0,0,1.1-4.3,9.032,9.032,0,0,0-.061-1.042.575.575,0,0,0-1.142.133,7.884,7.884,0,0,1,.053.909,7.774,7.774,0,0,1-.509,2.769.573.573,0,0,0-.236-.05h-2.3a.575.575,0,0,0-.572.512l-.113,1.019a4.563,4.563,0,0,0-.9.521l-.94-.412a.575.575,0,0,0-.729.239l-1.15,1.992a.575.575,0,0,0,.157.751l.494.364a7.848,7.848,0,0,1-.965.06,7.763,7.763,0,0,1-7.322-5.176h1.505l1.844,1.844a.575.575,0,0,0,.813,0l1.844-1.844h1.2a1.727,1.727,0,0,0,1.725-1.725V6.615A1.727,1.727,0,0,0,17.83,4.889H13.875a7.767,7.767,0,0,1,9.8,1.376.575.575,0,0,0,.849-.776,8.914,8.914,0,0,0-12.556-.6H9.981a10.342,10.342,0,0,1,7.964-3.738ZM1.152,12.365V6.615a.576.576,0,0,1,.575-.575h16.1a.576.576,0,0,1,.575.575v5.751a.576.576,0,0,1-.575.575H16.392a.575.575,0,0,0-.407.168l-1.606,1.606-1.606-1.606a.575.575,0,0,0-.407-.168H1.727a.576.576,0,0,1-.575-.575Zm2.3,15.541a1.353,1.353,0,0,1-1.913-1.913l5.227-4.978,1.664,1.664Zm5.771-6.061L7.6,20.222l1.471-1.4a11.566,11.566,0,0,0,1.555,1.552ZM7.92,14.091H9.413a8.922,8.922,0,0,0,9.814,6.234q.006.084.016.167l-.827.608a.575.575,0,0,0-.158.749q-.157,0-.313,0A10.367,10.367,0,0,1,7.92,14.091ZM27.2,19.3a3.483,3.483,0,0,1,0,1.334.575.575,0,0,0,.224.574l.692.509-.635,1.1-.788-.345a.575.575,0,0,0-.609.094,3.431,3.431,0,0,1-1.153.667.575.575,0,0,0-.386.481l-.095.854H23.179l-.095-.854a.575.575,0,0,0-.386-.481,3.43,3.43,0,0,1-1.153-.667.575.575,0,0,0-.609-.094l-.788.345-.635-1.1.693-.509a.575.575,0,0,0,.224-.574,3.478,3.478,0,0,1,0-1.334.575.575,0,0,0-.224-.574l-.692-.509.635-1.1.788.345a.575.575,0,0,0,.609-.094,3.431,3.431,0,0,1,1.153-.667.575.575,0,0,0,.386-.481l.095-.854h1.271l.095.854a.575.575,0,0,0,.386.481,3.428,3.428,0,0,1,1.153.667.575.575,0,0,0,.609.094l.788-.345.635,1.1-.692.509a.575.575,0,0,0-.224.574Z" transform="translate(-0.001 -0.001)"/>
        <path id="Path_989738" data-name="Path 989738" d="M381.092,312.266a2.013,2.013,0,1,0,2.013,2.013A2.015,2.015,0,0,0,381.092,312.266Zm0,2.875a.863.863,0,1,1,.863-.863A.864.864,0,0,1,381.092,315.141Z" transform="translate(-357.278 -294.308)"/>
        <path id="Path_989739" data-name="Path 989739" d="M40.6,140a.575.575,0,0,0-.575.575V142.3a.575.575,0,0,0,1.15,0v-1.725A.575.575,0,0,0,40.6,140Z" transform="translate(-37.719 -131.949)"/>
        <path id="Path_989740" data-name="Path 989740" d="M80.6,130a.575.575,0,0,0-.575.575v2.875a.575.575,0,1,0,1.15,0v-2.875A.575.575,0,0,0,80.6,130Z" transform="translate(-75.419 -122.524)"/>
        <path id="Path_989741" data-name="Path 989741" d="M120.6,147.837a.575.575,0,0,0-.575.575v.824a.575.575,0,0,0,1.15,0v-.824A.575.575,0,0,0,120.6,147.837Z" transform="translate(-113.119 -139.335)"/>
        <path id="Path_989742" data-name="Path 989742" d="M160.6,125a.575.575,0,0,0-.575.575v3.451a.575.575,0,1,0,1.15,0v-3.451A.575.575,0,0,0,160.6,125Z" transform="translate(-150.818 -117.811)"/>
        <path id="Path_989743" data-name="Path 989743" d="M201.171,149.236v-.824a.575.575,0,0,0-1.15,0v.824a.575.575,0,0,0,1.15,0Z" transform="translate(-188.518 -139.335)"/>
        <path id="Path_989744" data-name="Path 989744" d="M240.6,134.026a.575.575,0,0,0,.575-.575v-2.875a.575.575,0,1,0-1.15,0v2.875A.575.575,0,0,0,240.6,134.026Z" transform="translate(-226.218 -122.524)"/>
        <path id="Path_989745" data-name="Path 989745" d="M280.6,142.875a.575.575,0,0,0,.575-.575v-1.725a.575.575,0,1,0-1.15,0V142.3A.575.575,0,0,0,280.6,142.875Z" transform="translate(-263.917 -131.949)"/>
        <path id="Path_989746" data-name="Path 989746" d="M434.492,130.836a.575.575,0,1,0,0-1.15h0a.575.575,0,0,0,0,1.15Z" transform="translate(-408.963 -122.228)"/>
      </g>
    </g>
  </g>
</svg>
