<svg xmlns="http://www.w3.org/2000/svg" xmlns:xlink="http://www.w3.org/1999/xlink" width="103" height="103" viewBox="0 0 103 103">
  <defs>
    <filter id="Path_982547" x="0" y="0" width="103" height="103" filterUnits="userSpaceOnUse">
      <feOffset dy="3" input="SourceAlpha"/>
      <feGaussianBlur stdDeviation="3" result="blur"/>
      <feFlood flood-opacity="0.161"/>
      <feComposite operator="in" in2="blur"/>
      <feComposite in="SourceGraphic"/>
    </filter>
  </defs>
  <g id="Group_1157653" data-name="Group 1157653" transform="translate(-276 -2043)">
    <g id="Group_1156661" data-name="Group 1156661" transform="translate(-955.805 721.627)">
      <g id="Group_1156563" data-name="Group 1156563" transform="translate(1240.804 1327.373)">
        <g id="Group_1155739" data-name="Group 1155739" transform="translate(0 0)">
          <g id="Group_1153134" data-name="Group 1153134">
            <g id="Group_1149598" data-name="Group 1149598">
              <g id="Group_1148770" data-name="Group 1148770">
                <g id="Group_1146954" data-name="Group 1146954">
                  <g transform="matrix(1, 0, 0, 1, -9, -6)" filter="url(#Path_982547)">
                    <g id="Path_982547-2" data-name="Path 982547" transform="translate(9 6)" fill="#fcf3f0">
                      <path d="M 42.4998779296875 83.49976348876953 C 36.96426773071289 83.49976348876953 31.59504318237305 82.41593933105469 26.54133605957031 80.27840423583984 C 21.65927886962891 78.21346282958984 17.2744312286377 75.25701904296875 13.50859546661377 71.49117279052734 C 9.742748260498047 67.72532653808594 6.786301612854004 63.34047698974609 4.721360206604004 58.45841979980469 C 2.583830833435059 53.40471267700195 1.500007390975952 48.03548812866211 1.500007390975952 42.4998779296875 C 1.500007390975952 36.96426773071289 2.583830833435059 31.59504318237305 4.721360206604004 26.54133605957031 C 6.786301612854004 21.65927886962891 9.742748260498047 17.2744312286377 13.50858402252197 13.50858402252197 C 17.2744312286377 9.742748260498047 21.65927886962891 6.786301612854004 26.54133605957031 4.721360206604004 C 31.59504318237305 2.583830833435059 36.96426773071289 1.500007390975952 42.4998779296875 1.500007390975952 C 48.03548812866211 1.500007390975952 53.40471267700195 2.583830833435059 58.45841979980469 4.721360206604004 C 63.34047698974609 6.786301612854004 67.72532653808594 9.742748260498047 71.49117279052734 13.50859546661377 C 75.25701904296875 17.2744312286377 78.21346282958984 21.65927886962891 80.27840423583984 26.54133605957031 C 82.41593933105469 31.59504318237305 83.49976348876953 36.96426773071289 83.49976348876953 42.4998779296875 C 83.49976348876953 48.03548812866211 82.41593933105469 53.40471267700195 80.27840423583984 58.45841979980469 C 78.21346282958984 63.34047698974609 75.25701904296875 67.72532653808594 71.49117279052734 71.49117279052734 C 67.72532653808594 75.25701904296875 63.34047698974609 78.21346282958984 58.45841979980469 80.27840423583984 C 53.40471267700195 82.41593933105469 48.03548812866211 83.49976348876953 42.4998779296875 83.49976348876953 Z" stroke="none"/>
                      <path d="M 42.4998779296875 3 C 37.16610336303711 3 31.99347686767578 4.043960571289062 27.12566375732422 6.102867126464844 C 22.42241287231445 8.092170715332031 18.19781494140625 10.94068145751953 14.56925201416016 14.56925201416016 C 10.94068145751953 18.19781494140625 8.092170715332031 22.42241287231445 6.102867126464844 27.12566375732422 C 4.043960571289062 31.99347686767578 3 37.16610336303711 3 42.4998779296875 C 3 47.83365249633789 4.043960571289062 53.00627899169922 6.102867126464844 57.87409210205078 C 8.092170715332031 62.57735824584961 10.94068145751953 66.80194091796875 14.56925201416016 70.43051910400391 C 18.19781494140625 74.05908203125 22.42241287231445 76.90758514404297 27.12566375732422 78.89688873291016 C 31.99347686767578 80.95579528808594 37.16610336303711 81.999755859375 42.4998779296875 81.999755859375 C 47.83365249633789 81.999755859375 53.00629043579102 80.95579528808594 57.87409210205078 78.89688873291016 C 62.57735824584961 76.90758514404297 66.80194091796875 74.05908203125 70.43051910400391 70.43051910400391 C 74.05908203125 66.80194091796875 76.90758514404297 62.57735824584961 78.89688873291016 57.87409210205078 C 80.95579528808594 53.00629043579102 81.999755859375 47.83365249633789 81.999755859375 42.4998779296875 C 81.999755859375 37.16610336303711 80.95579528808594 31.99347686767578 78.89688873291016 27.12566375732422 C 76.90758514404297 22.42241287231445 74.05908203125 18.19781494140625 70.43051910400391 14.56925201416016 C 66.80194091796875 10.94068145751953 62.57735824584961 8.092170715332031 57.87409210205078 6.102867126464844 C 53.00627899169922 4.043960571289062 47.83365249633789 3 42.4998779296875 3 M 42.4998779296875 0 C 65.97191619873047 0 84.999755859375 19.02785491943359 84.999755859375 42.4998779296875 C 84.999755859375 65.97191619873047 65.97191619873047 84.999755859375 42.4998779296875 84.999755859375 C 19.02785491943359 84.999755859375 0 65.97191619873047 0 42.4998779296875 C 0 19.02785491943359 19.02785491943359 0 42.4998779296875 0 Z" stroke="none" fill="#e89076"/>
                    </g>
                  </g>
                </g>
              </g>
            </g>
          </g>
        </g>
        <g id="recursos-humanos" transform="translate(16.056 17)">
          <g id="Group_1156561" data-name="Group 1156561" transform="translate(1.551 0.83)">
            <g id="Group_1156543" data-name="Group 1156543" transform="translate(25.736 26.566)">
              <path id="Path_990759" data-name="Path 990759" d="M37.849,39.642H32.868a8.424,8.424,0,0,1,5.62-6.575L38.679,33a7.665,7.665,0,0,0,3.014,3.943l.307.208.307-.208A7.665,7.665,0,0,0,45.321,33l1.046.349a5.782,5.782,0,0,1,3.678,3.744,5.9,5.9,0,0,1,.257,1.719,4.138,4.138,0,0,1-4.151,4.151H38.679V40.472A.833.833,0,0,0,37.849,39.642Z" transform="translate(-32.868 -33)" fill="#b4dd7f"/>
            </g>
            <g id="Group_1156544" data-name="Group 1156544" transform="translate(18.264 33.208)">
              <path id="Path_990760" data-name="Path 990760" d="M37.151,41.83v2.491H23.868V41.83A.833.833,0,0,1,24.7,41H36.321A.833.833,0,0,1,37.151,41.83Z" transform="translate(-23.868 -41)" fill="#aab2bd"/>
            </g>
            <g id="Group_1156545" data-name="Group 1156545" transform="translate(31.547 39.849)">
              <path id="Path_990761" data-name="Path 990761" d="M54.812,49v9.132a.833.833,0,0,1-.83.83H39.868V49Z" transform="translate(-39.868 -49)" fill="#cf9e76"/>
            </g>
            <g id="Group_1156546" data-name="Group 1156546" transform="translate(3.321 39.849)">
              <path id="Path_990762" data-name="Path 990762" d="M34.095,49v9.962H6.7a.833.833,0,0,1-.83-.83V49Z" transform="translate(-5.868 -49)" fill="#cf9e76"/>
            </g>
            <g id="Group_1156547" data-name="Group 1156547" transform="translate(1.66 36.529)">
              <path id="Path_990763" data-name="Path 990763" d="M50.359,45.83v1.66a.833.833,0,0,1-.83.83H4.7a.833.833,0,0,1-.83-.83V45.83A.833.833,0,0,1,4.7,45H49.529A.833.833,0,0,1,50.359,45.83Z" transform="translate(-3.868 -45)" fill="#b27946"/>
            </g>
            <g id="Group_1156548" data-name="Group 1156548" transform="translate(5.811 26.566)">
              <path id="Path_990764" data-name="Path 990764" d="M16.755,37.981,18,42.962H8.868l.83-4.981.714-4.284a.83.83,0,0,1,.822-.7h3.628a.826.826,0,0,1,.805.631Z" transform="translate(-8.868 -33)" fill="#656d78"/>
            </g>
            <g id="Group_1156549" data-name="Group 1156549" transform="translate(18.264 18.264)">
              <path id="Path_990765" data-name="Path 990765" d="M27.189,23.83V35.453a.833.833,0,0,1-.83.83H23.868V23h2.491A.833.833,0,0,1,27.189,23.83Z" transform="translate(-23.868 -23)" fill="#969faa"/>
            </g>
            <g id="Group_1156550" data-name="Group 1156550" transform="translate(0 18.264)">
              <path id="Path_990766" data-name="Path 990766" d="M20.132,23V36.283H15.566l-1.088-4.35a.826.826,0,0,0-.805-.631H10.045a.83.83,0,0,0-.822.7L8.51,36.283H2.7a.833.833,0,0,1-.83-.83V23.83A.833.833,0,0,1,2.7,23H20.132Z" transform="translate(-1.868 -23)" fill="#ccd1d9"/>
            </g>
            <g id="Group_1156551" data-name="Group 1156551" transform="translate(14.944 13.283)">
              <path id="Path_990767" data-name="Path 990767" d="M23.189,17.83v4.151H19.868V17.83A.833.833,0,0,1,20.7,17h1.66A.833.833,0,0,1,23.189,17.83Z" transform="translate(-19.868 -17)" fill="#ef7385"/>
            </g>
            <g id="Group_1156552" data-name="Group 1156552" transform="translate(8.302 11.623)">
              <path id="Path_990768" data-name="Path 990768" d="M15.189,15.83v5.811H11.868V15.83A.833.833,0,0,1,12.7,15h1.66A.833.833,0,0,1,15.189,15.83Z" transform="translate(-11.868 -15)" fill="#ef7385"/>
            </g>
            <g id="Group_1156553" data-name="Group 1156553" transform="translate(0 1.66)">
              <path id="Path_990769" data-name="Path 990769" d="M5.189,3,8.51,7.981H6.849V19.6H3.528V7.981H1.868Z" transform="translate(-1.868 -3)" fill="#ef7385"/>
            </g>
            <g id="Group_1156554" data-name="Group 1156554" transform="translate(31.547 24.482)">
              <path id="Path_990770" data-name="Path 990770" d="M40.565,30.49a8.339,8.339,0,0,0,5.247,0l.7,2.084A7.665,7.665,0,0,1,43.5,36.517l-.307.208-.307-.208a7.665,7.665,0,0,1-3.014-3.943Z" transform="translate(-39.868 -30.49)" fill="#f5e0cd"/>
            </g>
            <g id="Group_1156555" data-name="Group 1156555" transform="translate(43.17 13.283)">
              <path id="Path_990771" data-name="Path 990771" d="M53.868,18.868V17h1.66a1.665,1.665,0,0,1,1.66,1.66,1.672,1.672,0,0,1-1.66,1.66H53.951A12.079,12.079,0,0,1,53.868,18.868Z" transform="translate(-53.868 -17)" fill="#f5e0cd"/>
            </g>
            <g id="Group_1156556" data-name="Group 1156556" transform="translate(26.566 6.642)">
              <path id="Path_990772" data-name="Path 990772" d="M50.472,15.642v3.321a8.3,8.3,0,1,1-16.6,0V15.642A4.969,4.969,0,0,1,37,11.067L42.17,9l5.172,2.067A4.969,4.969,0,0,1,50.472,15.642Z" transform="translate(-33.868 -9)" fill="#f5e0cd"/>
            </g>
            <g id="Group_1156557" data-name="Group 1156557" transform="translate(23.245 13.283)">
              <path id="Path_990773" data-name="Path 990773" d="M33.189,17v1.868a12.079,12.079,0,0,1-.083,1.453H31.528a1.672,1.672,0,0,1-1.66-1.66A1.665,1.665,0,0,1,31.528,17Z" transform="translate(-29.868 -17)" fill="#f5e0cd"/>
            </g>
            <g id="Group_1156558" data-name="Group 1156558" transform="translate(24.906 16.604)">
              <path id="Path_990774" data-name="Path 990774" d="M33.528,35.113V30.589a3.125,3.125,0,0,0-.913-2.2,2.545,2.545,0,0,1-.747-1.8,2.606,2.606,0,0,1,.266-1.146A12.875,12.875,0,0,0,33.445,21h.083a8.306,8.306,0,0,0,5.679,7.879l-.7,2.084-.191.066a8.356,8.356,0,0,0-4.782,4.085Z" transform="translate(-31.868 -21)" fill="#fcd770"/>
            </g>
            <g id="Group_1156559" data-name="Group 1156559" transform="translate(37.492 16.604)">
              <path id="Path_990775" data-name="Path 990775" d="M54.5,34.856l-2.051.2a5.782,5.782,0,0,0-3.678-3.744l-1.046-.349-.7-2.084A8.306,8.306,0,0,0,52.707,21h1.66l1,2a6.334,6.334,0,0,0,1.843,2.208,5.4,5.4,0,0,1,1.586,1.885,5.342,5.342,0,0,1,.573,2.391V29.5A5.381,5.381,0,0,1,54.5,34.856Z" transform="translate(-47.028 -21)" fill="#fcd770"/>
            </g>
            <g id="Group_1156560" data-name="Group 1156560" transform="translate(24.906)">
              <path id="Path_990776" data-name="Path 990776" d="M33.528,14.283h-1.66V10.132A9.127,9.127,0,0,1,41,1h1.66a9.127,9.127,0,0,1,9.132,9.132v4.151h-1.66A4.969,4.969,0,0,0,47,9.709L41.83,7.642,36.658,9.709A4.969,4.969,0,0,0,33.528,14.283Z" transform="translate(-31.868 -1)" fill="#fcd770"/>
            </g>
          </g>
          <g id="Group_1156562" data-name="Group 1156562" transform="translate(0 0)">
            <path id="Path_990777" data-name="Path 990777" d="M48.872,36.529h-4.6a4.956,4.956,0,0,0,1.279-3.321,6.6,6.6,0,0,0-.078-.98l1.122-.109a6.207,6.207,0,0,0,3.126-11.144,5.443,5.443,0,0,1-1.6-1.914l-.556-1.112a2.472,2.472,0,0,0-.356-4.514V9.962A9.973,9.973,0,0,0,37.248,0h-1.66a9.973,9.973,0,0,0-9.962,9.962v3.474a2.485,2.485,0,0,0,.83,4.828h.6a12.361,12.361,0,0,1-1.07,3.242,3.386,3.386,0,0,0,.634,3.9,2.267,2.267,0,0,1,.67,1.616v1.2h1.66v-1.2a3.915,3.915,0,0,0-1.156-2.79,1.725,1.725,0,0,1-.322-1.989c.2-.406.381-.824.544-1.249a9.18,9.18,0,0,0,4.745,4.8l-.316.949a9.178,9.178,0,0,0-5.809,6.465H22.306a1.662,1.662,0,0,0,1.66-1.66V19.925a1.662,1.662,0,0,0-1.66-1.66h-1.66V14.944a1.662,1.662,0,0,0-1.66-1.66h-1.66a1.662,1.662,0,0,0-1.66,1.66v3.321H14V13.283a1.662,1.662,0,0,0-1.66-1.66h-1.66a1.662,1.662,0,0,0-1.66,1.66v4.981H7.362V8.3H9.743L4.872.994,0,8.3H2.381v9.962a1.662,1.662,0,0,0-1.66,1.66V31.547a1.662,1.662,0,0,0,1.66,1.66H7.212l-.554,3.321H4.041a1.662,1.662,0,0,0-1.66,1.66v1.66a1.662,1.662,0,0,0,1.66,1.66v8.3a1.662,1.662,0,0,0,1.66,1.66h41.51a1.662,1.662,0,0,0,1.66-1.66v-8.3a1.662,1.662,0,0,0,1.66-1.66v-1.66a1.662,1.662,0,0,0-1.66-1.66Zm-.146-14.223a4.547,4.547,0,0,1-2.29,8.162L45,30.607a6.562,6.562,0,0,0-3.951-3.65l-.649-.217-.315-.946A9.186,9.186,0,0,0,44.826,21c.162.424.34.842.543,1.247a1.723,1.723,0,0,1-.321,1.99,3.918,3.918,0,0,0-1.156,2.79v1.2h1.66v-1.2a2.269,2.269,0,0,1,.67-1.616,3.386,3.386,0,0,0,.633-3.906,12.347,12.347,0,0,1-1.069-3.24h.083l.77,1.54a7.114,7.114,0,0,0,2.086,2.5Zm-2.344-5.7h-.794c-.011-.207-.037-.413-.037-.619V14.944h.83a.83.83,0,1,1,0,1.66ZM27.287,9.962a8.311,8.311,0,0,1,8.3-8.3h1.66a8.311,8.311,0,0,1,8.3,8.3v2.695A9.585,9.585,0,0,0,38.28,3.346l-.4,1.611a7.924,7.924,0,0,1,5.376,4.59A5.87,5.87,0,0,0,41.9,8.769L36.419,6.577,30.94,8.769a5.838,5.838,0,0,0-1.357.777,7.922,7.922,0,0,1,5.376-4.59l-.4-1.611a9.585,9.585,0,0,0-7.271,9.311Zm-.83,6.642a.83.83,0,0,1,0-1.66h.83v1.041c0,.207-.026.413-.037.619Zm2.491.83V14.165a4.13,4.13,0,0,1,2.609-3.854l4.862-1.945,4.862,1.944a4.132,4.132,0,0,1,2.609,3.855v3.269a7.472,7.472,0,0,1-14.944,0Zm7.472,9.132a9.087,9.087,0,0,0,2.085-.25l.35,1.049a6.851,6.851,0,0,1-2.435,3.181,6.851,6.851,0,0,1-2.435-3.181l.35-1.049a9.093,9.093,0,0,0,2.085.25Zm-3.785,1.9a8.526,8.526,0,0,0,3.018,3.566l.767.511.767-.511a8.524,8.524,0,0,0,3.035-3.6l.3.1a4.924,4.924,0,0,1,3.371,4.676,3.324,3.324,0,0,1-3.321,3.321H33.929v-1.66a1.691,1.691,0,0,0-.022-.226l3.7-.528.563,1.125,1.485-.743-.56-1.122a10.588,10.588,0,0,1,2.68-1.916l-.743-1.485a12.221,12.221,0,0,0-3.189,2.3l-.153.152-5.478.784H28.335a7.519,7.519,0,0,1,4.3-4.74Zm-.366,6.4v1.66H20.645v-1.66Zm-13.283,0v1.66H17.142l-.83-3.321h4.334A1.663,1.663,0,0,0,18.985,34.868Zm3.321-14.944V31.547h-1.66V19.925Zm-4.981-4.981h1.66v3.321h-1.66Zm-6.642-1.66h1.66v4.981h-1.66ZM3.1,6.642l1.77-2.654,1.77,2.654H5.7V18.264H4.041V6.642ZM2.381,31.547V19.925h16.6V31.547H15.9l-.931-3.723a1.657,1.657,0,0,0-1.611-1.258H9.726a1.657,1.657,0,0,0-1.638,1.387l-.6,3.594Zm7.345-3.321h3.63l2.075,8.3H8.343ZM5.7,41.51H32.268v8.3H5.7Zm41.51,8.3H33.928v-8.3H47.212ZM4.041,39.849v-1.66H48.872v1.66Z" transform="translate(0 0)"/>
            <path id="Path_990778" data-name="Path 990778" d="M12.868,8h1.66V9.66h-1.66Z" transform="translate(-2.185 -1.358)"/>
            <path id="Path_990779" data-name="Path 990779" d="M16.868,8h1.66V9.66h-1.66Z" transform="translate(-2.864 -1.358)"/>
            <path id="Path_990780" data-name="Path 990780" d="M36.868,16h1.66v3.321h-1.66Z" transform="translate(-6.26 -2.717)"/>
            <path id="Path_990781" data-name="Path 990781" d="M48.868,16h1.66v3.321h-1.66Z" transform="translate(-8.298 -2.717)"/>
            <path id="Path_990782" data-name="Path 990782" d="M46.352,25.47l.087-.175-1.485-.743-.087.175a1.856,1.856,0,0,1-3.321,0l-.087-.175-1.485.743.087.174a3.516,3.516,0,0,0,6.291,0Z" transform="translate(-6.788 -4.169)"/>
          </g>
        </g>
      </g>
    </g>
  </g>
</svg>
