<svg xmlns="http://www.w3.org/2000/svg" xmlns:xlink="http://www.w3.org/1999/xlink" width="102.805" height="102.805" viewBox="0 0 102.805 102.805">
  <defs>
    <filter id="Path_982547" x="0" y="0" width="102.805" height="102.805" filterUnits="userSpaceOnUse">
      <feOffset dy="3" input="SourceAlpha"/>
      <feGaussianBlur stdDeviation="3" result="blur"/>
      <feFlood flood-opacity="0.161"/>
      <feComposite operator="in" in2="blur"/>
      <feComposite in="SourceGraphic"/>
    </filter>
  </defs>
  <g id="Group_1157654" data-name="Group 1157654" transform="translate(-591.195 -2043)">
    <g id="Group_1156510" data-name="Group 1156510" transform="translate(-3479.805 -1251)">
      <g id="Group_1155736" data-name="Group 1155736" transform="translate(4080 3300)">
        <g id="Group_1154704" data-name="Group 1154704" transform="translate(0 0)">
          <g id="Group_1150790" data-name="Group 1150790">
            <g id="Group_1154214" data-name="Group 1154214">
              <g id="Group_1152583" data-name="Group 1152583">
                <g id="Group_1146973" data-name="Group 1146973">
                  <g id="Group_1146954" data-name="Group 1146954">
                    <g transform="matrix(1, 0, 0, 1, -9, -6)" filter="url(#Path_982547)">
                      <g id="Path_982547-2" data-name="Path 982547" transform="translate(9 6)" fill="#fcf3f0">
                        <path d="M 42.40234375 83.3045654296875 C 36.87989807128906 83.3045654296875 31.5234489440918 82.22332763671875 26.48176765441895 80.09088134765625 C 21.61132049560547 78.03086090087891 17.23690795898438 75.08144378662109 13.48002624511719 71.32456207275391 C 9.723132133483887 67.56768035888672 6.773720264434814 63.19327163696289 4.713696479797363 58.32283401489258 C 2.581249713897705 53.28116607666016 1.50000262260437 47.92471694946289 1.50000262260437 42.40228271484375 C 1.50000262260437 36.87984848022461 2.581249713897705 31.52340126037598 4.713696479797363 26.48172950744629 C 6.773720264434814 21.61129379272461 9.723132133483887 17.23688316345215 13.48002624511719 13.48000049591064 C 17.23690795898438 9.723130226135254 21.61132049560547 6.773706436157227 26.48176765441895 4.71369457244873 C 31.5234489440918 2.581247329711914 36.87989807128906 1.500000357627869 42.40234375 1.500000357627869 C 47.92478942871094 1.500000357627869 53.2812385559082 2.581247329711914 58.32292175292969 4.71369457244873 C 63.19336700439453 6.773706436157227 67.56777954101562 9.723130226135254 71.32466125488281 13.48000049591064 C 75.08155822753906 17.23688316345215 78.03096771240234 21.61129379272461 80.09098815917969 26.48172950744629 C 82.22343444824219 31.52340126037598 83.3046875 36.87984848022461 83.3046875 42.40228271484375 C 83.3046875 47.92471694946289 82.22343444824219 53.28116607666016 80.09098815917969 58.32283401489258 C 78.03096771240234 63.19327163696289 75.08155822753906 67.56768035888672 71.32466125488281 71.32456207275391 C 67.56777954101562 75.08144378662109 63.19336700439453 78.03086090087891 58.32292175292969 80.09088134765625 C 53.2812385559082 82.22332763671875 47.92478942871094 83.3045654296875 42.40234375 83.3045654296875 Z" stroke="none"/>
                        <path d="M 42.40234375 3 C 37.08174514770508 3 31.92187881469727 4.041374206542969 27.06608963012695 6.095199584960938 C 22.37443542480469 8.07958984375 18.16029357910156 10.92105865478516 14.54067993164062 14.54067230224609 C 10.92106628417969 18.16027069091797 8.079597473144531 22.37441635131836 6.095199584960938 27.06605529785156 C 4.041374206542969 31.92184448242188 3 37.08168411254883 3 42.40228271484375 C 3 47.72288131713867 4.041374206542969 52.88272094726562 6.095199584960938 57.73851013183594 C 8.079597473144531 62.43014907836914 10.92106628417969 66.64429473876953 14.54067993164062 70.26389312744141 C 18.16029357910156 73.88350677490234 22.37443542480469 76.7249755859375 27.06608963012695 78.70936584472656 C 31.92187881469727 80.76319122314453 37.08174514770508 81.8045654296875 42.40234375 81.8045654296875 C 47.72294235229492 81.8045654296875 52.8828125 80.76319122314453 57.73859786987305 78.70936584472656 C 62.43023681640625 76.7249755859375 66.64439392089844 73.88350677490234 70.26400756835938 70.26389312744141 C 73.88362121582031 66.64429473876953 76.72509002685547 62.43014907836914 78.70948791503906 57.73851013183594 C 80.76332092285156 52.88272094726562 81.8046875 47.72288131713867 81.8046875 42.40228271484375 C 81.8046875 37.08168411254883 80.76332092285156 31.92184448242188 78.70948791503906 27.06605529785156 C 76.72509002685547 22.37441635131836 73.88362121582031 18.16027069091797 70.26400756835938 14.54067230224609 C 66.64439392089844 10.92105865478516 62.43023681640625 8.07958984375 57.73859786987305 6.095199584960938 C 52.8828125 4.041374206542969 47.72294235229492 3 42.40234375 3 M 42.40234375 0 C 65.82050323486328 0 84.8046875 18.98414611816406 84.8046875 42.40228271484375 C 84.8046875 65.82041931152344 65.82050323486328 84.8045654296875 42.40234375 84.8045654296875 C 18.98416900634766 84.8045654296875 0 65.82041931152344 0 42.40228271484375 C 0 18.98414611816406 18.98416900634766 0 42.40234375 0 Z" stroke="none" fill="#e89076"/>
                      </g>
                    </g>
                  </g>
                </g>
              </g>
            </g>
          </g>
        </g>
      </g>
      <g id="proteger" transform="translate(4092.905 3314.749)">
        <path id="Path_990655" data-name="Path 990655" d="M90.283,284.363l-11.435,7.653-3.408-.191-.133-1.341a4.354,4.354,0,0,0-3.722-3.88l-12.09-1.059c-1.185-.168-3.677-1.485-5.631-2.606a12.433,12.433,0,0,0-6.08-1.652l-6.147-.051v15.027l17.4,6.589a4.729,4.729,0,0,0,2.023.134l.012,0,17.517-2.525a7.753,7.753,0,0,0,3.677-1.648l11.322-10.182a2.7,2.7,0,0,0-3.3-4.265Zm0,0" transform="translate(-36.882 -249.176)" fill="#fae0c1"/>
        <path id="Path_990656" data-name="Path 990656" d="M94.025,312.55a2.7,2.7,0,0,0-.247-.311l-11.514,8.456a7.751,7.751,0,0,1-3.677,1.647L61.07,324.867l-.012,0a4.736,4.736,0,0,1-2.023-.135l-17.4-6.588v5.579l17.4,6.589a4.73,4.73,0,0,0,2.023.134l.012,0,17.517-2.525a7.753,7.753,0,0,0,3.677-1.648l11.322-10.182A2.7,2.7,0,0,0,94.025,312.55Zm0,0" transform="translate(-36.882 -276.64)" fill="#efd0af"/>
        <path id="Path_990657" data-name="Path 990657" d="M15.9,268.717H8.671a1.183,1.183,0,0,1-1.183-1.182V245.468a1.183,1.183,0,0,1,1.183-1.183H15.9a1.183,1.183,0,0,1,1.183,1.183v22.067A1.183,1.183,0,0,1,15.9,268.717Zm0,0" transform="translate(-6.633 -216.446)" fill="#f43b45"/>
        <path id="Path_990658" data-name="Path 990658" d="M47.106,244.285H42.719v24.432h4.387a1.183,1.183,0,0,0,1.183-1.182V245.468A1.183,1.183,0,0,0,47.106,244.285Zm0,0" transform="translate(-37.841 -216.446)" fill="#cf3735"/>
        <path id="Path_990659" data-name="Path 990659" d="M150.975,15.643a8.366,8.366,0,0,1-5.124-7,.827.827,0,0,0-.83-.751l-8.685.051h-.176L127.474,8a.833.833,0,0,0-.823.773,8.367,8.367,0,0,1-5.049,7.049,1.194,1.194,0,0,0-.716,1.224c.4,3.812,2.721,16.794,15.378,22.632a.393.393,0,0,0,.169.037.4.4,0,0,0,.168-.038c12.588-5.986,14.757-18.993,15.111-22.811a1.2,1.2,0,0,0-.738-1.219Zm0,0" transform="translate(-107.077 -7.05)" fill="#75cff2"/>
        <path id="Path_990660" data-name="Path 990660" d="M249.71,15.643a8.366,8.366,0,0,1-5.124-7,.827.827,0,0,0-.83-.751l-4.781.028a8.366,8.366,0,0,0,5.15,7.718,1.206,1.206,0,0,1,.744,1.222c-.328,3.539-2.219,14.977-12.525,21.4A26.046,26.046,0,0,0,235,39.675a.4.4,0,0,0,.169.036.393.393,0,0,0,.168-.038c12.588-5.986,14.758-18.993,15.112-22.811a1.2,1.2,0,0,0-.739-1.219Zm0,0" transform="translate(-205.811 -7.05)" fill="#53b4e4"/>
        <path id="Path_990661" data-name="Path 990661" d="M162.64,61.127c-8.661-4.7-11.173-13.42-11.893-17.7a.458.458,0,0,1,.208-.466A11.2,11.2,0,0,0,155.8,36.6a.46.46,0,0,1,.439-.329l12.949-.076a.459.459,0,0,1,.443.324,11.2,11.2,0,0,0,4.921,6.309.457.457,0,0,1,.214.463c-.67,4.287-3.078,13.035-11.684,17.836a.463.463,0,0,1-.445,0Zm0,0" transform="translate(-133.527 -32.116)" fill="#e1e0de"/>
        <path id="Path_990662" data-name="Path 990662" d="M246.7,42.824a11.2,11.2,0,0,1-4.921-6.309.459.459,0,0,0-.443-.324l-5.221.03a11.2,11.2,0,0,0,5.007,6.6.456.456,0,0,1,.214.462c-.6,3.831-2.587,11.228-9.149,16.185a21.907,21.907,0,0,0,2.6,1.655.463.463,0,0,0,.445,0c8.606-4.8,11.015-13.55,11.684-17.837a.457.457,0,0,0-.214-.463Zm0,0" transform="translate(-205.67 -32.116)" fill="#d6d6d6"/>
        <path id="Path_990663" data-name="Path 990663" d="M33.422,393.842a2.174,2.174,0,1,1-2.174-2.174A2.174,2.174,0,0,1,33.422,393.842Zm0,0" transform="translate(-25.754 -346.999)" fill="#ededed"/>
        <path id="Path_990664" data-name="Path 990664" d="M217.407,100.526a.865.865,0,0,0,1.3-.148l5.7-8.6a.857.857,0,1,0-1.428-.947l-5.137,7.753-2.854-2.71a.856.856,0,1,0-1.179,1.242Zm0,0" transform="translate(-189.16 -80.174)"/>
        <path id="Path_990665" data-name="Path 990665" d="M129.275,33.915a1.269,1.269,0,0,0,.525.115h.007a1.253,1.253,0,0,0,.531-.121c13.023-6.194,15.231-19.557,15.6-23.505a2.047,2.047,0,0,0-1.263-2.089,7.485,7.485,0,0,1-4.6-6.282A1.691,1.691,0,0,0,138.394.5h-.01L120.838.6a1.678,1.678,0,0,0-1.671,1.563,7.486,7.486,0,0,1-4.532,6.327,2.04,2.04,0,0,0-1.231,2.1c.412,3.944,2.776,17.281,15.871,23.321ZM115.308,10.068a9.191,9.191,0,0,0,5.565-7.753l17.5-.1A9.192,9.192,0,0,0,144.015,9.9a.344.344,0,0,1,.214.349c-.343,3.7-2.4,16.176-14.433,22.023-12.1-5.7-14.3-18.156-14.69-21.852a.337.337,0,0,1,.2-.347Zm0,0" transform="translate(-100.444 -0.5)"/>
        <path id="Path_990666" data-name="Path 990666" d="M143.894,39.881a.9.9,0,0,0,1.051.6.857.857,0,0,0,.6-1.051c-.218-.8-.4-1.619-.546-2.426a12.045,12.045,0,0,0,4.9-6.422l12.369-.073a12.044,12.044,0,0,0,4.975,6.364c-.134.81-.308,1.627-.517,2.434a.857.857,0,1,0,1.659.43c.245-.947.445-1.909.593-2.858a1.31,1.31,0,0,0-.617-1.328,10.337,10.337,0,0,1-4.545-5.827,1.324,1.324,0,0,0-1.259-.929h-.008l-12.949.076a1.325,1.325,0,0,0-1.256.944,10.337,10.337,0,0,1-4.477,5.88,1.309,1.309,0,0,0-.6,1.336c.16.947.37,1.906.627,2.849Zm0,0" transform="translate(-126.891 -25.565)"/>
        <path id="Path_990667" data-name="Path 990667" d="M181.236,147.6a.856.856,0,0,0-1.118.465,21.573,21.573,0,0,1-9.315,10.844,21.581,21.581,0,0,1-9.449-10.752.857.857,0,0,0-1.576.671,23.233,23.233,0,0,0,10.4,11.691,1.311,1.311,0,0,0,1.27-.007A23.226,23.226,0,0,0,181.7,148.716a.855.855,0,0,0-.465-1.118Zm0,0" transform="translate(-141.471 -130.743)"/>
        <path id="Path_990668" data-name="Path 990668" d="M24.616,384.273a3.03,3.03,0,1,0,3.031,3.03A3.034,3.034,0,0,0,24.616,384.273Zm0,4.347a1.317,1.317,0,1,1,1.318-1.317A1.319,1.319,0,0,1,24.616,388.62Zm0,0" transform="translate(-19.121 -340.449)"/>
        <path id="Path_990669" data-name="Path 990669" d="M57.853,245.336a3.568,3.568,0,0,0-4.927-.953l-11.2,7.494-2.39-.134-.061-.612a5.2,5.2,0,0,0-4.455-4.644l-.045-.005-12.064-1.057c-.408-.064-1.715-.439-5.3-2.5a13.323,13.323,0,0,0-6.1-1.756V238.93a2.041,2.041,0,0,0-2.039-2.039H2.039A2.042,2.042,0,0,0,0,238.93V261a2.042,2.042,0,0,0,2.039,2.039H9.267A2.042,2.042,0,0,0,11.306,261v-.608l10.546,3.994a5.9,5.9,0,0,0,2.454.181l17.523-2.526.013,0a8.616,8.616,0,0,0,4.083-1.829l.031-.027L57.274,250a3.568,3.568,0,0,0,.579-4.664Zm-1.721,3.387L44.827,258.891a6.9,6.9,0,0,1-3.249,1.452l-17.51,2.524-.015,0h-.008a3.846,3.846,0,0,1-1.622-.1l-11.116-4.21v-9.781a.856.856,0,0,0-1.713,0V261a.327.327,0,0,1-.326.326H2.039A.327.327,0,0,1,1.713,261V238.93a.326.326,0,0,1,.326-.326H9.267a.326.326,0,0,1,.326.326v5.978a.856.856,0,1,0,1.713,0v-2.023a11.6,11.6,0,0,1,5.252,1.528c4.33,2.483,5.539,2.655,5.937,2.711l.045.005L34.6,248.186a3.49,3.49,0,0,1,2.969,3.114l.046.456-16.153,1-.032,0a1.952,1.952,0,0,1-1.332-.7.856.856,0,0,0-1.315,1.1,3.709,3.709,0,0,0,2.5,1.307c.529.055,17.28-1.043,17.28-1.043l3.358.189a.854.854,0,0,0,.524-.144l11.436-7.654a1.847,1.847,0,0,1,2.252,2.917Zm0,0" transform="translate(0 -209.897)"/>
      </g>
    </g>
  </g>
</svg>
